  0
SECTION
  2
HEADER
  9
$ACADVER
  1
AC1032
  9
$ACADMAINTVER
 90
4
  9
$DWGCODEPAGE
  3
ANSI_1252
  9
$LASTSAVEDBY
  1
ezdxf
  9
$REQUIREDVERSIONS
160
0
  9
$INSBASE
 10
0.0
 20
0.0
 30
0.0
  9
$EXTMIN
 10
1e+20
 20
1e+20
 30
1e+20
  9
$EXTMAX
 10
-1e+20
 20
-1e+20
 30
-1e+20
  9
$LIMMIN
 10
0.0
 20
0.0
  9
$LIMMAX
 10
420.0
 20
297.0
  9
$ORTHOMODE
 70
0
  9
$REGENMODE
 70
1
  9
$FILLMODE
 70
1
  9
$QTEXTMODE
 70
0
  9
$MIRRTEXT
 70
1
  9
$LTSCALE
 40
1.0
  9
$ATTMODE
 70
1
  9
$TEXTSIZE
 40
2.5
  9
$TRACEWID
 40
1.0
  9
$TEXTSTYLE
  7
Standard
  9
$CLAYER
  8
0
  9
$CELTYPE
  6
ByLayer
  9
$CECOLOR
 62
256
  9
$CELTSCALE
 40
1.0
  9
$DISPSILH
 70
0
  9
$DIMSCALE
 40
1.0
  9
$DIMASZ
 40
2.5
  9
$DIMEXO
 40
0.625
  9
$DIMDLI
 40
3.75
  9
$DIMRND
 40
0.0
  9
$DIMDLE
 40
0.0
  9
$DIMEXE
 40
1.25
  9
$DIMTP
 40
0.0
  9
$DIMTM
 40
0.0
  9
$DIMTXT
 40
2.5
  9
$DIMCEN
 40
2.5
  9
$DIMTSZ
 40
0.0
  9
$DIMTOL
 70
0
  9
$DIMLIM
 70
0
  9
$DIMTIH
 70
0
  9
$DIMTOH
 70
0
  9
$DIMSE1
 70
0
  9
$DIMSE2
 70
0
  9
$DIMTAD
 70
1
  9
$DIMZIN
 70
8
  9
$DIMBLK
  1

  9
$DIMASO
 70
1
  9
$DIMSHO
 70
1
  9
$DIMPOST
  1

  9
$DIMAPOST
  1

  9
$DIMALT
 70
0
  9
$DIMALTD
 70
3
  9
$DIMALTF
 40
0.03937007874
  9
$DIMLFAC
 40
1.0
  9
$DIMTOFL
 70
1
  9
$DIMTVP
 40
0.0
  9
$DIMTIX
 70
0
  9
$DIMSOXD
 70
0
  9
$DIMSAH
 70
0
  9
$DIMBLK1
  1

  9
$DIMBLK2
  1

  9
$DIMSTYLE
  2
ISO-25
  9
$DIMCLRD
 70
0
  9
$DIMCLRE
 70
0
  9
$DIMCLRT
 70
0
  9
$DIMTFAC
 40
1.0
  9
$DIMGAP
 40
0.625
  9
$DIMJUST
 70
0
  9
$DIMSD1
 70
0
  9
$DIMSD2
 70
0
  9
$DIMTOLJ
 70
0
  9
$DIMTZIN
 70
8
  9
$DIMALTZ
 70
0
  9
$DIMALTTZ
 70
0
  9
$DIMUPT
 70
0
  9
$DIMDEC
 70
2
  9
$DIMTDEC
 70
2
  9
$DIMALTU
 70
2
  9
$DIMALTTD
 70
3
  9
$DIMTXSTY
  7
Standard
  9
$DIMAUNIT
 70
0
  9
$DIMADEC
 70
0
  9
$DIMALTRND
 40
0.0
  9
$DIMAZIN
 70
0
  9
$DIMDSEP
 70
44
  9
$DIMATFIT
 70
3
  9
$DIMFRAC
 70
0
  9
$DIMLDRBLK
  1

  9
$DIMLUNIT
 70
2
  9
$DIMLWD
 70
-2
  9
$DIMLWE
 70
-2
  9
$DIMTMOVE
 70
0
  9
$DIMFXL
 40
1.0
  9
$DIMFXLON
 70
0
  9
$DIMJOGANG
 40
0.785398163397
  9
$DIMTFILL
 70
0
  9
$DIMTFILLCLR
 70
0
  9
$DIMARCSYM
 70
0
  9
$DIMLTYPE
  6

  9
$DIMLTEX1
  6

  9
$DIMLTEX2
  6

  9
$DIMTXTDIRECTION
 70
0
  9
$LUNITS
 70
2
  9
$LUPREC
 70
4
  9
$SKETCHINC
 40
1.0
  9
$FILLETRAD
 40
10.0
  9
$AUNITS
 70
0
  9
$AUPREC
 70
2
  9
$MENU
  1
.
  9
$ELEVATION
 40
0.0
  9
$PELEVATION
 40
0.0
  9
$THICKNESS
 40
0.0
  9
$LIMCHECK
 70
0
  9
$CHAMFERA
 40
0.0
  9
$CHAMFERB
 40
0.0
  9
$CHAMFERC
 40
0.0
  9
$CHAMFERD
 40
0.0
  9
$SKPOLY
 70
0
  9
$TDCREATE
 40
2461320.3587268516
  9
$TDUCREATE
 40
2458532.153996898
  9
$TDUPDATE
 40
2461320.3587268516
  9
$TDUUPDATE
 40
2458532.1544311
  9
$TDINDWG
 40
0.0
  9
$TDUSRTIMER
 40
0.0
  9
$USRTIMER
 70
1
  9
$ANGBASE
 50
0.0
  9
$ANGDIR
 70
0
  9
$PDMODE
 70
0
  9
$PDSIZE
 40
0.0
  9
$PLINEWID
 40
0.0
  9
$SPLFRAME
 70
0
  9
$SPLINETYPE
 70
6
  9
$SPLINESEGS
 70
8
  9
$HANDSEED
  5
81
  9
$SURFTAB1
 70
6
  9
$SURFTAB2
 70
6
  9
$SURFTYPE
 70
6
  9
$SURFU
 70
6
  9
$SURFV
 70
6
  9
$UCSBASE
  2

  9
$UCSNAME
  2

  9
$UCSORG
 10
0.0
 20
0.0
 30
0.0
  9
$UCSXDIR
 10
1.0
 20
0.0
 30
0.0
  9
$UCSYDIR
 10
0.0
 20
1.0
 30
0.0
  9
$UCSORTHOREF
  2

  9
$UCSORTHOVIEW
 70
0
  9
$UCSORGTOP
 10
0.0
 20
0.0
 30
0.0
  9
$UCSORGBOTTOM
 10
0.0
 20
0.0
 30
0.0
  9
$UCSORGLEFT
 10
0.0
 20
0.0
 30
0.0
  9
$UCSORGRIGHT
 10
0.0
 20
0.0
 30
0.0
  9
$UCSORGFRONT
 10
0.0
 20
0.0
 30
0.0
  9
$UCSORGBACK
 10
0.0
 20
0.0
 30
0.0
  9
$PUCSBASE
  2

  9
$PUCSNAME
  2

  9
$PUCSORG
 10
0.0
 20
0.0
 30
0.0
  9
$PUCSXDIR
 10
1.0
 20
0.0
 30
0.0
  9
$PUCSYDIR
 10
0.0
 20
1.0
 30
0.0
  9
$PUCSORTHOREF
  2

  9
$PUCSORTHOVIEW
 70
0
  9
$PUCSORGTOP
 10
0.0
 20
0.0
 30
0.0
  9
$PUCSORGBOTTOM
 10
0.0
 20
0.0
 30
0.0
  9
$PUCSORGLEFT
 10
0.0
 20
0.0
 30
0.0
  9
$PUCSORGRIGHT
 10
0.0
 20
0.0
 30
0.0
  9
$PUCSORGFRONT
 10
0.0
 20
0.0
 30
0.0
  9
$PUCSORGBACK
 10
0.0
 20
0.0
 30
0.0
  9
$USERI1
 70
0
  9
$USERI2
 70
0
  9
$USERI3
 70
0
  9
$USERI4
 70
0
  9
$USERI5
 70
0
  9
$USERR1
 40
0.0
  9
$USERR2
 40
0.0
  9
$USERR3
 40
0.0
  9
$USERR4
 40
0.0
  9
$USERR5
 40
0.0
  9
$WORLDVIEW
 70
1
  9
$SHADEDGE
 70
3
  9
$SHADEDIF
 70
70
  9
$TILEMODE
 70
1
  9
$MAXACTVP
 70
64
  9
$PINSBASE
 10
0.0
 20
0.0
 30
0.0
  9
$PLIMCHECK
 70
0
  9
$PEXTMIN
 10
1e+20
 20
1e+20
 30
1e+20
  9
$PEXTMAX
 10
-1e+20
 20
-1e+20
 30
-1e+20
  9
$PLIMMIN
 10
0.0
 20
0.0
  9
$PLIMMAX
 10
420.0
 20
297.0
  9
$UNITMODE
 70
0
  9
$VISRETAIN
 70
1
  9
$PLINEGEN
 70
0
  9
$PSLTSCALE
 70
1
  9
$TREEDEPTH
 70
3020
  9
$CMLSTYLE
  2
Standard
  9
$CMLJUST
 70
0
  9
$CMLSCALE
 40
20.0
  9
$PROXYGRAPHICS
 70
1
  9
$MEASUREMENT
 70
1
  9
$CELWEIGHT
370
-1
  9
$ENDCAPS
280
0
  9
$JOINSTYLE
280
0
  9
$LWDISPLAY
290
0
  9
$INSUNITS
 70
4
  9
$HYPERLINKBASE
  1

  9
$STYLESHEET
  1

  9
$XEDIT
290
1
  9
$CEPSNTYPE
380
0
  9
$PSTYLEMODE
290
1
  9
$FINGERPRINTGUID
  2
{E6ACF737-E345-4610-9A4F-611DB3A806C7}
  9
$VERSIONGUID
  2
{F3EFF378-C71B-4EF6-8692-59BEEBF3722C}
  9
$EXTNAMES
290
1
  9
$PSVPSCALE
 40
0.0
  9
$OLESTARTUP
290
0
  9
$SORTENTS
280
127
  9
$INDEXCTL
280
0
  9
$HIDETEXT
280
1
  9
$XCLIPFRAME
280
1
  9
$HALOGAP
280
0
  9
$OBSCOLOR
 70
257
  9
$OBSLTYPE
280
0
  9
$INTERSECTIONDISPLAY
280
0
  9
$INTERSECTIONCOLOR
 70
257
  9
$DIMASSOC
280
2
  9
$PROJECTNAME
  1

  9
$CAMERADISPLAY
290
0
  9
$LENSLENGTH
 40
50.0
  9
$CAMERAHEIGHT
 40
0.0
  9
$STEPSPERSEC
 40
24.0
  9
$STEPSIZE
 40
100.0
  9
$3DDWFPREC
 40
2.0
  9
$PSOLWIDTH
 40
0.005
  9
$PSOLHEIGHT
 40
0.08
  9
$LOFTANG1
 40
1.570796326795
  9
$LOFTANG2
 40
1.570796326795
  9
$LOFTMAG1
 40
0.0
  9
$LOFTMAG2
 40
0.0
  9
$LOFTPARAM
 70
7
  9
$LOFTNORMALS
280
1
  9
$LATITUDE
 40
37.795
  9
$LONGITUDE
 40
-122.394
  9
$NORTHDIRECTION
 40
0.0
  9
$TIMEZONE
 70
-8000
  9
$LIGHTGLYPHDISPLAY
280
1
  9
$TILEMODELIGHTSYNCH
280
1
  9
$CMATERIAL
347
20
  9
$SOLIDHIST
280
0
  9
$SHOWHIST
280
1
  9
$DWFFRAME
280
2
  9
$DGNFRAME
280
2
  9
$REALWORLDSCALE
290
1
  9
$INTERFERECOLOR
 62
256
  9
$CSHADOW
280
0
  9
$SHADOWPLANELOCATION
 40
0.0
  0
ENDSEC
  0
SECTION
  2
CLASSES
  0
CLASS
  1
ACDBDICTIONARYWDFLT
  2
AcDbDictionaryWithDefault
  3
ObjectDBX Classes
 90
0
 91
0
280
0
281
0
  0
CLASS
  1
SUN
  2
AcDbSun
  3
SCENEOE
 90
1153
 91
0
280
0
281
0
  0
CLASS
  1
VISUALSTYLE
  2
AcDbVisualStyle
  3
ObjectDBX Classes
 90
4095
 91
0
280
0
281
0
  0
CLASS
  1
MATERIAL
  2
AcDbMaterial
  3
ObjectDBX Classes
 90
1153
 91
0
280
0
281
0
  0
CLASS
  1
SCALE
  2
AcDbScale
  3
ObjectDBX Classes
 90
1153
 91
0
280
0
281
0
  0
CLASS
  1
TABLESTYLE
  2
AcDbTableStyle
  3
ObjectDBX Classes
 90
4095
 91
0
280
0
281
0
  0
CLASS
  1
MLEADERSTYLE
  2
AcDbMLeaderStyle
  3
ACDB_MLEADERSTYLE_CLASS
 90
4095
 91
0
280
0
281
0
  0
CLASS
  1
DICTIONARYVAR
  2
AcDbDictionaryVar
  3
ObjectDBX Classes
 90
0
 91
0
280
0
281
0
  0
CLASS
  1
CELLSTYLEMAP
  2
AcDbCellStyleMap
  3
ObjectDBX Classes
 90
1152
 91
0
280
0
281
0
  0
CLASS
  1
MENTALRAYRENDERSETTINGS
  2
AcDbMentalRayRenderSettings
  3
SCENEOE
 90
1024
 91
0
280
0
281
0
  0
CLASS
  1
ACDBDETAILVIEWSTYLE
  2
AcDbDetailViewStyle
  3
ObjectDBX Classes
 90
1025
 91
0
280
0
281
0
  0
CLASS
  1
ACDBSECTIONVIEWSTYLE
  2
AcDbSectionViewStyle
  3
ObjectDBX Classes
 90
1025
 91
0
280
0
281
0
  0
CLASS
  1
RASTERVARIABLES
  2
AcDbRasterVariables
  3
ISM
 90
0
 91
0
280
0
281
0
  0
CLASS
  1
ACDBPLACEHOLDER
  2
AcDbPlaceHolder
  3
ObjectDBX Classes
 90
0
 91
0
280
0
281
0
  0
CLASS
  1
LAYOUT
  2
AcDbLayout
  3
ObjectDBX Classes
 90
0
 91
0
280
0
281
0
  0
ENDSEC
  0
SECTION
  2
TABLES
  0
TABLE
  2
VPORT
  5
8
330
0
100
AcDbSymbolTable
 70
1
  0
VPORT
  5
23
330
8
100
AcDbSymbolTableRecord
100
AcDbViewportTableRecord
  2
*Active
 70
0
 10
0.0
 20
0.0
 11
1.0
 21
1.0
 12
0.0
 22
0.0
 13
0.0
 23
0.0
 14
0.5
 24
0.5
 15
0.5
 25
0.5
 16
0.0
 26
0.0
 36
1.0
 17
0.0
 27
0.0
 37
0.0
 40
1000.0
 41
1.34
 42
50.0
 43
0.0
 44
0.0
 50
0.0
 51
0.0
 71
0
 72
1000
 73
1
 74
3
 75
0
 76
0
 77
0
 78
0
281
0
 65
0
146
0.0
  0
ENDTAB
  0
TABLE
  2
LTYPE
  5
2
330
0
100
AcDbSymbolTable
 70
3
  0
LTYPE
  5
24
330
2
100
AcDbSymbolTableRecord
100
AcDbLinetypeTableRecord
  2
ByBlock
 70
0
  3

 72
65
 73
0
 40
0.0
  0
LTYPE
  5
25
330
2
100
AcDbSymbolTableRecord
100
AcDbLinetypeTableRecord
  2
ByLayer
 70
0
  3

 72
65
 73
0
 40
0.0
  0
LTYPE
  5
26
330
2
100
AcDbSymbolTableRecord
100
AcDbLinetypeTableRecord
  2
Continuous
 70
0
  3

 72
65
 73
0
 40
0.0
  0
ENDTAB
  0
TABLE
  2
LAYER
  5
1
330
0
100
AcDbSymbolTable
 70
2
  0
LAYER
  5
27
330
1
100
AcDbSymbolTableRecord
100
AcDbLayerTableRecord
  2
0
 70
0
 62
7
  6
Continuous
370
-3
390
13
347
21
  0
LAYER
  5
28
330
1
100
AcDbSymbolTableRecord
100
AcDbLayerTableRecord
  2
Defpoints
 70
0
 62
7
  6
Continuous
290
0
370
-3
390
13
347
21
  0
ENDTAB
  0
TABLE
  2
STYLE
  5
5
330
0
100
AcDbSymbolTable
 70
1
  0
STYLE
  5
29
330
5
100
AcDbSymbolTableRecord
100
AcDbTextStyleTableRecord
  2
Standard
 70
0
 40
0.0
 41
1.0
 50
0.0
 71
0
 42
2.5
  3
txt
  4

  0
ENDTAB
  0
TABLE
  2
VIEW
  5
7
330
0
100
AcDbSymbolTable
 70
0
  0
ENDTAB
  0
TABLE
  2
UCS
  5
6
330
0
100
AcDbSymbolTable
 70
0
  0
ENDTAB
  0
TABLE
  2
APPID
  5
3
330
0
100
AcDbSymbolTable
 70
3
  0
APPID
  5
2A
330
3
100
AcDbSymbolTableRecord
100
AcDbRegAppTableRecord
  2
ACAD
 70
0
  0
APPID
  5
7E
330
3
100
AcDbSymbolTableRecord
100
AcDbRegAppTableRecord
  2
HATCHBACKGROUNDCOLOR
 70
0
  0
APPID
  5
7F
330
3
100
AcDbSymbolTableRecord
100
AcDbRegAppTableRecord
  2
EZDXF
 70
0
  0
ENDTAB
  0
TABLE
  2
DIMSTYLE
  5
4
330
0
100
AcDbSymbolTable
 70
1
100
AcDbDimStyleTable
  0
DIMSTYLE
105
2B
330
4
100
AcDbSymbolTableRecord
100
AcDbDimStyleTableRecord
  2
Standard
 70
0
 40
1.0
 41
2.5
 42
0.625
 43
3.75
 44
1.25
 45
0.0
 46
0.0
 47
0.0
 48
0.0
 49
2.5
140
2.5
141
2.5
142
0.0
143
0.03937007874
144
1.0
145
0.0
146
1.0
147
0.625
148
0.0
 69
0
 70
0
 71
0
 72
0
 73
0
 74
0
 75
0
 76
0
 77
1
 78
8
 79
3
170
0
171
3
172
1
173
0
174
0
175
0
176
0
177
0
178
0
179
2
271
2
272
2
273
2
274
3
275
0
276
0
277
2
278
44
279
0
280
0
281
0
282
0
283
0
284
8
285
0
286
0
288
0
289
3
290
0
371
-2
372
-2
  0
ENDTAB
  0
TABLE
  2
BLOCK_RECORD
  5
9
330
0
100
AcDbSymbolTable
 70
7
  0
BLOCK_RECORD
  5
17
330
9
100
AcDbSymbolTableRecord
100
AcDbBlockTableRecord
  2
*Model_Space
340
1A
 70
0
280
1
281
0
  0
BLOCK_RECORD
  5
1B
330
9
100
AcDbSymbolTableRecord
100
AcDbBlockTableRecord
  2
*Paper_Space
340
1E
 70
0
280
1
281
0
  0
BLOCK_RECORD
  5
3A
330
9
100
AcDbSymbolTableRecord
100
AcDbBlockTableRecord
  2
B0
340
0
 70
0
280
1
281
0
  0
BLOCK_RECORD
  5
4C
330
9
100
AcDbSymbolTableRecord
100
AcDbBlockTableRecord
  2
B1
340
0
 70
0
280
1
281
0
  0
BLOCK_RECORD
  5
5B
330
9
100
AcDbSymbolTableRecord
100
AcDbBlockTableRecord
  2
B2
340
0
 70
0
280
1
281
0
  0
BLOCK_RECORD
  5
62
330
9
100
AcDbSymbolTableRecord
100
AcDbBlockTableRecord
  2
*D1
340
0
 70
0
280
1
281
0
  0
BLOCK_RECORD
  5
67
330
9
100
AcDbSymbolTableRecord
100
AcDbBlockTableRecord
  2
_CLOSEDFILLED
340
0
 70
0
280
1
281
0
  0
ENDTAB
  0
ENDSEC
  0
SECTION
  2
BLOCKS
  0
BLOCK
  5
18
330
17
100
AcDbEntity
  8
0
100
AcDbBlockBegin
  2
*Model_Space
 70
0
 10
0.0
 20
0.0
 30
0.0
  3
*Model_Space
  1

  0
ENDBLK
  5
19
330
17
100
AcDbEntity
  8
0
100
AcDbBlockEnd
  0
BLOCK
  5
1C
330
1B
100
AcDbEntity
  8
0
100
AcDbBlockBegin
  2
*Paper_Space
 70
0
 10
0.0
 20
0.0
 30
0.0
  3
*Paper_Space
  1

  0
ENDBLK
  5
1D
330
1B
100
AcDbEntity
  8
0
100
AcDbBlockEnd
  0
BLOCK
  5
3B
330
3A
100
AcDbEntity
  8
0
100
AcDbBlockBegin
  2
B0
 70
0
 10
-2.7423969517906843
 20
0.44307990216628923
 30
0.0
  3
B0
  1

  0
HATCH
  5
3D
330
3A
100
AcDbEntity
  8
0
 62
7
100
AcDbHatch
 10
0.0
 20
0.0
 30
0.0
210
0.0
220
0.0
230
1.0
  2
SOLID
 70
1
 71
0
 91
1
 92
3
 72
0
 73
1
 93
3
 10
-7.572499659130763
 20
-35.385490929908194
 10
-6.072499659130763
 20
-35.385490929908194
 10
-6.072499659130763
 20
-34.385490929908194
 97
0
 75
0
 76
1
 98
0
  0
POLYLINE
  5
3E
330
3A
100
AcDbEntity
  8
0
100
AcDb2dPolyline
 66
1
 10
0.0
 20
0.0
 30
0.0
 70
1
  0
VERTEX
  5
40
330
3A
100
AcDbEntity
  8
0
100
AcDbVertex
100
AcDb2dVertex
 10
-12.549997351380352
 20
2.5612711614051804
 30
0.0
 42
0.6371667715044251
 70
0
  0
VERTEX
  5
41
330
3A
100
AcDbEntity
  8
0
100
AcDbVertex
100
AcDb2dVertex
 10
-18.70187000234166
 20
-1.6359087291078893
 30
0.0
 70
0
  0
VERTEX
  5
42
330
3A
100
AcDbEntity
  8
0
100
AcDbVertex
100
AcDb2dVertex
 10
-10.122897201276803
 20
1.9639062450372222
 30
0.0
 70
0
  0
VERTEX
  5
43
330
3A
100
AcDbEntity
  8
0
100
AcDbVertex
100
AcDb2dVertex
 10
9.636998619750756
 20
29.01654737271094
 30
0.0
 70
0
  0
SEQEND
  5
3F
330
3E
100
AcDbEntity
  8
0
  0
POLYLINE
  5
44
330
3A
100
AcDbEntity
  8
0
100
AcDb3dPolyline
 66
1
 10
0.0
 20
0.0
 30
0.0
 70
8
  0
VERTEX
  5
46
330
3A
100
AcDbEntity
  8
0
100
AcDbVertex
100
AcDb3dPolylineVertex
 10
-8.417215180971901
 20
32.00569234532256
 30
0.0
 70
32
  0
VERTEX
  5
47
330
3A
100
AcDbEntity
  8
0
100
AcDbVertex
100
AcDb3dPolylineVertex
 10
-5.417215180971901
 20
33.00569234532256
 30
2.0
 70
32
  0
VERTEX
  5
48
330
3A
100
AcDbEntity
  8
0
100
AcDbVertex
100
AcDb3dPolylineVertex
 10
-3.417215180971901
 20
30.005692345322558
 30
-1.0
 70
32
  0
SEQEND
  5
45
330
44
100
AcDbEntity
  8
0
  0
HATCH
  5
49
330
3A
100
AcDbEntity
  8
0
 62
7
100
AcDbHatch
 10
0.0
 20
0.0
 30
0.0
210
0.0
220
0.0
230
1.0
  2
SOLID
 70
1
 71
0
 91
1
 92
1
 93
3
 72
1
 10
6.099364706073018
 20
-14.482277901389587
 11
8.099364706073018
 21
-14.482277901389587
 72
2
 10
8.099364706073018
 20
-13.482277901389587
 40
1
 50
270.0
 51
450.0
 73
0
 72
3
 10
6.099364706073018
 20
-13.482277901389587
 11
0.0
 21
1.0
 40
0.5198489419651503
 50
90
 51
270
 73
1
 97
0
 75
0
 76
1
 98
0
  0
LWPOLYLINE
  5
4A
330
3A
100
AcDbEntity
  8
0
100
AcDbPolyline
 90
2
 70
1
 10
-16.043455780301876
 20
-20.666616700483402
 42
-0.2392945336407104
 10
20.345673855588174
 20
21.19080913786616
 42
-1.3846358111790398
210
0.01
220
0.005
230
1.0
  0
LINE
  5
4B
330
3A
100
AcDbEntity
  8
0
100
AcDbLine
 10
-8.16862376752433
 20
23.620656026066072
 30
0.0
 11
29.184832074398273
 21
-39.97401387123226
 31
0.25151034954191953
  0
ENDBLK
  5
3C
330
3A
100
AcDbEntity
  8
0
100
AcDbBlockEnd
  0
BLOCK
  5
4D
330
4C
100
AcDbEntity
  8
0
100
AcDbBlockBegin
  2
B1
 70
0
 10
1.6179692398307228
 20
-2.035526573022861
 30
0.0
  3
B1
  1

  0
HATCH
  5
4F
330
4C
100
AcDbEntity
  8
0
 62
7
100
AcDbHatch
 10
0.0
 20
0.0
 30
0.0
210
-0.521542893543768
220
-0.34547562645048746
230
0.879379907479483
  2
SOLID
 70
1
 71
0
 91
1
 92
1
 93
3
 72
1
 10
-40.62012859679075
 20
-3.8948959468234037
 11
-38.62012859679075
 21
-3.8948959468234037
 72
2
 10
-38.62012859679075
 20
-2.8948959468234037
 40
1
 50
-90
 51
90
 73
1
 72
3
 10
-40.62012859679075
 20
-2.8948959468234037
 11
0.0
 21
1.0
 40
0.7561688817138584
 50
90
 51
270
 73
1
 97
0
 75
0
 76
1
 98
0
  0
SOLID
  5
50
330
4C
100
AcDbEntity
  8
0
100
AcDbTrace
 10
9.959993612347787
 20
46.43309160657047
 30
0.0
 11
10.959993612347787
 21
46.43309160657047
 31
0.0
 12
9.959993612347787
 22
47.133091606570474
 32
0.0
 13
11.159993612347787
 23
47.43309160657047
 33
0.0
210
0.6692194517109082
220
-0.8198462707904319
230
0.9875400456983126
  0
SPLINE
  5
51
330
4C
100
AcDbEntity
  8
0
100
AcDbSpline
 70
0
 71
3
 72
9
 73
5
 74
0
 40
0.0
 40
0.0
 40
0.0
 40
0.0
 40
1.0
 40
2.0
 40
2.0
 40
2.0
 40
2.0
 10
24.33144125595296
 20
6.0018421233491495
 30
0.0
 10
-29.20868863805903
 20
28.958465613510427
 30
0.0
 10
-28.202248934844057
 20
-12.116089236460372
 30
0.0
 10
13.313842451761438
 20
27.272186113798845
 30
0.0
 10
19.674544832304534
 20
-7.746594734629358
 30
0.0
  0
SOLID
  5
52
330
4C
100
AcDbEntity
  8
0
100
AcDbTrace
 10
-42.17108083237942
 20
16.256097240742065
 30
0.0
 11
-41.17108083237942
 21
16.256097240742065
 31
0.0
 12
-42.17108083237942
 22
16.956097240742064
 32
0.0
 13
-40.971080832379414
 23
17.256097240742065
 33
0.0
  0
POLYLINE
  5
53
330
4C
100
AcDbEntity
  8
0
100
AcDb2dPolyline
 66
1
 10
0.0
 20
0.0
 30
0.0
 70
0
  0
VERTEX
  5
55
330
4C
100
AcDbEntity
  8
0
100
AcDbVertex
100
AcDb2dVertex
 10
28.607103482778555
 20
21.314689428378443
 30
0.0
 42
-0.9274357408681222
 70
0
  0
VERTEX
  5
56
330
4C
100
AcDbEntity
  8
0
100
AcDbVertex
100
AcDb2dVertex
 10
-4.195180158061266
 20
-20.486076157244593
 30
0.0
 42
-0.695357880298356
 70
0
  0
VERTEX
  5
57
330
4C
100
AcDbEntity
  8
0
100
AcDbVertex
100
AcDb2dVertex
 10
-6.390141293452928
 20
-12.998332610647733
 30
0.0
 42
-0.8810418869341659
 70
0
  0
VERTEX
  5
58
330
4C
100
AcDbEntity
  8
0
100
AcDbVertex
100
AcDb2dVertex
 10
3.7195097457763
 20
-24.819503165203034
 30
0.0
 70
0
  0
SEQEND
  5
54
330
53
100
AcDbEntity
  8
0
  0
INSERT
  5
59
330
4C
100
AcDbEntity
  8
0
100
AcDbBlockReference
  2
B0
 10
-1.159878109685164
 20
6.116340328580902
 30
0.0
 41
2.0
 42
-2.0
 50
3.7507061205633674
  0
ENDBLK
  5
4E
330
4C
100
AcDbEntity
  8
0
100
AcDbBlockEnd
  0
BLOCK
  5
5C
330
5B
100
AcDbEntity
  8
0
100
AcDbBlockBegin
  2
B2
 70
0
 10
2.456047932121538
 20
-2.223419324634647
 30
0.0
  3
B2
  1

  0
LEADER
  5
5E
330
5B
100
AcDbEntity
  8
0
100
AcDbLeader
  3
Standard
 73
3
 76
3
 10
47.63303185599099
 20
-5.908432127983168
 30
0.0
 10
52.63303185599099
 20
-1.9084321279831684
 30
0.0
 10
56.63303185599099
 20
-1.9084321279831684
 30
0.0
  0
SOLID
  5
5F
330
5B
100
AcDbEntity
  8
0
100
AcDbTrace
 10
29.717464610728968
 20
2.6926459756717023
 30
0.0
 11
30.717464610728968
 21
2.6926459756717023
 31
0.0
 12
29.717464610728968
 22
3.3926459756717025
 32
0.0
 13
30.917464610728967
 23
3.6926459756717023
 33
0.0
210
0.0
220
0.0
230
-1.0
  0
TEXT
  5
60
330
5B
100
AcDbEntity
  8
0
100
AcDbText
 10
-30.023166107885036
 20
-48.547118827468026
 30
0.0
 40
2.5
  1
T19
 50
10.664296677309437
100
AcDbText
  0
DIMENSION
  5
61
330
5B
100
AcDbEntity
  8
0
100
AcDbDimension
280
0
  2
*D1
  3
Standard
 10
34.31442707513499
 20
49.398223895714466
 30
0.0
 11
41.317927665917566
 21
49.398223895714466
 31
0.0
 70
32
 71
5
  1
<>
100
AcDbAlignedDimension
 13
34.31442707513499
 23
44.398223895714466
 33
0.0
 14
48.32142825670015
 24
44.398223895714466
 34
0.0
 50
0.0
100
AcDbRotatedDimension
  0
SPLINE
  5
75
330
5B
100
AcDbEntity
  8
0
100
AcDbSpline
 70
0
 71
3
 72
0
 73
0
 74
18
 12
1.0
 22
-0.7220655644318206
 32
0.0
 13
1.0
 23
-0.6726060161074969
 33
0.0
 11
36.29004680942856
 21
39.128053130556225
 31
0.0
 11
38.29004680942856
 21
35.67166836427376
 31
0.0
 11
40.29004680942856
 21
36.000896298956754
 31
0.0
 11
42.29004680942856
 21
38.72193523701037
 31
0.0
 11
44.29004680942856
 21
37.26121921048151
 31
0.0
 11
46.29004680942856
 21
35.47395278430713
 31
0.0
 11
48.29004680942856
 21
36.16544744667344
 31
0.0
 11
50.29004680942856
 21
41.2033851699087
 31
0.0
 11
52.29004680942856
 21
39.496674593140234
 31
0.0
 11
54.29004680942856
 21
40.835052454655816
 31
0.0
 11
56.29004680942856
 21
41.131731942830115
 31
0.0
 11
58.29004680942856
 21
37.72083650513012
 31
0.0
 11
60.29004680942856
 21
39.36983300611997
 31
0.0
 11
62.29004680942856
 21
39.40141421925528
 31
0.0
 11
64.29004680942856
 21
38.887870707327245
 31
0.0
 11
66.29004680942856
 21
37.263089863805575
 31
0.0
 11
68.29004680942856
 21
37.265199157849494
 31
0.0
 11
70.29004680942856
 21
41.28711965412682
 31
0.0
  0
ENDBLK
  5
5D
330
5B
100
AcDbEntity
  8
0
100
AcDbBlockEnd
  0
BLOCK
  5
63
330
62
100
AcDbEntity
  8
0
100
AcDbBlockBegin
  2
*D1
 70
1
 10
0.0
 20
0.0
 30
0.0
  3
*D1
  1

  0
LINE
  5
65
330
62
100
AcDbEntity
  8
0
100
AcDbLine
 10
34.31442707513499
 20
44.398223895714466
 30
0.0
 11
34.31442707513499
 21
49.398223895714466
 31
0.0
  0
LINE
  5
66
330
62
100
AcDbEntity
  8
0
100
AcDbLine
 10
48.32142825670015
 20
44.398223895714466
 30
0.0
 11
48.32142825670015
 21
49.398223895714466
 31
0.0
  0
INSERT
  5
6B
330
62
100
AcDbEntity
  8
0
100
AcDbBlockReference
  2
_CLOSEDFILLED
 10
34.31442707513499
 20
49.398223895714466
 30
0.0
 41
0.25
 42
0.25
 50
180.0
  0
INSERT
  5
6D
330
62
100
AcDbEntity
  8
0
100
AcDbBlockReference
  2
_CLOSEDFILLED
 10
48.32142825670015
 20
49.398223895714466
 30
0.0
 41
0.25
 42
0.25
  0
LINE
  5
6F
330
62
100
AcDbEntity
  8
0
100
AcDbLine
 10
34.56442707513499
 20
49.398223895714466
 30
0.0
 11
38.817927665917566
 21
49.398223895714466
 31
0.0
  0
LINE
  5
70
330
62
100
AcDbEntity
  8
0
100
AcDbLine
 10
43.817927665917566
 20
49.398223895714466
 30
0.0
 11
48.07142825670015
 21
49.398223895714466
 31
0.0
  0
MTEXT
  5
71
330
62
100
AcDbEntity
  8
0
100
AcDbMText
 10
41.317927665917566
 20
49.398223895714466
 30
0.0
 40
1.0
 71
5
  1
14,01
  0
POINT
  5
72
330
62
100
AcDbEntity
  8
Defpoints
100
AcDbPoint
 10
34.31442707513499
 20
49.398223895714466
 30
0.0
  0
POINT
  5
73
330
62
100
AcDbEntity
  8
Defpoints
100
AcDbPoint
 10
34.31442707513499
 20
44.398223895714466
 30
0.0
  0
POINT
  5
74
330
62
100
AcDbEntity
  8
Defpoints
100
AcDbPoint
 10
48.32142825670015
 20
44.398223895714466
 30
0.0
  0
ENDBLK
  5
64
330
62
100
AcDbEntity
  8
0
100
AcDbBlockEnd
  0
BLOCK
  5
68
330
67
100
AcDbEntity
  8
0
100
AcDbBlockBegin
  2
_CLOSEDFILLED
 70
0
 10
0.0
 20
0.0
 30
0.0
  3
_CLOSEDFILLED
  1

  0
SOLID
  5
6A
330
67
100
AcDbEntity
  8
0
  6
BYBLOCK
 62
0
100
AcDbTrace
 10
-1.0
 20
0.16439898372402537
 30
0.0
 11
0.0
 21
0.0
 31
0.0
 12
-1.0
 22
-0.16439898372402537
 32
0.0
 13
-1.0
 23
-0.16439898372402537
 33
0.0
  0
ENDBLK
  5
69
330
67
100
AcDbEntity
  8
0
100
AcDbBlockEnd
  0
ENDSEC
  0
SECTION
  2
ENTITIES
  0
HATCH
  5
2F
330
17
100
AcDbEntity
  8
0
 62
7
100
AcDbHatch
 10
0.0
 20
0.0
 30
0.0
210
0.0
220
0.0
230
1.0
  2
SOLID
 70
1
 71
0
 91
1
 92
1
 93
3
 72
1
 10
26.937255000916053
 20
4.420900090373493
 11
28.937255000916053
 21
4.420900090373493
 72
2
 10
28.937255000916053
 20
5.420900090373493
 40
1
 50
-90
 51
90
 73
1
 72
3
 10
26.937255000916053
 20
5.420900090373493
 11
0.0
 21
1.0
 40
0.5953786641446254
 50
90
 51
270
 73
1
 97
0
 75
0
 76
1
 98
0
  0
POLYLINE
  5
30
330
17
100
AcDbEntity
  8
0
100
AcDb3dPolyline
 66
1
 10
0.0
 20
0.0
 30
0.0
 70
9
  0
VERTEX
  5
32
330
17
100
AcDbEntity
  8
0
100
AcDbVertex
100
AcDb3dPolylineVertex
 10
27.491718002892412
 20
21.339668856314717
 30
0.0
 70
32
  0
VERTEX
  5
33
330
17
100
AcDbEntity
  8
0
100
AcDbVertex
100
AcDb3dPolylineVertex
 10
30.491718002892412
 20
22.339668856314717
 30
2.0
 70
32
  0
VERTEX
  5
34
330
17
100
AcDbEntity
  8
0
100
AcDbVertex
100
AcDb3dPolylineVertex
 10
32.49171800289241
 20
19.339668856314717
 30
-1.0
 70
32
  0
SEQEND
  5
31
330
30
100
AcDbEntity
  8
0
  0
MTEXT
  5
35
330
17
100
AcDbEntity
  8
0
100
AcDbMText
 10
6.041884400907136
 20
-48.786030538278325
 30
0.0
 40
2.5
 71
1
  1
M1\P{\H2;x}
210
0.0
220
0.0
230
-1.0
 50
57.14776890754941
  0
HATCH
  5
36
330
17
100
AcDbEntity
  8
0
 62
7
100
AcDbHatch
 10
0.0
 20
0.0
 30
0.0
210
0.0
220
0.0
230
1.0
  2
SOLID
 70
1
 71
0
 91
1
 92
1
 93
3
 72
1
 10
33.52629042365125
 20
-0.691243414677615
 11
35.52629042365125
 21
-0.691243414677615
 72
2
 10
35.52629042365125
 20
0.30875658532238504
 40
1
 50
270.0
 51
450.0
 73
0
 72
3
 10
33.52629042365125
 20
0.30875658532238504
 11
0.0
 21
1.0
 40
0.9172576217733068
 50
90
 51
270
 73
1
 97
0
 75
0
 76
1
 98
0
  0
LINE
  5
37
330
17
100
AcDbEntity
  8
0
100
AcDbLine
 10
-0.5935854608185664
 20
-40.991495874426455
 30
0.0
 11
46.496207712575625
 21
27.512692182838464
 31
2.95442015682256
  0
ARC
  5
38
330
17
100
AcDbEntity
  8
0
100
AcDbCircle
 10
34.97610563250298
 20
3.09624088646666
 30
0.0
 40
15.663288002976728
100
AcDbArc
 50
364.96474466764334
 51
358.29269537724736
  0
ELLIPSE
  5
39
330
17
100
AcDbEntity
  8
0
100
AcDbEllipse
 10
49.63706252132593
 20
42.45412415552444
 30
0.0
 11
-3.5149468343074597
 21
-9.862883344830696
 31
0.0
 40
0.9804820908028812
 41
5.760807469247174
 42
-1.0212545975359735
  0
INSERT
  5
76
330
17
100
AcDbEntity
  8
0
100
AcDbBlockReference
  2
B0
 10
56.62857312690133
 20
15.922653150191366
 30
0.0
 41
-1.0
 42
-1.0
 50
13.951987783932797
  0
INSERT
  5
78
330
17
100
AcDbEntity
  8
0
100
AcDbBlockReference
  2
B2
 10
49.67787809780461
 20
-69.63485051047407
 30
0.0
 41
-1.0
 42
-1.0
 50
39.178146639978465
210
0.0
220
0.0
230
-1.0
  0
INSERT
  5
7A
330
17
100
AcDbEntity
  8
0
100
AcDbBlockReference
  2
B0
 10
1.5610754383396
 20
70.37713690536518
 30
0.0
 41
-1.0
 42
0.5
 50
37.5247402642239
210
0.01
220
0.005
230
1.0
  0
INSERT
  5
7C
330
17
100
AcDbEntity
  8
0
100
AcDbBlockReference
  2
B2
 10
-14.146864531684514
 20
-47.154624028558715
 30
0.0
 41
-1.0
 42
-1.0
 50
49.80239888763469
  0
ENDSEC
  0
SECTION
  2
OBJECTS
  0
DICTIONARY
  5
A
330
0
100
AcDbDictionary
281
1
  3
ACAD_COLOR
350
B
  3
ACAD_GROUP
350
C
  3
ACAD_LAYOUT
350
D
  3
ACAD_MATERIAL
350
E
  3
ACAD_MLEADERSTYLE
350
F
  3
ACAD_MLINESTYLE
350
10
  3
ACAD_PLOTSETTINGS
350
11
  3
ACAD_PLOTSTYLENAME
350
12
  3
ACAD_SCALELIST
350
14
  3
ACAD_TABLESTYLE
350
15
  3
ACAD_VISUALSTYLE
350
16
  3
EZDXF_META
350
2D
  0
DICTIONARY
  5
B
330
A
100
AcDbDictionary
281
1
  0
DICTIONARY
  5
C
330
A
100
AcDbDictionary
281
1
  0
DICTIONARY
  5
D
330
A
100
AcDbDictionary
281
1
  3
Model
350
1A
  3
Layout1
350
1E
  0
DICTIONARY
  5
E
330
A
100
AcDbDictionary
281
1
  3
ByBlock
350
1F
  3
ByLayer
350
20
  3
Global
350
21
  0
DICTIONARY
  5
F
330
A
100
AcDbDictionary
281
1
  3
Standard
350
2C
  0
DICTIONARY
  5
10
330
A
100
AcDbDictionary
281
1
  3
Standard
350
22
  0
DICTIONARY
  5
11
330
A
100
AcDbDictionary
281
1
  0
ACDBDICTIONARYWDFLT
  5
12
330
A
100
AcDbDictionary
281
1
  3
Normal
350
13
100
AcDbDictionaryWithDefault
340
13
  0
ACDBPLACEHOLDER
  5
13
330
12
  0
DICTIONARY
  5
14
330
A
100
AcDbDictionary
281
1
  0
DICTIONARY
  5
15
330
A
100
AcDbDictionary
281
1
  0
DICTIONARY
  5
16
330
A
100
AcDbDictionary
281
1
  0
LAYOUT
  5
1A
330
D
100
AcDbPlotSettings
  1

  4
A3
  6

 40
7.5
 41
20.0
 42
7.5
 43
20.0
 44
420.0
 45
297.0
 46
0.0
 47
0.0
 48
0.0
 49
0.0
140
0.0
141
0.0
142
1.0
143
1.0
 70
1024
 72
1
 73
0
 74
5
  7

 75
16
 76
0
 77
2
 78
300
147
1.0
148
0.0
149
0.0
100
AcDbLayout
  1
Model
 70
1
 71
0
 10
0.0
 20
0.0
 11
420.0
 21
297.0
 12
0.0
 22
0.0
 32
0.0
 14
1e+20
 24
1e+20
 34
1e+20
 15
-1e+20
 25
-1e+20
 35
-1e+20
146
0.0
 13
0.0
 23
0.0
 33
0.0
 16
1.0
 26
0.0
 36
0.0
 17
0.0
 27
1.0
 37
0.0
 76
1
330
17
  0
LAYOUT
  5
1E
330
D
100
AcDbPlotSettings
  1

  4
A3
  6

 40
7.5
 41
20.0
 42
7.5
 43
20.0
 44
420.0
 45
297.0
 46
0.0
 47
0.0
 48
0.0
 49
0.0
140
0.0
141
0.0
142
1.0
143
1.0
 70
0
 72
1
 73
0
 74
5
  7

 75
16
 76
0
 77
2
 78
300
147
1.0
148
0.0
149
0.0
100
AcDbLayout
  1
Layout1
 70
1
 71
1
 10
0.0
 20
0.0
 11
420.0
 21
297.0
 12
0.0
 22
0.0
 32
0.0
 14
1e+20
 24
1e+20
 34
1e+20
 15
-1e+20
 25
-1e+20
 35
-1e+20
146
0.0
 13
0.0
 23
0.0
 33
0.0
 16
1.0
 26
0.0
 36
0.0
 17
0.0
 27
1.0
 37
0.0
 76
1
330
1B
  0
MATERIAL
  5
1F
102
{ACAD_REACTORS
330
E
102
}
330
E
100
AcDbMaterial
  1
ByBlock
  2

 70
0
 40
1.0
 71
1
 41
1.0
 91
-1023410177
 42
1.0
 72
1
  3

 73
1
 74
1
 75
1
 44
0.5
 73
0
 45
1.0
 46
1.0
 77
1
  4

 78
1
 79
1
170
1
 48
1.0
171
1
  6

172
1
173
1
174
1
140
1.0
141
1.0
175
1
  7

176
1
177
1
178
1
143
1.0
179
1
  8

270
1
271
1
272
1
145
1.0
146
1.0
273
1
  9

274
1
275
1
276
1
 42
1.0
 72
1
  3

 73
1
 74
1
 75
1
 94
63
  0
MATERIAL
  5
20
102
{ACAD_REACTORS
330
E
102
}
330
E
100
AcDbMaterial
  1
ByLayer
  2

 70
0
 40
1.0
 71
1
 41
1.0
 91
-1023410177
 42
1.0
 72
1
  3

 73
1
 74
1
 75
1
 44
0.5
 73
0
 45
1.0
 46
1.0
 77
1
  4

 78
1
 79
1
170
1
 48
1.0
171
1
  6

172
1
173
1
174
1
140
1.0
141
1.0
175
1
  7

176
1
177
1
178
1
143
1.0
179
1
  8

270
1
271
1
272
1
145
1.0
146
1.0
273
1
  9

274
1
275
1
276
1
 42
1.0
 72
1
  3

 73
1
 74
1
 75
1
 94
63
  0
MATERIAL
  5
21
102
{ACAD_REACTORS
330
E
102
}
330
E
100
AcDbMaterial
  1
Global
  2

 70
0
 40
1.0
 71
1
 41
1.0
 91
-1023410177
 42
1.0
 72
1
  3

 73
1
 74
1
 75
1
 44
0.5
 73
0
 45
1.0
 46
1.0
 77
1
  4

 78
1
 79
1
170
1
 48
1.0
171
1
  6

172
1
173
1
174
1
140
1.0
141
1.0
175
1
  7

176
1
177
1
178
1
143
1.0
179
1
  8

270
1
271
1
272
1
145
1.0
146
1.0
273
1
  9

274
1
275
1
276
1
 42
1.0
 72
1
  3

 73
1
 74
1
 75
1
 94
63
  0
MLINESTYLE
  5
22
102
{ACAD_REACTORS
330
10
102
}
330
10
100
AcDbMlineStyle
  2
Standard
 70
0
  3

 62
256
 51
90.0
 52
90.0
 71
2
 49
0.5
 62
256
  6
BYLAYER
 49
-0.5
 62
256
  6
BYLAYER
  0
MLEADERSTYLE
  5
2C
102
{ACAD_REACTORS
330
F
102
}
330
F
100
AcDbMLeaderStyle
179
2
170
2
171
1
172
0
 90
2
 40
0.0
 41
0.0
173
1
 91
-1056964608
 92
-2
290
1
 42
2.0
291
1
 43
8.0
  3
Standard
 44
4.0
300

342
29
174
1
175
1
176
0
178
1
 93
-1056964608
 45
4.0
292
0
297
0
 46
4.0
 94
-1056964608
 47
1.0
 49
1.0
140
1.0
294
1
141
0.0
177
0
142
1.0
295
0
296
0
143
3.75
271
0
272
9
273
9
  0
DICTIONARY
  5
2D
330
A
100
AcDbDictionary
280
1
281
1
  3
CREATED_BY_EZDXF
350
2E
  3
WRITTEN_BY_EZDXF
350
80
  0
DICTIONARYVAR
  5
2E
330
2D
100
DictionaryVariables
280
0
  1
1.4.4 @ 2026-10-06T03:36:34.842667+00:00
  0
DICTIONARYVAR
  5
80
330
2D
100
DictionaryVariables
280
0
  1
1.4.4 @ 2026-10-06T03:36:34.848060+00:00
  0
ENDSEC
  0
EOF
