  0
SECTION
  2
HEADER
  9
$ACADVER
  1
AC1032
  9
$ACADMAINTVER
 90
4
  9
$DWGCODEPAGE
  3
ANSI_1252
  9
$LASTSAVEDBY
  1
ezdxf
  9
$REQUIREDVERSIONS
160
0
  9
$INSBASE
 10
0.0
 20
0.0
 30
0.0
  9
$EXTMIN
 10
1e+20
 20
1e+20
 30
1e+20
  9
$EXTMAX
 10
-1e+20
 20
-1e+20
 30
-1e+20
  9
$LIMMIN
 10
0.0
 20
0.0
  9
$LIMMAX
 10
420.0
 20
297.0
  9
$ORTHOMODE
 70
0
  9
$REGENMODE
 70
1
  9
$FILLMODE
 70
1
  9
$QTEXTMODE
 70
0
  9
$MIRRTEXT
 70
1
  9
$LTSCALE
 40
1.0
  9
$ATTMODE
 70
1
  9
$TEXTSIZE
 40
2.5
  9
$TRACEWID
 40
1.0
  9
$TEXTSTYLE
  7
Standard
  9
$CLAYER
  8
0
  9
$CELTYPE
  6
ByLayer
  9
$CECOLOR
 62
256
  9
$CELTSCALE
 40
1.0
  9
$DISPSILH
 70
0
  9
$DIMSCALE
 40
1.0
  9
$DIMASZ
 40
2.5
  9
$DIMEXO
 40
0.625
  9
$DIMDLI
 40
3.75
  9
$DIMRND
 40
0.0
  9
$DIMDLE
 40
0.0
  9
$DIMEXE
 40
1.25
  9
$DIMTP
 40
0.0
  9
$DIMTM
 40
0.0
  9
$DIMTXT
 40
2.5
  9
$DIMCEN
 40
2.5
  9
$DIMTSZ
 40
0.0
  9
$DIMTOL
 70
0
  9
$DIMLIM
 70
0
  9
$DIMTIH
 70
0
  9
$DIMTOH
 70
0
  9
$DIMSE1
 70
0
  9
$DIMSE2
 70
0
  9
$DIMTAD
 70
1
  9
$DIMZIN
 70
8
  9
$DIMBLK
  1

  9
$DIMASO
 70
1
  9
$DIMSHO
 70
1
  9
$DIMPOST
  1

  9
$DIMAPOST
  1

  9
$DIMALT
 70
0
  9
$DIMALTD
 70
3
  9
$DIMALTF
 40
0.03937007874
  9
$DIMLFAC
 40
1.0
  9
$DIMTOFL
 70
1
  9
$DIMTVP
 40
0.0
  9
$DIMTIX
 70
0
  9
$DIMSOXD
 70
0
  9
$DIMSAH
 70
0
  9
$DIMBLK1
  1

  9
$DIMBLK2
  1

  9
$DIMSTYLE
  2
ISO-25
  9
$DIMCLRD
 70
0
  9
$DIMCLRE
 70
0
  9
$DIMCLRT
 70
0
  9
$DIMTFAC
 40
1.0
  9
$DIMGAP
 40
0.625
  9
$DIMJUST
 70
0
  9
$DIMSD1
 70
0
  9
$DIMSD2
 70
0
  9
$DIMTOLJ
 70
0
  9
$DIMTZIN
 70
8
  9
$DIMALTZ
 70
0
  9
$DIMALTTZ
 70
0
  9
$DIMUPT
 70
0
  9
$DIMDEC
 70
2
  9
$DIMTDEC
 70
2
  9
$DIMALTU
 70
2
  9
$DIMALTTD
 70
3
  9
$DIMTXSTY
  7
Standard
  9
$DIMAUNIT
 70
0
  9
$DIMADEC
 70
0
  9
$DIMALTRND
 40
0.0
  9
$DIMAZIN
 70
0
  9
$DIMDSEP
 70
44
  9
$DIMATFIT
 70
3
  9
$DIMFRAC
 70
0
  9
$DIMLDRBLK
  1

  9
$DIMLUNIT
 70
2
  9
$DIMLWD
 70
-2
  9
$DIMLWE
 70
-2
  9
$DIMTMOVE
 70
0
  9
$DIMFXL
 40
1.0
  9
$DIMFXLON
 70
0
  9
$DIMJOGANG
 40
0.785398163397
  9
$DIMTFILL
 70
0
  9
$DIMTFILLCLR
 70
0
  9
$DIMARCSYM
 70
0
  9
$DIMLTYPE
  6

  9
$DIMLTEX1
  6

  9
$DIMLTEX2
  6

  9
$DIMTXTDIRECTION
 70
0
  9
$LUNITS
 70
2
  9
$LUPREC
 70
4
  9
$SKETCHINC
 40
1.0
  9
$FILLETRAD
 40
10.0
  9
$AUNITS
 70
0
  9
$AUPREC
 70
2
  9
$MENU
  1
.
  9
$ELEVATION
 40
0.0
  9
$PELEVATION
 40
0.0
  9
$THICKNESS
 40
0.0
  9
$LIMCHECK
 70
0
  9
$CHAMFERA
 40
0.0
  9
$CHAMFERB
 40
0.0
  9
$CHAMFERC
 40
0.0
  9
$CHAMFERD
 40
0.0
  9
$SKPOLY
 70
0
  9
$TDCREATE
 40
2461320.3587268516
  9
$TDUCREATE
 40
2458532.153996898
  9
$TDUPDATE
 40
2461320.3587268516
  9
$TDUUPDATE
 40
2458532.1544311
  9
$TDINDWG
 40
0.0
  9
$TDUSRTIMER
 40
0.0
  9
$USRTIMER
 70
1
  9
$ANGBASE
 50
0.0
  9
$ANGDIR
 70
0
  9
$PDMODE
 70
0
  9
$PDSIZE
 40
0.0
  9
$PLINEWID
 40
0.0
  9
$SPLFRAME
 70
0
  9
$SPLINETYPE
 70
6
  9
$SPLINESEGS
 70
8
  9
$HANDSEED
  5
73
  9
$SURFTAB1
 70
6
  9
$SURFTAB2
 70
6
  9
$SURFTYPE
 70
6
  9
$SURFU
 70
6
  9
$SURFV
 70
6
  9
$UCSBASE
  2

  9
$UCSNAME
  2

  9
$UCSORG
 10
0.0
 20
0.0
 30
0.0
  9
$UCSXDIR
 10
1.0
 20
0.0
 30
0.0
  9
$UCSYDIR
 10
0.0
 20
1.0
 30
0.0
  9
$UCSORTHOREF
  2

  9
$UCSORTHOVIEW
 70
0
  9
$UCSORGTOP
 10
0.0
 20
0.0
 30
0.0
  9
$UCSORGBOTTOM
 10
0.0
 20
0.0
 30
0.0
  9
$UCSORGLEFT
 10
0.0
 20
0.0
 30
0.0
  9
$UCSORGRIGHT
 10
0.0
 20
0.0
 30
0.0
  9
$UCSORGFRONT
 10
0.0
 20
0.0
 30
0.0
  9
$UCSORGBACK
 10
0.0
 20
0.0
 30
0.0
  9
$PUCSBASE
  2

  9
$PUCSNAME
  2

  9
$PUCSORG
 10
0.0
 20
0.0
 30
0.0
  9
$PUCSXDIR
 10
1.0
 20
0.0
 30
0.0
  9
$PUCSYDIR
 10
0.0
 20
1.0
 30
0.0
  9
$PUCSORTHOREF
  2

  9
$PUCSORTHOVIEW
 70
0
  9
$PUCSORGTOP
 10
0.0
 20
0.0
 30
0.0
  9
$PUCSORGBOTTOM
 10
0.0
 20
0.0
 30
0.0
  9
$PUCSORGLEFT
 10
0.0
 20
0.0
 30
0.0
  9
$PUCSORGRIGHT
 10
0.0
 20
0.0
 30
0.0
  9
$PUCSORGFRONT
 10
0.0
 20
0.0
 30
0.0
  9
$PUCSORGBACK
 10
0.0
 20
0.0
 30
0.0
  9
$USERI1
 70
0
  9
$USERI2
 70
0
  9
$USERI3
 70
0
  9
$USERI4
 70
0
  9
$USERI5
 70
0
  9
$USERR1
 40
0.0
  9
$USERR2
 40
0.0
  9
$USERR3
 40
0.0
  9
$USERR4
 40
0.0
  9
$USERR5
 40
0.0
  9
$WORLDVIEW
 70
1
  9
$SHADEDGE
 70
3
  9
$SHADEDIF
 70
70
  9
$TILEMODE
 70
1
  9
$MAXACTVP
 70
64
  9
$PINSBASE
 10
0.0
 20
0.0
 30
0.0
  9
$PLIMCHECK
 70
0
  9
$PEXTMIN
 10
1e+20
 20
1e+20
 30
1e+20
  9
$PEXTMAX
 10
-1e+20
 20
-1e+20
 30
-1e+20
  9
$PLIMMIN
 10
0.0
 20
0.0
  9
$PLIMMAX
 10
420.0
 20
297.0
  9
$UNITMODE
 70
0
  9
$VISRETAIN
 70
1
  9
$PLINEGEN
 70
0
  9
$PSLTSCALE
 70
1
  9
$TREEDEPTH
 70
3020
  9
$CMLSTYLE
  2
Standard
  9
$CMLJUST
 70
0
  9
$CMLSCALE
 40
20.0
  9
$PROXYGRAPHICS
 70
1
  9
$MEASUREMENT
 70
1
  9
$CELWEIGHT
370
-1
  9
$ENDCAPS
280
0
  9
$JOINSTYLE
280
0
  9
$LWDISPLAY
290
0
  9
$INSUNITS
 70
4
  9
$HYPERLINKBASE
  1

  9
$STYLESHEET
  1

  9
$XEDIT
290
1
  9
$CEPSNTYPE
380
0
  9
$PSTYLEMODE
290
1
  9
$FINGERPRINTGUID
  2
{16BB6131-E226-47DA-85E4-04B133E191B2}
  9
$VERSIONGUID
  2
{CAF5EA5F-856B-4E58-B5EB-688B674839D4}
  9
$EXTNAMES
290
1
  9
$PSVPSCALE
 40
0.0
  9
$OLESTARTUP
290
0
  9
$SORTENTS
280
127
  9
$INDEXCTL
280
0
  9
$HIDETEXT
280
1
  9
$XCLIPFRAME
280
1
  9
$HALOGAP
280
0
  9
$OBSCOLOR
 70
257
  9
$OBSLTYPE
280
0
  9
$INTERSECTIONDISPLAY
280
0
  9
$INTERSECTIONCOLOR
 70
257
  9
$DIMASSOC
280
2
  9
$PROJECTNAME
  1

  9
$CAMERADISPLAY
290
0
  9
$LENSLENGTH
 40
50.0
  9
$CAMERAHEIGHT
 40
0.0
  9
$STEPSPERSEC
 40
24.0
  9
$STEPSIZE
 40
100.0
  9
$3DDWFPREC
 40
2.0
  9
$PSOLWIDTH
 40
0.005
  9
$PSOLHEIGHT
 40
0.08
  9
$LOFTANG1
 40
1.570796326795
  9
$LOFTANG2
 40
1.570796326795
  9
$LOFTMAG1
 40
0.0
  9
$LOFTMAG2
 40
0.0
  9
$LOFTPARAM
 70
7
  9
$LOFTNORMALS
280
1
  9
$LATITUDE
 40
37.795
  9
$LONGITUDE
 40
-122.394
  9
$NORTHDIRECTION
 40
0.0
  9
$TIMEZONE
 70
-8000
  9
$LIGHTGLYPHDISPLAY
280
1
  9
$TILEMODELIGHTSYNCH
280
1
  9
$CMATERIAL
347
20
  9
$SOLIDHIST
280
0
  9
$SHOWHIST
280
1
  9
$DWFFRAME
280
2
  9
$DGNFRAME
280
2
  9
$REALWORLDSCALE
290
1
  9
$INTERFERECOLOR
 62
256
  9
$CSHADOW
280
0
  9
$SHADOWPLANELOCATION
 40
0.0
  0
ENDSEC
  0
SECTION
  2
CLASSES
  0
CLASS
  1
ACDBDICTIONARYWDFLT
  2
AcDbDictionaryWithDefault
  3
ObjectDBX Classes
 90
0
 91
0
280
0
281
0
  0
CLASS
  1
SUN
  2
AcDbSun
  3
SCENEOE
 90
1153
 91
0
280
0
281
0
  0
CLASS
  1
VISUALSTYLE
  2
AcDbVisualStyle
  3
ObjectDBX Classes
 90
4095
 91
0
280
0
281
0
  0
CLASS
  1
MATERIAL
  2
AcDbMaterial
  3
ObjectDBX Classes
 90
1153
 91
0
280
0
281
0
  0
CLASS
  1
SCALE
  2
AcDbScale
  3
ObjectDBX Classes
 90
1153
 91
0
280
0
281
0
  0
CLASS
  1
TABLESTYLE
  2
AcDbTableStyle
  3
ObjectDBX Classes
 90
4095
 91
0
280
0
281
0
  0
CLASS
  1
MLEADERSTYLE
  2
AcDbMLeaderStyle
  3
ACDB_MLEADERSTYLE_CLASS
 90
4095
 91
0
280
0
281
0
  0
CLASS
  1
DICTIONARYVAR
  2
AcDbDictionaryVar
  3
ObjectDBX Classes
 90
0
 91
0
280
0
281
0
  0
CLASS
  1
CELLSTYLEMAP
  2
AcDbCellStyleMap
  3
ObjectDBX Classes
 90
1152
 91
0
280
0
281
0
  0
CLASS
  1
MENTALRAYRENDERSETTINGS
  2
AcDbMentalRayRenderSettings
  3
SCENEOE
 90
1024
 91
0
280
0
281
0
  0
CLASS
  1
ACDBDETAILVIEWSTYLE
  2
AcDbDetailViewStyle
  3
ObjectDBX Classes
 90
1025
 91
0
280
0
281
0
  0
CLASS
  1
ACDBSECTIONVIEWSTYLE
  2
AcDbSectionViewStyle
  3
ObjectDBX Classes
 90
1025
 91
0
280
0
281
0
  0
CLASS
  1
RASTERVARIABLES
  2
AcDbRasterVariables
  3
ISM
 90
0
 91
0
280
0
281
0
  0
CLASS
  1
ACDBPLACEHOLDER
  2
AcDbPlaceHolder
  3
ObjectDBX Classes
 90
0
 91
0
280
0
281
0
  0
CLASS
  1
LAYOUT
  2
AcDbLayout
  3
ObjectDBX Classes
 90
0
 91
0
280
0
281
0
  0
ENDSEC
  0
SECTION
  2
TABLES
  0
TABLE
  2
VPORT
  5
8
330
0
100
AcDbSymbolTable
 70
1
  0
VPORT
  5
23
330
8
100
AcDbSymbolTableRecord
100
AcDbViewportTableRecord
  2
*Active
 70
0
 10
0.0
 20
0.0
 11
1.0
 21
1.0
 12
0.0
 22
0.0
 13
0.0
 23
0.0
 14
0.5
 24
0.5
 15
0.5
 25
0.5
 16
0.0
 26
0.0
 36
1.0
 17
0.0
 27
0.0
 37
0.0
 40
1000.0
 41
1.34
 42
50.0
 43
0.0
 44
0.0
 50
0.0
 51
0.0
 71
0
 72
1000
 73
1
 74
3
 75
0
 76
0
 77
0
 78
0
281
0
 65
0
146
0.0
  0
ENDTAB
  0
TABLE
  2
LTYPE
  5
2
330
0
100
AcDbSymbolTable
 70
3
  0
LTYPE
  5
24
330
2
100
AcDbSymbolTableRecord
100
AcDbLinetypeTableRecord
  2
ByBlock
 70
0
  3

 72
65
 73
0
 40
0.0
  0
LTYPE
  5
25
330
2
100
AcDbSymbolTableRecord
100
AcDbLinetypeTableRecord
  2
ByLayer
 70
0
  3

 72
65
 73
0
 40
0.0
  0
LTYPE
  5
26
330
2
100
AcDbSymbolTableRecord
100
AcDbLinetypeTableRecord
  2
Continuous
 70
0
  3

 72
65
 73
0
 40
0.0
  0
ENDTAB
  0
TABLE
  2
LAYER
  5
1
330
0
100
AcDbSymbolTable
 70
2
  0
LAYER
  5
27
330
1
100
AcDbSymbolTableRecord
100
AcDbLayerTableRecord
  2
0
 70
0
 62
7
  6
Continuous
370
-3
390
13
347
21
  0
LAYER
  5
28
330
1
100
AcDbSymbolTableRecord
100
AcDbLayerTableRecord
  2
Defpoints
 70
0
 62
7
  6
Continuous
290
0
370
-3
390
13
347
21
  0
ENDTAB
  0
TABLE
  2
STYLE
  5
5
330
0
100
AcDbSymbolTable
 70
1
  0
STYLE
  5
29
330
5
100
AcDbSymbolTableRecord
100
AcDbTextStyleTableRecord
  2
Standard
 70
0
 40
0.0
 41
1.0
 50
0.0
 71
0
 42
2.5
  3
txt
  4

  0
ENDTAB
  0
TABLE
  2
VIEW
  5
7
330
0
100
AcDbSymbolTable
 70
0
  0
ENDTAB
  0
TABLE
  2
UCS
  5
6
330
0
100
AcDbSymbolTable
 70
0
  0
ENDTAB
  0
TABLE
  2
APPID
  5
3
330
0
100
AcDbSymbolTable
 70
3
  0
APPID
  5
2A
330
3
100
AcDbSymbolTableRecord
100
AcDbRegAppTableRecord
  2
ACAD
 70
0
  0
APPID
  5
70
330
3
100
AcDbSymbolTableRecord
100
AcDbRegAppTableRecord
  2
HATCHBACKGROUNDCOLOR
 70
0
  0
APPID
  5
71
330
3
100
AcDbSymbolTableRecord
100
AcDbRegAppTableRecord
  2
EZDXF
 70
0
  0
ENDTAB
  0
TABLE
  2
DIMSTYLE
  5
4
330
0
100
AcDbSymbolTable
 70
1
100
AcDbDimStyleTable
  0
DIMSTYLE
105
2B
330
4
100
AcDbSymbolTableRecord
100
AcDbDimStyleTableRecord
  2
Standard
 70
0
 40
1.0
 41
2.5
 42
0.625
 43
3.75
 44
1.25
 45
0.0
 46
0.0
 47
0.0
 48
0.0
 49
2.5
140
2.5
141
2.5
142
0.0
143
0.03937007874
144
1.0
145
0.0
146
1.0
147
0.625
148
0.0
 69
0
 70
0
 71
0
 72
0
 73
0
 74
0
 75
0
 76
0
 77
1
 78
8
 79
3
170
0
171
3
172
1
173
0
174
0
175
0
176
0
177
0
178
0
179
2
271
2
272
2
273
2
274
3
275
0
276
0
277
2
278
44
279
0
280
0
281
0
282
0
283
0
284
8
285
0
286
0
288
0
289
3
290
0
371
-2
372
-2
  0
ENDTAB
  0
TABLE
  2
BLOCK_RECORD
  5
9
330
0
100
AcDbSymbolTable
 70
5
  0
BLOCK_RECORD
  5
17
330
9
100
AcDbSymbolTableRecord
100
AcDbBlockTableRecord
  2
*Model_Space
340
1A
 70
0
280
1
281
0
  0
BLOCK_RECORD
  5
1B
330
9
100
AcDbSymbolTableRecord
100
AcDbBlockTableRecord
  2
*Paper_Space
340
1E
 70
0
280
1
281
0
  0
BLOCK_RECORD
  5
35
330
9
100
AcDbSymbolTableRecord
100
AcDbBlockTableRecord
  2
B0
340
0
 70
0
280
1
281
0
  0
BLOCK_RECORD
  5
3D
330
9
100
AcDbSymbolTableRecord
100
AcDbBlockTableRecord
  2
B1
340
0
 70
0
280
1
281
0
  0
BLOCK_RECORD
  5
54
330
9
100
AcDbSymbolTableRecord
100
AcDbBlockTableRecord
  2
B2
340
0
 70
0
280
1
281
0
  0
ENDTAB
  0
ENDSEC
  0
SECTION
  2
BLOCKS
  0
BLOCK
  5
18
330
17
100
AcDbEntity
  8
0
100
AcDbBlockBegin
  2
*Model_Space
 70
0
 10
0.0
 20
0.0
 30
0.0
  3
*Model_Space
  1

  0
ENDBLK
  5
19
330
17
100
AcDbEntity
  8
0
100
AcDbBlockEnd
  0
BLOCK
  5
1C
330
1B
100
AcDbEntity
  8
0
100
AcDbBlockBegin
  2
*Paper_Space
 70
0
 10
0.0
 20
0.0
 30
0.0
  3
*Paper_Space
  1

  0
ENDBLK
  5
1D
330
1B
100
AcDbEntity
  8
0
100
AcDbBlockEnd
  0
BLOCK
  5
36
330
35
100
AcDbEntity
  8
0
100
AcDbBlockBegin
  2
B0
 70
0
 10
1.2915621687041599
 20
-4.353823714497432
 30
0.0
  3
B0
  1

  0
SPLINE
  5
38
330
35
100
AcDbEntity
  8
0
100
AcDbSpline
 70
0
 71
2
 72
9
 73
6
 74
0
 40
0.0
 40
0.0
 40
0.0
 40
1.0
 40
2.0
 40
3.0
 40
4.0
 40
4.0
 40
4.0
 10
10.185015998535533
 20
18.00786969574561
 30
0.0
 10
-10.344227206995903
 20
-16.740984821657857
 30
0.0
 10
-5.123112043221518
 20
-2.1543678076728945
 30
0.0
 10
21.52512679883101
 20
-12.012369444485632
 30
0.0
 10
16.237859343986415
 20
29.156764527542634
 30
0.0
 10
19.813027907230634
 20
-22.65230553817343
 30
0.0
  0
LWPOLYLINE
  5
39
330
35
100
AcDbEntity
  8
0
100
AcDbPolyline
 90
5
 70
0
 10
14.857084525723558
 20
4.930604849343631
 42
1.271426099641337
 10
-20.82641025714164
 20
5.048229121133986
 10
-0.8022608295128748
 20
-9.253145044065498
 10
-15.583054493985479
 20
-22.148518753452485
 42
-1.4749773401528339
 10
-14.478581240721171
 20
-12.047600600325133
 42
-0.1726934690812345
  0
ARC
  5
3A
330
35
100
AcDbEntity
  8
0
100
AcDbCircle
 10
-25.4339185292084
 20
-4.007455697336603
 30
0.0
 40
11.56029319393555
210
0.01
220
0.005
230
1.0
100
AcDbArc
 50
207.85035576949576
 51
-373.8485866062791
  0
SPLINE
  5
3B
330
35
100
AcDbEntity
  8
0
100
AcDbSpline
 70
0
 71
3
 72
10
 73
6
 74
0
 40
0.0
 40
0.0
 40
0.0
 40
0.0
 40
1.0
 40
2.0
 40
3.0
 40
3.0
 40
3.0
 40
3.0
 41
1.0726282665407452
 41
1.836068547012867
 41
0.8687780797425766
 41
1.1760689341384194
 41
0.7024856472473782
 41
1.2698435656707674
 10
-24.51303679878633
 20
-3.3444530187539954
 30
0.0
 10
-3.4949761196547016
 20
-23.61404208833632
 30
0.0
 10
-1.1953011497971886
 20
-27.96700877691576
 30
0.0
 10
27.926145928455057
 20
-27.55289655206797
 30
0.0
 10
-4.802872894770228
 20
28.02200616361918
 30
0.0
 10
6.637221768930019
 20
3.3058898779135646
 30
0.0
  0
MTEXT
  5
3C
330
35
100
AcDbEntity
  8
0
100
AcDbMText
 10
43.97822159772353
 20
-25.019786558072976
 30
0.0
 40
2.5
 71
1
  1
M6\P{\H2;x}
210
0.01
220
0.005
230
1.0
 50
33.38578473782952
  0
ENDBLK
  5
37
330
35
100
AcDbEntity
  8
0
100
AcDbBlockEnd
  0
BLOCK
  5
3E
330
3D
100
AcDbEntity
  8
0
100
AcDbBlockBegin
  2
B1
 70
0
 10
4.960413599910117
 20
1.3117977526977418
 30
0.0
  3
B1
  1

  0
MTEXT
  5
40
330
3D
100
AcDbEntity
  8
0
100
AcDbMText
 10
35.08862817893876
 20
-27.263268422372168
 30
0.0
 40
2.5
 71
1
  1
M5\P{\H2;x}
210
0.0
220
0.0
230
-1.0
 50
66.44404064197137
  0
CIRCLE
  5
41
330
3D
100
AcDbEntity
  8
0
100
AcDbCircle
 10
-44.94595593734913
 20
46.373221953508676
 30
0.0
 40
2.288065668635408
  0
POLYLINE
  5
42
330
3D
100
AcDbEntity
  8
0
100
AcDb2dPolyline
 66
1
 10
0.0
 20
0.0
 30
0.0
 70
0
  0
VERTEX
  5
44
330
3D
100
AcDbEntity
  8
0
100
AcDbVertex
100
AcDb2dVertex
 10
22.438124981642922
 20
-0.8866784717245793
 30
0.0
 42
0.2631967228566374
 70
0
  0
VERTEX
  5
45
330
3D
100
AcDbEntity
  8
0
100
AcDbVertex
100
AcDb2dVertex
 10
-21.1722466395037
 20
-5.3734491947172565
 30
0.0
 42
-0.15518430017486473
 70
0
  0
VERTEX
  5
46
330
3D
100
AcDbEntity
  8
0
100
AcDbVertex
100
AcDb2dVertex
 10
-29.424736872872604
 20
-4.345366046229195
 30
0.0
 70
0
  0
VERTEX
  5
47
330
3D
100
AcDbEntity
  8
0
100
AcDbVertex
100
AcDb2dVertex
 10
-20.360716533315237
 20
-12.0611517121406
 30
0.0
 42
0.11148157396472835
 70
0
  0
SEQEND
  5
43
330
42
100
AcDbEntity
  8
0
  0
LWPOLYLINE
  5
48
330
3D
100
AcDbEntity
  8
0
100
AcDbPolyline
 90
5
 70
0
 10
-4.140595524607338
 20
20.340053867977936
 10
11.320593334209597
 20
-1.591396337162866
 10
12.701140182051503
 20
-29.931923341995038
 10
-2.1941930742945246
 20
-27.88929463449177
 10
16.17275310359401
 20
-28.121850969589016
  0
LINE
  5
49
330
3D
100
AcDbEntity
  8
0
100
AcDbLine
 10
-2.4272367318888044
 20
36.872107856847975
 30
0.0
 11
9.038284396446336
 21
21.463377761960118
 31
0.7216394243256081
  0
CIRCLE
  5
4A
330
3D
100
AcDbEntity
  8
0
100
AcDbCircle
 10
-42.96965688068053
 20
4.306668264918024
 30
0.0
 40
12.948930621630163
  0
POLYLINE
  5
4B
330
3D
100
AcDbEntity
  8
0
100
AcDb3dPolyline
 66
1
 10
0.0
 20
0.0
 30
0.0
 70
8
  0
VERTEX
  5
4D
330
3D
100
AcDbEntity
  8
0
100
AcDbVertex
100
AcDb3dPolylineVertex
 10
-37.905048953091296
 20
-17.89304397162571
 30
0.0
 70
32
  0
VERTEX
  5
4E
330
3D
100
AcDbEntity
  8
0
100
AcDbVertex
100
AcDb3dPolylineVertex
 10
-34.905048953091296
 20
-16.89304397162571
 30
2.0
 70
32
  0
VERTEX
  5
4F
330
3D
100
AcDbEntity
  8
0
100
AcDbVertex
100
AcDb3dPolylineVertex
 10
-32.905048953091296
 20
-19.89304397162571
 30
-1.0
 70
32
  0
SEQEND
  5
4C
330
4B
100
AcDbEntity
  8
0
  0
SPLINE
  5
50
330
3D
100
AcDbEntity
  8
0
100
AcDbSpline
 70
0
 71
3
 72
0
 73
0
 74
19
 12
1.0
 22
-0.4783562240237238
 32
0.0
 13
1.0
 23
-0.8761387807951262
 33
0.0
 11
-15.879845947524288
 21
50.24158806063709
 31
0.0
 11
-13.879845947524288
 21
49.7398419203601
 31
0.0
 11
-11.879845947524288
 21
50.04922313447583
 31
0.0
 11
-9.879845947524288
 21
49.29037913687182
 31
0.0
 11
-7.879845947524288
 21
47.83455978109222
 31
0.0
 11
-5.879845947524288
 21
52.242236655484774
 31
0.0
 11
-3.879845947524288
 21
47.16508134946685
 31
0.0
 11
-1.879845947524288
 21
47.87202940441065
 31
0.0
 11
0.12015405247571209
 21
50.168455748224396
 31
0.0
 11
2.120154052475712
 21
51.15627682492499
 31
0.0
 11
4.120154052475712
 21
48.51751777714623
 31
0.0
 11
6.120154052475712
 21
52.24366907686886
 31
0.0
 11
8.120154052475712
 21
49.184791006814265
 31
0.0
 11
10.120154052475712
 21
49.7708091663468
 31
0.0
 11
12.120154052475712
 21
47.99217688166909
 31
0.0
 11
14.120154052475712
 21
51.409080635546175
 31
0.0
 11
16.120154052475712
 21
48.23332571924552
 31
0.0
 11
18.120154052475712
 21
47.55715483118654
 31
0.0
 11
20.120154052475712
 21
50.92219889809078
 31
0.0
  0
HATCH
  5
51
330
3D
100
AcDbEntity
  8
0
 62
7
100
AcDbHatch
 10
0.0
 20
0.0
 30
0.0
210
0.0
220
0.0
230
1.0
  2
SOLID
 70
1
 71
0
 91
1
 92
1
 93
3
 72
1
 10
-33.41630865321993
 20
47.57522094002934
 11
-31.41630865321993
 21
47.57522094002934
 72
2
 10
-31.41630865321993
 20
48.57522094002934
 40
1
 50
270.0
 51
450.0
 73
0
 72
3
 10
-33.41630865321993
 20
48.57522094002934
 11
0.0
 21
1.0
 40
0.6118216618199059
 50
90
 51
270
 73
1
 97
0
 75
0
 76
1
 98
0
  0
INSERT
  5
52
330
3D
100
AcDbEntity
  8
0
100
AcDbBlockReference
  2
B0
 10
5.850958643383043
 20
4.507139916183803
 30
0.0
 41
-1.0
 50
123.64254566658609
  0
ENDBLK
  5
3F
330
3D
100
AcDbEntity
  8
0
100
AcDbBlockEnd
  0
BLOCK
  5
55
330
54
100
AcDbEntity
  8
0
100
AcDbBlockBegin
  2
B2
 70
0
 10
-4.572589120592897
 20
2.0846520098138424
 30
0.0
  3
B2
  1

  0
ARC
  5
57
330
54
100
AcDbEntity
  8
0
100
AcDbCircle
 10
19.45823110420511
 20
11.486707243470029
 30
0.0
 40
3.502608768746292
210
0.01
220
0.005
230
1.0
100
AcDbArc
 50
-312.9521013298911
 51
-71.79804366894098
  0
POLYLINE
  5
58
330
54
100
AcDbEntity
  8
0
100
AcDb2dPolyline
 66
1
 10
0.0
 20
0.0
 30
0.0
 70
1
  0
VERTEX
  5
5A
330
54
100
AcDbEntity
  8
0
100
AcDbVertex
100
AcDb2dVertex
 10
-23.58800704909838
 20
5.5469222353225405
 30
0.0
 70
0
  0
VERTEX
  5
5B
330
54
100
AcDbEntity
  8
0
100
AcDbVertex
100
AcDb2dVertex
 10
6.341850079097199
 20
-11.386846778249225
 30
0.0
 42
-0.038749366760362
 70
0
  0
VERTEX
  5
5C
330
54
100
AcDbEntity
  8
0
100
AcDbVertex
100
AcDb2dVertex
 10
-18.080760501014137
 20
-17.90872028219189
 30
0.0
 42
0.17997381456972783
 70
0
  0
VERTEX
  5
5D
330
54
100
AcDbEntity
  8
0
100
AcDbVertex
100
AcDb2dVertex
 10
16.289137584752936
 20
7.101871081493144
 30
0.0
 42
-0.9294950517952056
 70
0
  0
VERTEX
  5
5E
330
54
100
AcDbEntity
  8
0
100
AcDbVertex
100
AcDb2dVertex
 10
7.766504593305626
 20
4.142921611566045
 30
0.0
 70
0
  0
SEQEND
  5
59
330
58
100
AcDbEntity
  8
0
  0
HATCH
  5
5F
330
54
100
AcDbEntity
  8
0
 62
7
100
AcDbHatch
 10
0.0
 20
0.0
 30
0.0
210
0.0
220
0.0
230
1.0
  2
SOLID
 70
1
 71
0
 91
1
 92
3
 72
0
 73
1
 93
3
 10
-12.016133431963205
 20
-41.22881846892129
 10
-10.516133431963205
 20
-41.22881846892129
 10
-10.516133431963205
 20
-40.22881846892129
 97
0
 75
0
 76
1
 98
0
  0
HATCH
  5
60
330
54
100
AcDbEntity
  8
0
 62
7
100
AcDbHatch
 10
0.0
 20
0.0
 30
0.0
210
0.0
220
0.0
230
-1.0
  2
SOLID
 70
1
 71
0
 91
1
 92
3
 72
1
 73
1
 93
3
 10
-35.97417671070541
 20
-26.421281544025234
 42
0.4
 10
-34.47417671070541
 20
-26.421281544025234
 42
0.0
 10
-34.47417671070541
 20
-25.421281544025234
 42
0.0
 97
0
 75
0
 76
1
 98
0
  0
SOLID
  5
61
330
54
100
AcDbEntity
  8
0
100
AcDbTrace
 10
-3.1364871359694106
 20
-37.129199856856985
 30
0.0
 11
-2.1364871359694106
 21
-37.129199856856985
 31
0.0
 12
-3.1364871359694106
 22
-36.42919985685698
 32
0.0
 13
-1.9364871359694107
 23
-36.129199856856985
 33
0.0
210
0.0
220
0.0
230
-1.0
  0
MTEXT
  5
62
330
54
100
AcDbEntity
  8
0
100
AcDbMText
 10
17.49462020631786
 20
15.381854996608538
 30
0.0
 40
2.5
 71
1
  1
M7\P{\H2;x}
 50
82.39575539629541
  0
LEADER
  5
63
330
54
100
AcDbEntity
  8
0
100
AcDbLeader
  3
Standard
 73
3
 76
3
 10
-34.018419174811484
 20
-43.62953334760562
 30
0.0
 10
-29.018419174811484
 20
-39.62953334760562
 30
0.0
 10
-25.018419174811484
 20
-39.62953334760562
 30
0.0
  0
SOLID
  5
64
330
54
100
AcDbEntity
  8
0
100
AcDbTrace
 10
-13.439676413190618
 20
15.698606239484832
 30
0.0
 11
-12.439676413190618
 21
15.698606239484832
 31
0.0
 12
-13.439676413190618
 22
16.39860623948483
 32
0.0
 13
-12.239676413190619
 23
16.698606239484832
 33
0.0
  0
LWPOLYLINE
  5
65
330
54
100
AcDbEntity
  8
0
100
AcDbPolyline
 90
5
 70
0
 10
27.128593414673716
 20
-8.31946526259939
 42
1.5842016707341524
 10
29.62219983959629
 20
-1.6516020993539584
 10
-5.571122089308009
 20
-29.359159790747544
 10
6.823224918908366
 20
-24.32856139315333
 10
-23.089794680396835
 20
8.39218488434863
 42
-1.5480844146972066
  0
INSERT
  5
66
330
54
100
AcDbEntity
  8
0
100
AcDbBlockReference
  2
B1
 10
6.669786974151014
 20
-4.736736553983556
 30
0.0
 50
55.31861129114115
  0
ENDBLK
  5
56
330
54
100
AcDbEntity
  8
0
100
AcDbBlockEnd
  0
ENDSEC
  0
SECTION
  2
ENTITIES
  0
LINE
  5
2F
330
17
100
AcDbEntity
  8
0
100
AcDbLine
 10
42.408813039063006
 20
-4.956286986300462
 30
0.0
 11
-2.1476851709201696
 21
-4.265615143542654
 31
2.1546790691683153
  0
LEADER
  5
30
330
17
100
AcDbEntity
  8
0
100
AcDbLeader
  3
Standard
 73
3
 76
3
 10
48.8707660289309
 20
-44.50909926369749
 30
0.0
 10
53.8707660289309
 20
-40.50909926369749
 30
0.0
 10
57.8707660289309
 20
-40.50909926369749
 30
0.0
  0
ELLIPSE
  5
31
330
17
100
AcDbEntity
  8
0
100
AcDbEllipse
 10
-44.70723832942946
 20
45.668031118581425
 30
0.0
 11
-9.912705036032396
 21
-8.926131079876601
 31
0.0
 40
0.594419413927866
 41
6.933223828182003
 42
0.12531002697617666
  0
ARC
  5
32
330
17
100
AcDbEntity
  8
0
100
AcDbCircle
 10
-39.57402120828526
 20
17.278197635336
 30
0.0
 40
8.867747649806335
100
AcDbArc
 50
0.27610960793953154
 51
331.22356708083964
  0
SPLINE
  5
33
330
17
100
AcDbEntity
  8
0
100
AcDbSpline
 70
0
 71
3
 72
10
 73
6
 74
0
 40
0.0
 40
0.0
 40
0.0
 40
0.0
 40
1.0
 40
2.0
 40
3.0
 40
3.0
 40
3.0
 40
3.0
 10
-20.74114970187146
 20
15.8751677342456
 30
0.0
 10
9.833991754238504
 20
-18.553221261476303
 30
0.0
 10
-26.778940407861704
 20
-20.970285900047678
 30
0.0
 10
-10.817988264354312
 20
-23.44518733940159
 30
0.0
 10
4.4351173946171585
 20
29.44139513043079
 30
0.0
 10
7.029956132798773
 20
10.666552838586178
 30
0.0
  0
SOLID
  5
34
330
17
100
AcDbEntity
  8
0
100
AcDbTrace
 10
13.089976528424806
 20
38.73516069481029
 30
0.0
 11
14.089976528424806
 21
38.73516069481029
 31
0.0
 12
13.089976528424806
 22
39.43516069481029
 32
0.0
 13
14.289976528424805
 23
39.73516069481029
 33
0.0
  0
INSERT
  5
68
330
17
100
AcDbEntity
  8
0
100
AcDbBlockReference
  2
B2
 10
74.4730772186904
 20
-30.96814363687116
 30
0.0
 41
-1.0
 42
0.5
 50
85.07992681966411
  0
INSERT
  5
6A
330
17
100
AcDbEntity
  8
0
100
AcDbBlockReference
  2
B1
 10
-22.16941032768549
 20
-26.89889540961211
 30
0.0
 41
2.0
 42
-2.0
 50
19.409298500083267
  0
INSERT
  5
6C
330
17
100
AcDbEntity
  8
0
100
AcDbBlockReference
  2
B1
 10
16.064627604545464
 20
-51.23131231095403
 30
0.0
 41
2.0
 42
2.0
 50
1.236447302712973
  0
INSERT
  5
6E
330
17
100
AcDbEntity
  8
0
100
AcDbBlockReference
  2
B2
 10
-10.084092736911686
 20
-70.93331241566568
 30
0.0
 41
-1.0
 42
0.5
 50
74.26386102255375
  0
ENDSEC
  0
SECTION
  2
OBJECTS
  0
DICTIONARY
  5
A
330
0
100
AcDbDictionary
281
1
  3
ACAD_COLOR
350
B
  3
ACAD_GROUP
350
C
  3
ACAD_LAYOUT
350
D
  3
ACAD_MATERIAL
350
E
  3
ACAD_MLEADERSTYLE
350
F
  3
ACAD_MLINESTYLE
350
10
  3
ACAD_PLOTSETTINGS
350
11
  3
ACAD_PLOTSTYLENAME
350
12
  3
ACAD_SCALELIST
350
14
  3
ACAD_TABLESTYLE
350
15
  3
ACAD_VISUALSTYLE
350
16
  3
EZDXF_META
350
2D
  0
DICTIONARY
  5
B
330
A
100
AcDbDictionary
281
1
  0
DICTIONARY
  5
C
330
A
100
AcDbDictionary
281
1
  0
DICTIONARY
  5
D
330
A
100
AcDbDictionary
281
1
  3
Model
350
1A
  3
Layout1
350
1E
  0
DICTIONARY
  5
E
330
A
100
AcDbDictionary
281
1
  3
ByBlock
350
1F
  3
ByLayer
350
20
  3
Global
350
21
  0
DICTIONARY
  5
F
330
A
100
AcDbDictionary
281
1
  3
Standard
350
2C
  0
DICTIONARY
  5
10
330
A
100
AcDbDictionary
281
1
  3
Standard
350
22
  0
DICTIONARY
  5
11
330
A
100
AcDbDictionary
281
1
  0
ACDBDICTIONARYWDFLT
  5
12
330
A
100
AcDbDictionary
281
1
  3
Normal
350
13
100
AcDbDictionaryWithDefault
340
13
  0
ACDBPLACEHOLDER
  5
13
330
12
  0
DICTIONARY
  5
14
330
A
100
AcDbDictionary
281
1
  0
DICTIONARY
  5
15
330
A
100
AcDbDictionary
281
1
  0
DICTIONARY
  5
16
330
A
100
AcDbDictionary
281
1
  0
LAYOUT
  5
1A
330
D
100
AcDbPlotSettings
  1

  4
A3
  6

 40
7.5
 41
20.0
 42
7.5
 43
20.0
 44
420.0
 45
297.0
 46
0.0
 47
0.0
 48
0.0
 49
0.0
140
0.0
141
0.0
142
1.0
143
1.0
 70
1024
 72
1
 73
0
 74
5
  7

 75
16
 76
0
 77
2
 78
300
147
1.0
148
0.0
149
0.0
100
AcDbLayout
  1
Model
 70
1
 71
0
 10
0.0
 20
0.0
 11
420.0
 21
297.0
 12
0.0
 22
0.0
 32
0.0
 14
1e+20
 24
1e+20
 34
1e+20
 15
-1e+20
 25
-1e+20
 35
-1e+20
146
0.0
 13
0.0
 23
0.0
 33
0.0
 16
1.0
 26
0.0
 36
0.0
 17
0.0
 27
1.0
 37
0.0
 76
1
330
17
  0
LAYOUT
  5
1E
330
D
100
AcDbPlotSettings
  1

  4
A3
  6

 40
7.5
 41
20.0
 42
7.5
 43
20.0
 44
420.0
 45
297.0
 46
0.0
 47
0.0
 48
0.0
 49
0.0
140
0.0
141
0.0
142
1.0
143
1.0
 70
0
 72
1
 73
0
 74
5
  7

 75
16
 76
0
 77
2
 78
300
147
1.0
148
0.0
149
0.0
100
AcDbLayout
  1
Layout1
 70
1
 71
1
 10
0.0
 20
0.0
 11
420.0
 21
297.0
 12
0.0
 22
0.0
 32
0.0
 14
1e+20
 24
1e+20
 34
1e+20
 15
-1e+20
 25
-1e+20
 35
-1e+20
146
0.0
 13
0.0
 23
0.0
 33
0.0
 16
1.0
 26
0.0
 36
0.0
 17
0.0
 27
1.0
 37
0.0
 76
1
330
1B
  0
MATERIAL
  5
1F
102
{ACAD_REACTORS
330
E
102
}
330
E
100
AcDbMaterial
  1
ByBlock
  2

 70
0
 40
1.0
 71
1
 41
1.0
 91
-1023410177
 42
1.0
 72
1
  3

 73
1
 74
1
 75
1
 44
0.5
 73
0
 45
1.0
 46
1.0
 77
1
  4

 78
1
 79
1
170
1
 48
1.0
171
1
  6

172
1
173
1
174
1
140
1.0
141
1.0
175
1
  7

176
1
177
1
178
1
143
1.0
179
1
  8

270
1
271
1
272
1
145
1.0
146
1.0
273
1
  9

274
1
275
1
276
1
 42
1.0
 72
1
  3

 73
1
 74
1
 75
1
 94
63
  0
MATERIAL
  5
20
102
{ACAD_REACTORS
330
E
102
}
330
E
100
AcDbMaterial
  1
ByLayer
  2

 70
0
 40
1.0
 71
1
 41
1.0
 91
-1023410177
 42
1.0
 72
1
  3

 73
1
 74
1
 75
1
 44
0.5
 73
0
 45
1.0
 46
1.0
 77
1
  4

 78
1
 79
1
170
1
 48
1.0
171
1
  6

172
1
173
1
174
1
140
1.0
141
1.0
175
1
  7

176
1
177
1
178
1
143
1.0
179
1
  8

270
1
271
1
272
1
145
1.0
146
1.0
273
1
  9

274
1
275
1
276
1
 42
1.0
 72
1
  3

 73
1
 74
1
 75
1
 94
63
  0
MATERIAL
  5
21
102
{ACAD_REACTORS
330
E
102
}
330
E
100
AcDbMaterial
  1
Global
  2

 70
0
 40
1.0
 71
1
 41
1.0
 91
-1023410177
 42
1.0
 72
1
  3

 73
1
 74
1
 75
1
 44
0.5
 73
0
 45
1.0
 46
1.0
 77
1
  4

 78
1
 79
1
170
1
 48
1.0
171
1
  6

172
1
173
1
174
1
140
1.0
141
1.0
175
1
  7

176
1
177
1
178
1
143
1.0
179
1
  8

270
1
271
1
272
1
145
1.0
146
1.0
273
1
  9

274
1
275
1
276
1
 42
1.0
 72
1
  3

 73
1
 74
1
 75
1
 94
63
  0
MLINESTYLE
  5
22
102
{ACAD_REACTORS
330
10
102
}
330
10
100
AcDbMlineStyle
  2
Standard
 70
0
  3

 62
256
 51
90.0
 52
90.0
 71
2
 49
0.5
 62
256
  6
BYLAYER
 49
-0.5
 62
256
  6
BYLAYER
  0
MLEADERSTYLE
  5
2C
102
{ACAD_REACTORS
330
F
102
}
330
F
100
AcDbMLeaderStyle
179
2
170
2
171
1
172
0
 90
2
 40
0.0
 41
0.0
173
1
 91
-1056964608
 92
-2
290
1
 42
2.0
291
1
 43
8.0
  3
Standard
 44
4.0
300

342
29
174
1
175
1
176
0
178
1
 93
-1056964608
 45
4.0
292
0
297
0
 46
4.0
 94
-1056964608
 47
1.0
 49
1.0
140
1.0
294
1
141
0.0
177
0
142
1.0
295
0
296
0
143
3.75
271
0
272
9
273
9
  0
DICTIONARY
  5
2D
330
A
100
AcDbDictionary
280
1
281
1
  3
CREATED_BY_EZDXF
350
2E
  3
WRITTEN_BY_EZDXF
350
72
  0
DICTIONARYVAR
  5
2E
330
2D
100
DictionaryVariables
280
0
  1
1.4.4 @ 2026-10-06T03:36:34.684614+00:00
  0
DICTIONARYVAR
  5
72
330
2D
100
DictionaryVariables
280
0
  1
1.4.4 @ 2026-10-06T03:36:34.692123+00:00
  0
ENDSEC
  0
EOF
