  0
SECTION
  2
HEADER
  9
$ACADVER
  1
AC1032
  9
$ACADMAINTVER
 90
4
  9
$DWGCODEPAGE
  3
ANSI_1252
  9
$LASTSAVEDBY
  1
ezdxf
  9
$REQUIREDVERSIONS
160
0
  9
$INSBASE
 10
0.0
 20
0.0
 30
0.0
  9
$EXTMIN
 10
1e+20
 20
1e+20
 30
1e+20
  9
$EXTMAX
 10
-1e+20
 20
-1e+20
 30
-1e+20
  9
$LIMMIN
 10
0.0
 20
0.0
  9
$LIMMAX
 10
420.0
 20
297.0
  9
$ORTHOMODE
 70
0
  9
$REGENMODE
 70
1
  9
$FILLMODE
 70
1
  9
$QTEXTMODE
 70
0
  9
$MIRRTEXT
 70
1
  9
$LTSCALE
 40
1.0
  9
$ATTMODE
 70
1
  9
$TEXTSIZE
 40
2.5
  9
$TRACEWID
 40
1.0
  9
$TEXTSTYLE
  7
Standard
  9
$CLAYER
  8
0
  9
$CELTYPE
  6
ByLayer
  9
$CECOLOR
 62
256
  9
$CELTSCALE
 40
1.0
  9
$DISPSILH
 70
0
  9
$DIMSCALE
 40
1.0
  9
$DIMASZ
 40
2.5
  9
$DIMEXO
 40
0.625
  9
$DIMDLI
 40
3.75
  9
$DIMRND
 40
0.0
  9
$DIMDLE
 40
0.0
  9
$DIMEXE
 40
1.25
  9
$DIMTP
 40
0.0
  9
$DIMTM
 40
0.0
  9
$DIMTXT
 40
2.5
  9
$DIMCEN
 40
2.5
  9
$DIMTSZ
 40
0.0
  9
$DIMTOL
 70
0
  9
$DIMLIM
 70
0
  9
$DIMTIH
 70
0
  9
$DIMTOH
 70
0
  9
$DIMSE1
 70
0
  9
$DIMSE2
 70
0
  9
$DIMTAD
 70
1
  9
$DIMZIN
 70
8
  9
$DIMBLK
  1

  9
$DIMASO
 70
1
  9
$DIMSHO
 70
1
  9
$DIMPOST
  1

  9
$DIMAPOST
  1

  9
$DIMALT
 70
0
  9
$DIMALTD
 70
3
  9
$DIMALTF
 40
0.03937007874
  9
$DIMLFAC
 40
1.0
  9
$DIMTOFL
 70
1
  9
$DIMTVP
 40
0.0
  9
$DIMTIX
 70
0
  9
$DIMSOXD
 70
0
  9
$DIMSAH
 70
0
  9
$DIMBLK1
  1

  9
$DIMBLK2
  1

  9
$DIMSTYLE
  2
ISO-25
  9
$DIMCLRD
 70
0
  9
$DIMCLRE
 70
0
  9
$DIMCLRT
 70
0
  9
$DIMTFAC
 40
1.0
  9
$DIMGAP
 40
0.625
  9
$DIMJUST
 70
0
  9
$DIMSD1
 70
0
  9
$DIMSD2
 70
0
  9
$DIMTOLJ
 70
0
  9
$DIMTZIN
 70
8
  9
$DIMALTZ
 70
0
  9
$DIMALTTZ
 70
0
  9
$DIMUPT
 70
0
  9
$DIMDEC
 70
2
  9
$DIMTDEC
 70
2
  9
$DIMALTU
 70
2
  9
$DIMALTTD
 70
3
  9
$DIMTXSTY
  7
Standard
  9
$DIMAUNIT
 70
0
  9
$DIMADEC
 70
0
  9
$DIMALTRND
 40
0.0
  9
$DIMAZIN
 70
0
  9
$DIMDSEP
 70
44
  9
$DIMATFIT
 70
3
  9
$DIMFRAC
 70
0
  9
$DIMLDRBLK
  1

  9
$DIMLUNIT
 70
2
  9
$DIMLWD
 70
-2
  9
$DIMLWE
 70
-2
  9
$DIMTMOVE
 70
0
  9
$DIMFXL
 40
1.0
  9
$DIMFXLON
 70
0
  9
$DIMJOGANG
 40
0.785398163397
  9
$DIMTFILL
 70
0
  9
$DIMTFILLCLR
 70
0
  9
$DIMARCSYM
 70
0
  9
$DIMLTYPE
  6

  9
$DIMLTEX1
  6

  9
$DIMLTEX2
  6

  9
$DIMTXTDIRECTION
 70
0
  9
$LUNITS
 70
2
  9
$LUPREC
 70
4
  9
$SKETCHINC
 40
1.0
  9
$FILLETRAD
 40
10.0
  9
$AUNITS
 70
0
  9
$AUPREC
 70
2
  9
$MENU
  1
.
  9
$ELEVATION
 40
0.0
  9
$PELEVATION
 40
0.0
  9
$THICKNESS
 40
0.0
  9
$LIMCHECK
 70
0
  9
$CHAMFERA
 40
0.0
  9
$CHAMFERB
 40
0.0
  9
$CHAMFERC
 40
0.0
  9
$CHAMFERD
 40
0.0
  9
$SKPOLY
 70
0
  9
$TDCREATE
 40
2461320.4679050925
  9
$TDUCREATE
 40
2458532.153996898
  9
$TDUPDATE
 40
2461320.4679050925
  9
$TDUUPDATE
 40
2458532.1544311
  9
$TDINDWG
 40
0.0
  9
$TDUSRTIMER
 40
0.0
  9
$USRTIMER
 70
1
  9
$ANGBASE
 50
0.0
  9
$ANGDIR
 70
0
  9
$PDMODE
 70
0
  9
$PDSIZE
 40
0.0
  9
$PLINEWID
 40
0.0
  9
$SPLFRAME
 70
0
  9
$SPLINETYPE
 70
6
  9
$SPLINESEGS
 70
8
  9
$HANDSEED
  5
86
  9
$SURFTAB1
 70
6
  9
$SURFTAB2
 70
6
  9
$SURFTYPE
 70
6
  9
$SURFU
 70
6
  9
$SURFV
 70
6
  9
$UCSBASE
  2

  9
$UCSNAME
  2

  9
$UCSORG
 10
0.0
 20
0.0
 30
0.0
  9
$UCSXDIR
 10
1.0
 20
0.0
 30
0.0
  9
$UCSYDIR
 10
0.0
 20
1.0
 30
0.0
  9
$UCSORTHOREF
  2

  9
$UCSORTHOVIEW
 70
0
  9
$UCSORGTOP
 10
0.0
 20
0.0
 30
0.0
  9
$UCSORGBOTTOM
 10
0.0
 20
0.0
 30
0.0
  9
$UCSORGLEFT
 10
0.0
 20
0.0
 30
0.0
  9
$UCSORGRIGHT
 10
0.0
 20
0.0
 30
0.0
  9
$UCSORGFRONT
 10
0.0
 20
0.0
 30
0.0
  9
$UCSORGBACK
 10
0.0
 20
0.0
 30
0.0
  9
$PUCSBASE
  2

  9
$PUCSNAME
  2

  9
$PUCSORG
 10
0.0
 20
0.0
 30
0.0
  9
$PUCSXDIR
 10
1.0
 20
0.0
 30
0.0
  9
$PUCSYDIR
 10
0.0
 20
1.0
 30
0.0
  9
$PUCSORTHOREF
  2

  9
$PUCSORTHOVIEW
 70
0
  9
$PUCSORGTOP
 10
0.0
 20
0.0
 30
0.0
  9
$PUCSORGBOTTOM
 10
0.0
 20
0.0
 30
0.0
  9
$PUCSORGLEFT
 10
0.0
 20
0.0
 30
0.0
  9
$PUCSORGRIGHT
 10
0.0
 20
0.0
 30
0.0
  9
$PUCSORGFRONT
 10
0.0
 20
0.0
 30
0.0
  9
$PUCSORGBACK
 10
0.0
 20
0.0
 30
0.0
  9
$USERI1
 70
0
  9
$USERI2
 70
0
  9
$USERI3
 70
0
  9
$USERI4
 70
0
  9
$USERI5
 70
0
  9
$USERR1
 40
0.0
  9
$USERR2
 40
0.0
  9
$USERR3
 40
0.0
  9
$USERR4
 40
0.0
  9
$USERR5
 40
0.0
  9
$WORLDVIEW
 70
1
  9
$SHADEDGE
 70
3
  9
$SHADEDIF
 70
70
  9
$TILEMODE
 70
1
  9
$MAXACTVP
 70
64
  9
$PINSBASE
 10
0.0
 20
0.0
 30
0.0
  9
$PLIMCHECK
 70
0
  9
$PEXTMIN
 10
1e+20
 20
1e+20
 30
1e+20
  9
$PEXTMAX
 10
-1e+20
 20
-1e+20
 30
-1e+20
  9
$PLIMMIN
 10
0.0
 20
0.0
  9
$PLIMMAX
 10
420.0
 20
297.0
  9
$UNITMODE
 70
0
  9
$VISRETAIN
 70
1
  9
$PLINEGEN
 70
0
  9
$PSLTSCALE
 70
1
  9
$TREEDEPTH
 70
3020
  9
$CMLSTYLE
  2
Standard
  9
$CMLJUST
 70
0
  9
$CMLSCALE
 40
20.0
  9
$PROXYGRAPHICS
 70
1
  9
$MEASUREMENT
 70
1
  9
$CELWEIGHT
370
-1
  9
$ENDCAPS
280
0
  9
$JOINSTYLE
280
0
  9
$LWDISPLAY
290
0
  9
$INSUNITS
 70
4
  9
$HYPERLINKBASE
  1

  9
$STYLESHEET
  1

  9
$XEDIT
290
1
  9
$CEPSNTYPE
380
0
  9
$PSTYLEMODE
290
1
  9
$FINGERPRINTGUID
  2
{3277138E-8A01-450A-AE30-DE278DD4102A}
  9
$VERSIONGUID
  2
{7AD4D1E4-D870-4D0C-A2CA-A26E926E2065}
  9
$EXTNAMES
290
1
  9
$PSVPSCALE
 40
0.0
  9
$OLESTARTUP
290
0
  9
$SORTENTS
280
127
  9
$INDEXCTL
280
0
  9
$HIDETEXT
280
1
  9
$XCLIPFRAME
280
1
  9
$HALOGAP
280
0
  9
$OBSCOLOR
 70
257
  9
$OBSLTYPE
280
0
  9
$INTERSECTIONDISPLAY
280
0
  9
$INTERSECTIONCOLOR
 70
257
  9
$DIMASSOC
280
2
  9
$PROJECTNAME
  1

  9
$CAMERADISPLAY
290
0
  9
$LENSLENGTH
 40
50.0
  9
$CAMERAHEIGHT
 40
0.0
  9
$STEPSPERSEC
 40
24.0
  9
$STEPSIZE
 40
100.0
  9
$3DDWFPREC
 40
2.0
  9
$PSOLWIDTH
 40
0.005
  9
$PSOLHEIGHT
 40
0.08
  9
$LOFTANG1
 40
1.570796326795
  9
$LOFTANG2
 40
1.570796326795
  9
$LOFTMAG1
 40
0.0
  9
$LOFTMAG2
 40
0.0
  9
$LOFTPARAM
 70
7
  9
$LOFTNORMALS
280
1
  9
$LATITUDE
 40
37.795
  9
$LONGITUDE
 40
-122.394
  9
$NORTHDIRECTION
 40
0.0
  9
$TIMEZONE
 70
-8000
  9
$LIGHTGLYPHDISPLAY
280
1
  9
$TILEMODELIGHTSYNCH
280
1
  9
$CMATERIAL
347
20
  9
$SOLIDHIST
280
0
  9
$SHOWHIST
280
1
  9
$DWFFRAME
280
2
  9
$DGNFRAME
280
2
  9
$REALWORLDSCALE
290
1
  9
$INTERFERECOLOR
 62
256
  9
$CSHADOW
280
0
  9
$SHADOWPLANELOCATION
 40
0.0
  0
ENDSEC
  0
SECTION
  2
CLASSES
  0
CLASS
  1
ACDBDICTIONARYWDFLT
  2
AcDbDictionaryWithDefault
  3
ObjectDBX Classes
 90
0
 91
0
280
0
281
0
  0
CLASS
  1
SUN
  2
AcDbSun
  3
SCENEOE
 90
1153
 91
0
280
0
281
0
  0
CLASS
  1
VISUALSTYLE
  2
AcDbVisualStyle
  3
ObjectDBX Classes
 90
4095
 91
0
280
0
281
0
  0
CLASS
  1
MATERIAL
  2
AcDbMaterial
  3
ObjectDBX Classes
 90
1153
 91
0
280
0
281
0
  0
CLASS
  1
SCALE
  2
AcDbScale
  3
ObjectDBX Classes
 90
1153
 91
0
280
0
281
0
  0
CLASS
  1
TABLESTYLE
  2
AcDbTableStyle
  3
ObjectDBX Classes
 90
4095
 91
0
280
0
281
0
  0
CLASS
  1
MLEADERSTYLE
  2
AcDbMLeaderStyle
  3
ACDB_MLEADERSTYLE_CLASS
 90
4095
 91
0
280
0
281
0
  0
CLASS
  1
DICTIONARYVAR
  2
AcDbDictionaryVar
  3
ObjectDBX Classes
 90
0
 91
0
280
0
281
0
  0
CLASS
  1
CELLSTYLEMAP
  2
AcDbCellStyleMap
  3
ObjectDBX Classes
 90
1152
 91
0
280
0
281
0
  0
CLASS
  1
MENTALRAYRENDERSETTINGS
  2
AcDbMentalRayRenderSettings
  3
SCENEOE
 90
1024
 91
0
280
0
281
0
  0
CLASS
  1
ACDBDETAILVIEWSTYLE
  2
AcDbDetailViewStyle
  3
ObjectDBX Classes
 90
1025
 91
0
280
0
281
0
  0
CLASS
  1
ACDBSECTIONVIEWSTYLE
  2
AcDbSectionViewStyle
  3
ObjectDBX Classes
 90
1025
 91
0
280
0
281
0
  0
CLASS
  1
RASTERVARIABLES
  2
AcDbRasterVariables
  3
ISM
 90
0
 91
0
280
0
281
0
  0
CLASS
  1
ACDBPLACEHOLDER
  2
AcDbPlaceHolder
  3
ObjectDBX Classes
 90
0
 91
0
280
0
281
0
  0
CLASS
  1
LAYOUT
  2
AcDbLayout
  3
ObjectDBX Classes
 90
0
 91
0
280
0
281
0
  0
ENDSEC
  0
SECTION
  2
TABLES
  0
TABLE
  2
VPORT
  5
8
330
0
100
AcDbSymbolTable
 70
1
  0
VPORT
  5
23
330
8
100
AcDbSymbolTableRecord
100
AcDbViewportTableRecord
  2
*Active
 70
0
 10
0.0
 20
0.0
 11
1.0
 21
1.0
 12
0.0
 22
0.0
 13
0.0
 23
0.0
 14
0.5
 24
0.5
 15
0.5
 25
0.5
 16
0.0
 26
0.0
 36
1.0
 17
0.0
 27
0.0
 37
0.0
 40
1000.0
 41
1.34
 42
50.0
 43
0.0
 44
0.0
 50
0.0
 51
0.0
 71
0
 72
1000
 73
1
 74
3
 75
0
 76
0
 77
0
 78
0
281
0
 65
0
146
0.0
  0
ENDTAB
  0
TABLE
  2
LTYPE
  5
2
330
0
100
AcDbSymbolTable
 70
3
  0
LTYPE
  5
24
330
2
100
AcDbSymbolTableRecord
100
AcDbLinetypeTableRecord
  2
ByBlock
 70
0
  3

 72
65
 73
0
 40
0.0
  0
LTYPE
  5
25
330
2
100
AcDbSymbolTableRecord
100
AcDbLinetypeTableRecord
  2
ByLayer
 70
0
  3

 72
65
 73
0
 40
0.0
  0
LTYPE
  5
26
330
2
100
AcDbSymbolTableRecord
100
AcDbLinetypeTableRecord
  2
Continuous
 70
0
  3

 72
65
 73
0
 40
0.0
  0
ENDTAB
  0
TABLE
  2
LAYER
  5
1
330
0
100
AcDbSymbolTable
 70
2
  0
LAYER
  5
27
330
1
100
AcDbSymbolTableRecord
100
AcDbLayerTableRecord
  2
0
 70
0
 62
7
  6
Continuous
370
-3
390
13
347
21
  0
LAYER
  5
28
330
1
100
AcDbSymbolTableRecord
100
AcDbLayerTableRecord
  2
Defpoints
 70
0
 62
7
  6
Continuous
290
0
370
-3
390
13
347
21
  0
ENDTAB
  0
TABLE
  2
STYLE
  5
5
330
0
100
AcDbSymbolTable
 70
1
  0
STYLE
  5
29
330
5
100
AcDbSymbolTableRecord
100
AcDbTextStyleTableRecord
  2
Standard
 70
0
 40
0.0
 41
1.0
 50
0.0
 71
0
 42
2.5
  3
txt
  4

  0
ENDTAB
  0
TABLE
  2
VIEW
  5
7
330
0
100
AcDbSymbolTable
 70
0
  0
ENDTAB
  0
TABLE
  2
UCS
  5
6
330
0
100
AcDbSymbolTable
 70
0
  0
ENDTAB
  0
TABLE
  2
APPID
  5
3
330
0
100
AcDbSymbolTable
 70
3
  0
APPID
  5
2A
330
3
100
AcDbSymbolTableRecord
100
AcDbRegAppTableRecord
  2
ACAD
 70
0
  0
APPID
  5
83
330
3
100
AcDbSymbolTableRecord
100
AcDbRegAppTableRecord
  2
HATCHBACKGROUNDCOLOR
 70
0
  0
APPID
  5
84
330
3
100
AcDbSymbolTableRecord
100
AcDbRegAppTableRecord
  2
EZDXF
 70
0
  0
ENDTAB
  0
TABLE
  2
DIMSTYLE
  5
4
330
0
100
AcDbSymbolTable
 70
1
100
AcDbDimStyleTable
  0
DIMSTYLE
105
2B
330
4
100
AcDbSymbolTableRecord
100
AcDbDimStyleTableRecord
  2
Standard
 70
0
 40
1.0
 41
2.5
 42
0.625
 43
3.75
 44
1.25
 45
0.0
 46
0.0
 47
0.0
 48
0.0
 49
2.5
140
2.5
141
2.5
142
0.0
143
0.03937007874
144
1.0
145
0.0
146
1.0
147
0.625
148
0.0
 69
0
 70
0
 71
0
 72
0
 73
0
 74
0
 75
0
 76
0
 77
1
 78
8
 79
3
170
0
171
3
172
1
173
0
174
0
175
0
176
0
177
0
178
0
179
2
271
2
272
2
273
2
274
3
275
0
276
0
277
2
278
44
279
0
280
0
281
0
282
0
283
0
284
8
285
0
286
0
288
0
289
3
290
0
371
-2
372
-2
  0
ENDTAB
  0
TABLE
  2
BLOCK_RECORD
  5
9
330
0
100
AcDbSymbolTable
 70
7
  0
BLOCK_RECORD
  5
17
330
9
100
AcDbSymbolTableRecord
100
AcDbBlockTableRecord
  2
*Model_Space
340
1A
 70
0
280
1
281
0
  0
BLOCK_RECORD
  5
1B
330
9
100
AcDbSymbolTableRecord
100
AcDbBlockTableRecord
  2
*Paper_Space
340
1E
 70
0
280
1
281
0
  0
BLOCK_RECORD
  5
3B
330
9
100
AcDbSymbolTableRecord
100
AcDbBlockTableRecord
  2
B0
340
0
 70
0
280
1
281
0
  0
BLOCK_RECORD
  5
4B
330
9
100
AcDbSymbolTableRecord
100
AcDbBlockTableRecord
  2
B1
340
0
 70
0
280
1
281
0
  0
BLOCK_RECORD
  5
5A
330
9
100
AcDbSymbolTableRecord
100
AcDbBlockTableRecord
  2
B2
340
0
 70
0
280
1
281
0
  0
BLOCK_RECORD
  5
5E
330
9
100
AcDbSymbolTableRecord
100
AcDbBlockTableRecord
  2
*D1
340
0
 70
0
280
1
281
0
  0
BLOCK_RECORD
  5
63
330
9
100
AcDbSymbolTableRecord
100
AcDbBlockTableRecord
  2
_CLOSEDFILLED
340
0
 70
0
280
1
281
0
  0
ENDTAB
  0
ENDSEC
  0
SECTION
  2
BLOCKS
  0
BLOCK
  5
18
330
17
100
AcDbEntity
  8
0
100
AcDbBlockBegin
  2
*Model_Space
 70
0
 10
0.0
 20
0.0
 30
0.0
  3
*Model_Space
  1

  0
ENDBLK
  5
19
330
17
100
AcDbEntity
  8
0
100
AcDbBlockEnd
  0
BLOCK
  5
1C
330
1B
100
AcDbEntity
  8
0
100
AcDbBlockBegin
  2
*Paper_Space
 70
0
 10
0.0
 20
0.0
 30
0.0
  3
*Paper_Space
  1

  0
ENDBLK
  5
1D
330
1B
100
AcDbEntity
  8
0
100
AcDbBlockEnd
  0
BLOCK
  5
3C
330
3B
100
AcDbEntity
  8
0
100
AcDbBlockBegin
  2
B0
 70
0
 10
-0.36963330627492663
 20
2.8624425454673927
 30
0.0
  3
B0
  1

  0
CIRCLE
  5
3E
330
3B
100
AcDbEntity
  8
0
100
AcDbCircle
 10
-14.159038260124305
 20
-27.269932009803977
 30
0.0
 40
1.1537835058954276
  0
POLYLINE
  5
3F
330
3B
100
AcDbEntity
  8
0
100
AcDb3dPolyline
 66
1
 10
0.0
 20
0.0
 30
0.0
 70
8
  0
VERTEX
  5
41
330
3B
100
AcDbEntity
  8
0
100
AcDbVertex
100
AcDb3dPolylineVertex
 10
-7.0687974065876205
 20
43.91343123232805
 30
0.0
 70
32
  0
VERTEX
  5
42
330
3B
100
AcDbEntity
  8
0
100
AcDbVertex
100
AcDb3dPolylineVertex
 10
-4.0687974065876205
 20
44.91343123232805
 30
2.0
 70
32
  0
VERTEX
  5
43
330
3B
100
AcDbEntity
  8
0
100
AcDbVertex
100
AcDb3dPolylineVertex
 10
-2.0687974065876205
 20
41.91343123232805
 30
-1.0
 70
32
  0
SEQEND
  5
40
330
3F
100
AcDbEntity
  8
0
  0
TEXT
  5
44
330
3B
100
AcDbEntity
  8
0
100
AcDbText
 10
36.69058229521055
 20
8.851071319781944
 30
0.0
 40
2.5
  1
T68
 50
352.4059338394126
100
AcDbText
  0
POLYLINE
  5
45
330
3B
100
AcDbEntity
  8
0
100
AcDb2dPolyline
 66
1
 10
0.0
 20
0.0
 30
0.0
 70
0
210
0.17701004776798146
220
-0.9016170593567012
230
0.3508383102053582
  0
VERTEX
  5
47
330
3B
100
AcDbEntity
  8
0
100
AcDbVertex
100
AcDb2dVertex
 10
12.435166398453049
 20
-14.066275859269258
 30
0.0
 70
0
  0
VERTEX
  5
48
330
3B
100
AcDbEntity
  8
0
100
AcDbVertex
100
AcDb2dVertex
 10
15.101738226519132
 20
-2.595612125843715
 30
0.0
 70
0
  0
VERTEX
  5
49
330
3B
100
AcDbEntity
  8
0
100
AcDbVertex
100
AcDb2dVertex
 10
12.156841798120027
 20
-21.192005458545218
 30
0.0
 70
0
  0
SEQEND
  5
46
330
45
100
AcDbEntity
  8
0
  0
TEXT
  5
4A
330
3B
100
AcDbEntity
  8
0
100
AcDbText
 10
-18.33078172364634
 20
39.63421976301261
 30
0.0
 40
2.5
  1
T90
 50
142.58779623459824
100
AcDbText
  0
ENDBLK
  5
3D
330
3B
100
AcDbEntity
  8
0
100
AcDbBlockEnd
  0
BLOCK
  5
4C
330
4B
100
AcDbEntity
  8
0
100
AcDbBlockBegin
  2
B1
 70
0
 10
-4.240564652273148
 20
-0.41199173527633626
 30
0.0
  3
B1
  1

  0
HATCH
  5
4E
330
4B
100
AcDbEntity
  8
0
 62
7
100
AcDbHatch
 10
0.0
 20
0.0
 30
0.0
210
0.0
220
0.0
230
1.0
  2
SOLID
 70
1
 71
0
 91
1
 92
1
 93
3
 72
1
 10
-22.35638263614733
 20
-1.6709716724236827
 11
-20.35638263614733
 21
-1.6709716724236827
 72
2
 10
-20.35638263614733
 20
-0.6709716724236827
 40
1
 50
-90
 51
90
 73
1
 72
3
 10
-22.35638263614733
 20
-0.6709716724236827
 11
0.0
 21
1.0
 40
0.9194775401246518
 50
90
 51
270
 73
1
 97
0
 75
0
 76
1
 98
0
  0
ARC
  5
4F
330
4B
100
AcDbEntity
  8
0
100
AcDbCircle
 10
29.380428933485263
 20
-6.18310929367486
 30
0.0
 40
15.729491250021665
100
AcDbArc
 50
-16.11114570854744
 51
86.93770930035691
  0
SPLINE
  5
50
330
4B
100
AcDbEntity
  8
0
100
AcDbSpline
 70
0
 71
3
 72
0
 73
0
 74
18
 12
1.0
 22
0.7980689754909098
 32
0.0
 13
1.0
 23
-0.5876477709950416
 33
0.0
 11
-48.58579219370864
 21
-36.43261266032175
 31
0.0
 11
-46.58579219370864
 21
-31.553304074290626
 31
0.0
 11
-44.58579219370864
 21
-32.70027047151466
 31
0.0
 11
-42.58579219370864
 21
-36.44272717707615
 31
0.0
 11
-40.58579219370864
 21
-30.913806346410414
 31
0.0
 11
-38.58579219370864
 21
-32.19046904896038
 31
0.0
 11
-36.58579219370864
 21
-32.26293465111527
 31
0.0
 11
-34.58579219370864
 21
-33.33337603802303
 31
0.0
 11
-32.58579219370864
 21
-32.568303707554726
 31
0.0
 11
-30.58579219370864
 21
-35.5563155571256
 31
0.0
 11
-28.58579219370864
 21
-35.199545894229644
 31
0.0
 11
-26.58579219370864
 21
-34.43116306112203
 31
0.0
 11
-24.58579219370864
 21
-33.97078663553989
 31
0.0
 11
-22.58579219370864
 21
-31.31597016144127
 31
0.0
 11
-20.58579219370864
 21
-36.090922861216214
 31
0.0
 11
-18.58579219370864
 21
-36.45191481862025
 31
0.0
 11
-16.58579219370864
 21
-32.0527648238495
 31
0.0
 11
-14.585792193708642
 21
-30.742676646937046
 31
0.0
  0
MTEXT
  5
51
330
4B
100
AcDbEntity
  8
0
100
AcDbMText
 10
41.41646188109466
 20
-26.91810177019961
 30
0.0
 40
2.5
 71
1
  1
M3\P{\H2;x}
 50
37.45515278429177
  0
POLYLINE
  5
52
330
4B
100
AcDbEntity
  8
0
100
AcDb2dPolyline
 66
1
 10
0.0
 20
0.0
 30
0.0
 70
0
  0
VERTEX
  5
54
330
4B
100
AcDbEntity
  8
0
100
AcDbVertex
100
AcDb2dVertex
 10
20.054015294607204
 20
6.3603047202092355
 30
0.0
 42
0.6248503277622486
 70
0
  0
VERTEX
  5
55
330
4B
100
AcDbEntity
  8
0
100
AcDbVertex
100
AcDb2dVertex
 10
-2.608050297603569
 20
-24.01618400313928
 30
0.0
 70
0
  0
VERTEX
  5
56
330
4B
100
AcDbEntity
  8
0
100
AcDbVertex
100
AcDb2dVertex
 10
-5.189127395719336
 20
-19.63899790891638
 30
0.0
 70
0
  0
SEQEND
  5
53
330
52
100
AcDbEntity
  8
0
  0
ARC
  5
57
330
4B
100
AcDbEntity
  8
0
100
AcDbCircle
 10
36.42170819293571
 20
-42.284538537764604
 30
0.0
 40
16.476229832732447
210
-0.672827711581057
220
-0.6716167704071883
230
0.27556030233033657
100
AcDbArc
 50
240.39150334843362
 51
300.42441602084295
  0
INSERT
  5
58
330
4B
100
AcDbEntity
  8
0
100
AcDbBlockReference
  2
B0
 10
3.3883864976315614
 20
5.817443430544737
 30
0.0
 50
147.87233718234597
  0
ENDBLK
  5
4D
330
4B
100
AcDbEntity
  8
0
100
AcDbBlockEnd
  0
BLOCK
  5
5B
330
5A
100
AcDbEntity
  8
0
100
AcDbBlockBegin
  2
B2
 70
0
 10
-4.1703811810209075
 20
-4.290718678892325
 30
0.0
  3
B2
  1

  0
DIMENSION
  5
5D
330
5A
100
AcDbEntity
  8
0
100
AcDbDimension
280
0
  2
*D1
  3
Standard
 10
-11.030948903876748
 20
19.029313458780862
 30
0.0
 11
-5.978371754771293
 21
19.029313458780862
 31
0.0
 70
32
 71
5
  1
<>
100
AcDbAlignedDimension
 13
-11.030948903876748
 23
14.029313458780862
 33
0.0
 14
-0.9257946056658373
 24
14.029313458780862
 34
0.0
 50
0.0
100
AcDbRotatedDimension
  0
LWPOLYLINE
  5
71
330
5A
100
AcDbEntity
  8
0
100
AcDbPolyline
 90
2
 70
0
 10
-1.6566979368870136
 20
28.94158196485501
 10
-18.485456020797514
 20
-17.320409942974365
 42
1.7061135302334662
  0
MTEXT
  5
72
330
5A
100
AcDbEntity
  8
0
100
AcDbMText
 10
-39.41382753448721
 20
-7.005902655208786
 30
0.0
 40
2.5
 71
1
  1
M3\P{\H2;x}
 50
75.90625048608246
  0
ARC
  5
73
330
5A
100
AcDbEntity
  8
0
100
AcDbCircle
 10
-16.737348194866918
 20
4.221777847062128
 30
0.0
 40
0.8705238783097823
100
AcDbArc
 50
118.34282909068202
 51
57.56354024051262
  0
CIRCLE
  5
74
330
5A
100
AcDbEntity
  8
0
100
AcDbCircle
 10
-17.71803726323985
 20
-48.78124146270481
 30
0.0
 40
8.22693059523089
  0
SPLINE
  5
75
330
5A
100
AcDbEntity
  8
0
100
AcDbSpline
 70
0
 71
3
 72
10
 73
6
 74
0
 40
0.0
 40
0.0
 40
0.0
 40
0.0
 40
1.0
 40
2.0
 40
3.0
 40
3.0
 40
3.0
 40
3.0
 10
0.44762653156611876
 20
-13.121835015371403
 30
0.0
 10
0.39357043605031095
 20
4.983928754956018
 30
0.0
 10
16.068418620937322
 20
2.199115293744427
 30
0.0
 10
-13.593044199376195
 20
-20.4217738383054
 30
0.0
 10
-8.266937151363155
 20
7.874031549477955
 30
0.0
 10
-25.508940477016107
 20
-17.699836293804204
 30
0.0
  0
SPLINE
  5
76
330
5A
100
AcDbEntity
  8
0
100
AcDbSpline
 70
0
 71
3
 72
0
 73
0
 74
25
 12
1.0
 22
-0.21938714639476964
 32
0.0
 13
1.0
 23
-0.17074436137107862
 33
0.0
 11
16.11818720052709
 21
-17.072515758060693
 31
0.0
 11
18.11818720052709
 21
-16.048548945984166
 31
0.0
 11
20.11818720052709
 21
-17.38156277546148
 31
0.0
 11
22.11818720052709
 21
-20.25353434228476
 31
0.0
 11
24.11818720052709
 21
-14.622575620438962
 31
0.0
 11
26.11818720052709
 21
-16.209039533608184
 31
0.0
 11
28.11818720052709
 21
-18.624484694550215
 31
0.0
 11
30.11818720052709
 21
-16.176897644480732
 31
0.0
 11
32.11818720052709
 21
-20.180187506166455
 31
0.0
 11
34.11818720052709
 21
-16.670021257613193
 31
0.0
 11
36.11818720052709
 21
-19.372367901654428
 31
0.0
 11
38.11818720052709
 21
-18.633434859216496
 31
0.0
 11
40.11818720052709
 21
-18.166266196446028
 31
0.0
 11
42.11818720052709
 21
-17.540666699532956
 31
0.0
 11
44.11818720052709
 21
-19.711113540120458
 31
0.0
 11
46.11818720052709
 21
-19.501903461907933
 31
0.0
 11
48.11818720052709
 21
-18.31944617341071
 31
0.0
 11
50.11818720052709
 21
-19.34958118528214
 31
0.0
 11
52.11818720052709
 21
-16.088798903654464
 31
0.0
 11
54.11818720052709
 21
-17.49054500077506
 31
0.0
 11
56.11818720052709
 21
-20.26185009840906
 31
0.0
 11
58.11818720052709
 21
-14.94047706088011
 31
0.0
 11
60.11818720052709
 21
-17.699462135647575
 31
0.0
 11
62.11818720052709
 21
-15.242147732671288
 31
0.0
 11
64.11818720052709
 21
-18.3990343830779
 31
0.0
  0
MTEXT
  5
77
330
5A
100
AcDbEntity
  8
0
100
AcDbMText
 10
7.368485777394355
 20
-33.34773460500663
 30
0.0
 40
2.5
 71
1
  1
M5\P{\H2;x}
 50
76.41570142513189
  0
LWPOLYLINE
  5
78
330
5A
100
AcDbEntity
  8
0
100
AcDbPolyline
 90
6
 70
1
 10
-2.226409491990484
 20
-27.067196626559152
 42
-1.0848931070755277
 10
-3.0407411212040643
 20
-11.622763268532438
 42
0.6368235988286304
 10
20.88730714763868
 20
-29.113958498336224
 42
0.141117888795661
 10
-5.824987204219596
 20
12.698107385734374
 10
3.4087128175304215
 20
26.72125799289129
 10
17.313035931135417
 20
24.52031912584885
  0
INSERT
  5
79
330
5A
100
AcDbEntity
  8
0
100
AcDbBlockReference
  2
B1
 10
6.515178609209295
 20
7.612866575584025
 30
0.0
 41
2.0
 42
-2.0
 50
269.574296398987
  0
ENDBLK
  5
5C
330
5A
100
AcDbEntity
  8
0
100
AcDbBlockEnd
  0
BLOCK
  5
5F
330
5E
100
AcDbEntity
  8
0
100
AcDbBlockBegin
  2
*D1
 70
1
 10
0.0
 20
0.0
 30
0.0
  3
*D1
  1

  0
LINE
  5
61
330
5E
100
AcDbEntity
  8
0
100
AcDbLine
 10
-11.030948903876748
 20
14.029313458780862
 30
0.0
 11
-11.030948903876748
 21
19.029313458780862
 31
0.0
  0
LINE
  5
62
330
5E
100
AcDbEntity
  8
0
100
AcDbLine
 10
-0.9257946056658373
 20
14.029313458780862
 30
0.0
 11
-0.9257946056658373
 21
19.029313458780862
 31
0.0
  0
INSERT
  5
67
330
5E
100
AcDbEntity
  8
0
100
AcDbBlockReference
  2
_CLOSEDFILLED
 10
-11.030948903876748
 20
19.029313458780862
 30
0.0
 41
0.25
 42
0.25
 50
180.0
  0
INSERT
  5
69
330
5E
100
AcDbEntity
  8
0
100
AcDbBlockReference
  2
_CLOSEDFILLED
 10
-0.9257946056658373
 20
19.029313458780862
 30
0.0
 41
0.25
 42
0.25
  0
LINE
  5
6B
330
5E
100
AcDbEntity
  8
0
100
AcDbLine
 10
-10.780948903876748
 20
19.029313458780862
 30
0.0
 11
-8.478371754771292
 21
19.029313458780862
 31
0.0
  0
LINE
  5
6C
330
5E
100
AcDbEntity
  8
0
100
AcDbLine
 10
-3.4783717547712927
 20
19.029313458780862
 30
0.0
 11
-1.1757946056658373
 21
19.029313458780862
 31
0.0
  0
MTEXT
  5
6D
330
5E
100
AcDbEntity
  8
0
100
AcDbMText
 10
-5.978371754771293
 20
19.029313458780862
 30
0.0
 40
1.0
 71
5
  1
10,11
  0
POINT
  5
6E
330
5E
100
AcDbEntity
  8
Defpoints
100
AcDbPoint
 10
-11.030948903876748
 20
19.029313458780862
 30
0.0
  0
POINT
  5
6F
330
5E
100
AcDbEntity
  8
Defpoints
100
AcDbPoint
 10
-11.030948903876748
 20
14.029313458780862
 30
0.0
  0
POINT
  5
70
330
5E
100
AcDbEntity
  8
Defpoints
100
AcDbPoint
 10
-0.9257946056658373
 20
14.029313458780862
 30
0.0
  0
ENDBLK
  5
60
330
5E
100
AcDbEntity
  8
0
100
AcDbBlockEnd
  0
BLOCK
  5
64
330
63
100
AcDbEntity
  8
0
100
AcDbBlockBegin
  2
_CLOSEDFILLED
 70
0
 10
0.0
 20
0.0
 30
0.0
  3
_CLOSEDFILLED
  1

  0
SOLID
  5
66
330
63
100
AcDbEntity
  8
0
  6
BYBLOCK
 62
0
100
AcDbTrace
 10
-1.0
 20
0.16439898372402537
 30
0.0
 11
0.0
 21
0.0
 31
0.0
 12
-1.0
 22
-0.16439898372402537
 32
0.0
 13
-1.0
 23
-0.16439898372402537
 33
0.0
  0
ENDBLK
  5
65
330
63
100
AcDbEntity
  8
0
100
AcDbBlockEnd
  0
ENDSEC
  0
SECTION
  2
ENTITIES
  0
ELLIPSE
  5
2F
330
17
100
AcDbEntity
  8
0
100
AcDbEllipse
 10
-9.856030147975382
 20
-33.82403370000687
 30
0.0
 11
0.824690146088491
 21
0.3455674111890019
 31
0.0
210
0.0
220
0.0
230
-1.0
 40
0.6904652425464785
 41
4.128795725220126
 42
-0.594168532593006
  0
POLYLINE
  5
30
330
17
100
AcDbEntity
  8
0
100
AcDb2dPolyline
 66
1
 10
0.0
 20
0.0
 30
0.0
 70
1
  0
VERTEX
  5
32
330
17
100
AcDbEntity
  8
0
100
AcDbVertex
100
AcDb2dVertex
 10
-25.33244307821134
 20
8.137535234895054
 30
0.0
 42
-0.7234706401126951
 70
0
  0
VERTEX
  5
33
330
17
100
AcDbEntity
  8
0
100
AcDbVertex
100
AcDb2dVertex
 10
-15.217113774314452
 20
2.2295758284601135
 30
0.0
 42
0.21734528465450853
 70
0
  0
SEQEND
  5
31
330
30
100
AcDbEntity
  8
0
  0
SOLID
  5
34
330
17
100
AcDbEntity
  8
0
100
AcDbTrace
 10
6.062366062317615
 20
-14.823412565398883
 30
0.0
 11
7.062366062317615
 21
-14.823412565398883
 31
0.0
 12
6.062366062317615
 22
-14.123412565398883
 32
0.0
 13
7.262366062317615
 23
-13.823412565398883
 33
0.0
  0
CIRCLE
  5
35
330
17
100
AcDbEntity
  8
0
100
AcDbCircle
 10
-42.38696570566266
 20
48.34703455167727
 30
0.0
 40
7.5696403339064045
210
0.01
220
0.005
230
1.0
  0
HATCH
  5
36
330
17
100
AcDbEntity
  8
0
 62
7
100
AcDbHatch
 10
0.0
 20
0.0
 30
0.0
210
0.0
220
0.0
230
1.0
  2
SOLID
 70
1
 71
0
 91
1
 92
3
 72
0
 73
1
 93
3
 10
7.957122889105229
 20
35.376241072511604
 10
9.457122889105229
 20
35.376241072511604
 10
9.457122889105229
 20
36.376241072511604
 97
0
 75
0
 76
1
 98
0
  0
MTEXT
  5
37
330
17
100
AcDbEntity
  8
0
100
AcDbMText
 10
-26.25937051747227
 20
47.33861008071784
 30
0.0
 40
2.5
 71
1
  1
M5\P{\H2;x}
210
0.0
220
0.0
230
-1.0
 50
69.52984655396799
  0
LEADER
  5
38
330
17
100
AcDbEntity
  8
0
100
AcDbLeader
  3
Standard
 73
3
 76
3
 10
-40.591371211851865
 20
12.820246187778686
 30
0.0
 10
-35.591371211851865
 20
16.820246187778686
 30
0.0
 10
-31.591371211851865
 20
16.820246187778686
 30
0.0
  0
CIRCLE
  5
39
330
17
100
AcDbEntity
  8
0
100
AcDbCircle
 10
-4.3085092427409535
 20
32.32164540558034
 30
0.0
 40
6.7259733281710545
  0
SPLINE
  5
3A
330
17
100
AcDbEntity
  8
0
100
AcDbSpline
 70
0
 71
3
 72
0
 73
0
 74
25
 12
1.0
 22
0.4992230584997157
 32
0.0
 13
1.0
 23
0.1814510628138435
 33
0.0
 11
-2.305239789556822
 21
45.53495576537258
 31
0.0
 11
-0.30523978955682196
 21
45.09254616691851
 31
0.0
 11
1.694760210443178
 21
44.32844676300741
 31
0.0
 11
3.694760210443178
 21
44.59429263588162
 31
0.0
 11
5.694760210443178
 21
43.722697899671225
 31
0.0
 11
7.694760210443178
 21
42.19922387897105
 31
0.0
 11
9.694760210443178
 21
43.69114262257683
 31
0.0
 11
11.694760210443178
 21
46.063609438507235
 31
0.0
 11
13.694760210443178
 21
45.41270687655638
 31
0.0
 11
15.694760210443178
 21
44.4295175808321
 31
0.0
 11
17.694760210443178
 21
40.80811578432675
 31
0.0
 11
19.694760210443178
 21
45.52507050701993
 31
0.0
 11
21.694760210443178
 21
42.0915052034501
 31
0.0
 11
23.694760210443178
 21
46.29115928828347
 31
0.0
 11
25.694760210443178
 21
43.43938548069513
 31
0.0
 11
27.694760210443178
 21
44.26495801415108
 31
0.0
 11
29.694760210443178
 21
42.66803307641037
 31
0.0
 11
31.694760210443178
 21
41.59642851786434
 31
0.0
 11
33.69476021044318
 21
44.618379146874254
 31
0.0
 11
35.69476021044318
 21
43.76257290641214
 31
0.0
 11
37.69476021044318
 21
42.898353065588694
 31
0.0
 11
39.69476021044318
 21
44.2523417653424
 31
0.0
 11
41.69476021044318
 21
46.3835315952022
 31
0.0
 11
43.69476021044318
 21
41.71226886770705
 31
0.0
 11
45.69476021044318
 21
46.047878811469324
 31
0.0
  0
INSERT
  5
7B
330
17
100
AcDbEntity
  8
0
100
AcDbBlockReference
  2
B1
 10
-20.669138094950767
 20
0.5700527771419104
 30
0.0
 50
314.97483915686325
  0
INSERT
  5
7D
330
17
100
AcDbEntity
  8
0
100
AcDbBlockReference
  2
B2
 10
2.9495278384278123
 20
-70.34935402731669
 30
0.0
 41
-1.0
 42
-1.0
 50
202.91681575184288
210
0.01
220
0.005
230
1.0
  0
INSERT
  5
7F
330
17
100
AcDbEntity
  8
0
100
AcDbBlockReference
  2
B2
 10
32.76929605301653
 20
2.61262961798829
 30
0.0
 41
1.5
 42
1.5
 50
109.38706825551847
  0
INSERT
  5
81
330
17
100
AcDbEntity
  8
0
100
AcDbBlockReference
  2
B2
 10
-38.518026477746936
 20
8.122946621995979
 30
0.0
 41
-1.0
 42
0.5
 50
244.505215184967
210
0.01
220
0.005
230
1.0
  0
ENDSEC
  0
SECTION
  2
OBJECTS
  0
DICTIONARY
  5
A
330
0
100
AcDbDictionary
281
1
  3
ACAD_COLOR
350
B
  3
ACAD_GROUP
350
C
  3
ACAD_LAYOUT
350
D
  3
ACAD_MATERIAL
350
E
  3
ACAD_MLEADERSTYLE
350
F
  3
ACAD_MLINESTYLE
350
10
  3
ACAD_PLOTSETTINGS
350
11
  3
ACAD_PLOTSTYLENAME
350
12
  3
ACAD_SCALELIST
350
14
  3
ACAD_TABLESTYLE
350
15
  3
ACAD_VISUALSTYLE
350
16
  3
EZDXF_META
350
2D
  0
DICTIONARY
  5
B
330
A
100
AcDbDictionary
281
1
  0
DICTIONARY
  5
C
330
A
100
AcDbDictionary
281
1
  0
DICTIONARY
  5
D
330
A
100
AcDbDictionary
281
1
  3
Model
350
1A
  3
Layout1
350
1E
  0
DICTIONARY
  5
E
330
A
100
AcDbDictionary
281
1
  3
ByBlock
350
1F
  3
ByLayer
350
20
  3
Global
350
21
  0
DICTIONARY
  5
F
330
A
100
AcDbDictionary
281
1
  3
Standard
350
2C
  0
DICTIONARY
  5
10
330
A
100
AcDbDictionary
281
1
  3
Standard
350
22
  0
DICTIONARY
  5
11
330
A
100
AcDbDictionary
281
1
  0
ACDBDICTIONARYWDFLT
  5
12
330
A
100
AcDbDictionary
281
1
  3
Normal
350
13
100
AcDbDictionaryWithDefault
340
13
  0
ACDBPLACEHOLDER
  5
13
330
12
  0
DICTIONARY
  5
14
330
A
100
AcDbDictionary
281
1
  0
DICTIONARY
  5
15
330
A
100
AcDbDictionary
281
1
  0
DICTIONARY
  5
16
330
A
100
AcDbDictionary
281
1
  0
LAYOUT
  5
1A
330
D
100
AcDbPlotSettings
  1

  4
A3
  6

 40
7.5
 41
20.0
 42
7.5
 43
20.0
 44
420.0
 45
297.0
 46
0.0
 47
0.0
 48
0.0
 49
0.0
140
0.0
141
0.0
142
1.0
143
1.0
 70
1024
 72
1
 73
0
 74
5
  7

 75
16
 76
0
 77
2
 78
300
147
1.0
148
0.0
149
0.0
100
AcDbLayout
  1
Model
 70
1
 71
0
 10
0.0
 20
0.0
 11
420.0
 21
297.0
 12
0.0
 22
0.0
 32
0.0
 14
1e+20
 24
1e+20
 34
1e+20
 15
-1e+20
 25
-1e+20
 35
-1e+20
146
0.0
 13
0.0
 23
0.0
 33
0.0
 16
1.0
 26
0.0
 36
0.0
 17
0.0
 27
1.0
 37
0.0
 76
1
330
17
  0
LAYOUT
  5
1E
330
D
100
AcDbPlotSettings
  1

  4
A3
  6

 40
7.5
 41
20.0
 42
7.5
 43
20.0
 44
420.0
 45
297.0
 46
0.0
 47
0.0
 48
0.0
 49
0.0
140
0.0
141
0.0
142
1.0
143
1.0
 70
0
 72
1
 73
0
 74
5
  7

 75
16
 76
0
 77
2
 78
300
147
1.0
148
0.0
149
0.0
100
AcDbLayout
  1
Layout1
 70
1
 71
1
 10
0.0
 20
0.0
 11
420.0
 21
297.0
 12
0.0
 22
0.0
 32
0.0
 14
1e+20
 24
1e+20
 34
1e+20
 15
-1e+20
 25
-1e+20
 35
-1e+20
146
0.0
 13
0.0
 23
0.0
 33
0.0
 16
1.0
 26
0.0
 36
0.0
 17
0.0
 27
1.0
 37
0.0
 76
1
330
1B
  0
MATERIAL
  5
1F
102
{ACAD_REACTORS
330
E
102
}
330
E
100
AcDbMaterial
  1
ByBlock
  2

 70
0
 40
1.0
 71
1
 41
1.0
 91
-1023410177
 42
1.0
 72
1
  3

 73
1
 74
1
 75
1
 44
0.5
 73
0
 45
1.0
 46
1.0
 77
1
  4

 78
1
 79
1
170
1
 48
1.0
171
1
  6

172
1
173
1
174
1
140
1.0
141
1.0
175
1
  7

176
1
177
1
178
1
143
1.0
179
1
  8

270
1
271
1
272
1
145
1.0
146
1.0
273
1
  9

274
1
275
1
276
1
 42
1.0
 72
1
  3

 73
1
 74
1
 75
1
 94
63
  0
MATERIAL
  5
20
102
{ACAD_REACTORS
330
E
102
}
330
E
100
AcDbMaterial
  1
ByLayer
  2

 70
0
 40
1.0
 71
1
 41
1.0
 91
-1023410177
 42
1.0
 72
1
  3

 73
1
 74
1
 75
1
 44
0.5
 73
0
 45
1.0
 46
1.0
 77
1
  4

 78
1
 79
1
170
1
 48
1.0
171
1
  6

172
1
173
1
174
1
140
1.0
141
1.0
175
1
  7

176
1
177
1
178
1
143
1.0
179
1
  8

270
1
271
1
272
1
145
1.0
146
1.0
273
1
  9

274
1
275
1
276
1
 42
1.0
 72
1
  3

 73
1
 74
1
 75
1
 94
63
  0
MATERIAL
  5
21
102
{ACAD_REACTORS
330
E
102
}
330
E
100
AcDbMaterial
  1
Global
  2

 70
0
 40
1.0
 71
1
 41
1.0
 91
-1023410177
 42
1.0
 72
1
  3

 73
1
 74
1
 75
1
 44
0.5
 73
0
 45
1.0
 46
1.0
 77
1
  4

 78
1
 79
1
170
1
 48
1.0
171
1
  6

172
1
173
1
174
1
140
1.0
141
1.0
175
1
  7

176
1
177
1
178
1
143
1.0
179
1
  8

270
1
271
1
272
1
145
1.0
146
1.0
273
1
  9

274
1
275
1
276
1
 42
1.0
 72
1
  3

 73
1
 74
1
 75
1
 94
63
  0
MLINESTYLE
  5
22
102
{ACAD_REACTORS
330
10
102
}
330
10
100
AcDbMlineStyle
  2
Standard
 70
0
  3

 62
256
 51
90.0
 52
90.0
 71
2
 49
0.5
 62
256
  6
BYLAYER
 49
-0.5
 62
256
  6
BYLAYER
  0
MLEADERSTYLE
  5
2C
102
{ACAD_REACTORS
330
F
102
}
330
F
100
AcDbMLeaderStyle
179
2
170
2
171
1
172
0
 90
2
 40
0.0
 41
0.0
173
1
 91
-1056964608
 92
-2
290
1
 42
2.0
291
1
 43
8.0
  3
Standard
 44
4.0
300

342
29
174
1
175
1
176
0
178
1
 93
-1056964608
 45
4.0
292
0
297
0
 46
4.0
 94
-1056964608
 47
1.0
 49
1.0
140
1.0
294
1
141
0.0
177
0
142
1.0
295
0
296
0
143
3.75
271
0
272
9
273
9
  0
DICTIONARY
  5
2D
330
A
100
AcDbDictionary
280
1
281
1
  3
CREATED_BY_EZDXF
350
2E
  3
WRITTEN_BY_EZDXF
350
85
  0
DICTIONARYVAR
  5
2E
330
2D
100
DictionaryVariables
280
0
  1
1.4.4 @ 2026-10-06T06:13:47.749365+00:00
  0
DICTIONARYVAR
  5
85
330
2D
100
DictionaryVariables
280
0
  1
1.4.4 @ 2026-10-06T06:13:47.755092+00:00
  0
ENDSEC
  0
EOF
