  0
SECTION
  2
HEADER
  9
$ACADVER
  1
AC1032
  9
$ACADMAINTVER
 90
4
  9
$DWGCODEPAGE
  3
ANSI_1252
  9
$LASTSAVEDBY
  1
ezdxf
  9
$REQUIREDVERSIONS
160
0
  9
$INSBASE
 10
0.0
 20
0.0
 30
0.0
  9
$EXTMIN
 10
1e+20
 20
1e+20
 30
1e+20
  9
$EXTMAX
 10
-1e+20
 20
-1e+20
 30
-1e+20
  9
$LIMMIN
 10
0.0
 20
0.0
  9
$LIMMAX
 10
420.0
 20
297.0
  9
$ORTHOMODE
 70
0
  9
$REGENMODE
 70
1
  9
$FILLMODE
 70
1
  9
$QTEXTMODE
 70
0
  9
$MIRRTEXT
 70
1
  9
$LTSCALE
 40
1.0
  9
$ATTMODE
 70
1
  9
$TEXTSIZE
 40
2.5
  9
$TRACEWID
 40
1.0
  9
$TEXTSTYLE
  7
Standard
  9
$CLAYER
  8
0
  9
$CELTYPE
  6
ByLayer
  9
$CECOLOR
 62
256
  9
$CELTSCALE
 40
1.0
  9
$DISPSILH
 70
0
  9
$DIMSCALE
 40
1.0
  9
$DIMASZ
 40
2.5
  9
$DIMEXO
 40
0.625
  9
$DIMDLI
 40
3.75
  9
$DIMRND
 40
0.0
  9
$DIMDLE
 40
0.0
  9
$DIMEXE
 40
1.25
  9
$DIMTP
 40
0.0
  9
$DIMTM
 40
0.0
  9
$DIMTXT
 40
2.5
  9
$DIMCEN
 40
2.5
  9
$DIMTSZ
 40
0.0
  9
$DIMTOL
 70
0
  9
$DIMLIM
 70
0
  9
$DIMTIH
 70
0
  9
$DIMTOH
 70
0
  9
$DIMSE1
 70
0
  9
$DIMSE2
 70
0
  9
$DIMTAD
 70
1
  9
$DIMZIN
 70
8
  9
$DIMBLK
  1

  9
$DIMASO
 70
1
  9
$DIMSHO
 70
1
  9
$DIMPOST
  1

  9
$DIMAPOST
  1

  9
$DIMALT
 70
0
  9
$DIMALTD
 70
3
  9
$DIMALTF
 40
0.03937007874
  9
$DIMLFAC
 40
1.0
  9
$DIMTOFL
 70
1
  9
$DIMTVP
 40
0.0
  9
$DIMTIX
 70
0
  9
$DIMSOXD
 70
0
  9
$DIMSAH
 70
0
  9
$DIMBLK1
  1

  9
$DIMBLK2
  1

  9
$DIMSTYLE
  2
ISO-25
  9
$DIMCLRD
 70
0
  9
$DIMCLRE
 70
0
  9
$DIMCLRT
 70
0
  9
$DIMTFAC
 40
1.0
  9
$DIMGAP
 40
0.625
  9
$DIMJUST
 70
0
  9
$DIMSD1
 70
0
  9
$DIMSD2
 70
0
  9
$DIMTOLJ
 70
0
  9
$DIMTZIN
 70
8
  9
$DIMALTZ
 70
0
  9
$DIMALTTZ
 70
0
  9
$DIMUPT
 70
0
  9
$DIMDEC
 70
2
  9
$DIMTDEC
 70
2
  9
$DIMALTU
 70
2
  9
$DIMALTTD
 70
3
  9
$DIMTXSTY
  7
Standard
  9
$DIMAUNIT
 70
0
  9
$DIMADEC
 70
0
  9
$DIMALTRND
 40
0.0
  9
$DIMAZIN
 70
0
  9
$DIMDSEP
 70
44
  9
$DIMATFIT
 70
3
  9
$DIMFRAC
 70
0
  9
$DIMLDRBLK
  1

  9
$DIMLUNIT
 70
2
  9
$DIMLWD
 70
-2
  9
$DIMLWE
 70
-2
  9
$DIMTMOVE
 70
0
  9
$DIMFXL
 40
1.0
  9
$DIMFXLON
 70
0
  9
$DIMJOGANG
 40
0.785398163397
  9
$DIMTFILL
 70
0
  9
$DIMTFILLCLR
 70
0
  9
$DIMARCSYM
 70
0
  9
$DIMLTYPE
  6

  9
$DIMLTEX1
  6

  9
$DIMLTEX2
  6

  9
$DIMTXTDIRECTION
 70
0
  9
$LUNITS
 70
2
  9
$LUPREC
 70
4
  9
$SKETCHINC
 40
1.0
  9
$FILLETRAD
 40
10.0
  9
$AUNITS
 70
0
  9
$AUPREC
 70
2
  9
$MENU
  1
.
  9
$ELEVATION
 40
0.0
  9
$PELEVATION
 40
0.0
  9
$THICKNESS
 40
0.0
  9
$LIMCHECK
 70
0
  9
$CHAMFERA
 40
0.0
  9
$CHAMFERB
 40
0.0
  9
$CHAMFERC
 40
0.0
  9
$CHAMFERD
 40
0.0
  9
$SKPOLY
 70
0
  9
$TDCREATE
 40
2461320.3587268516
  9
$TDUCREATE
 40
2458532.153996898
  9
$TDUPDATE
 40
2461320.3587268516
  9
$TDUUPDATE
 40
2458532.1544311
  9
$TDINDWG
 40
0.0
  9
$TDUSRTIMER
 40
0.0
  9
$USRTIMER
 70
1
  9
$ANGBASE
 50
0.0
  9
$ANGDIR
 70
0
  9
$PDMODE
 70
0
  9
$PDSIZE
 40
0.0
  9
$PLINEWID
 40
0.0
  9
$SPLFRAME
 70
0
  9
$SPLINETYPE
 70
6
  9
$SPLINESEGS
 70
8
  9
$HANDSEED
  5
AB
  9
$SURFTAB1
 70
6
  9
$SURFTAB2
 70
6
  9
$SURFTYPE
 70
6
  9
$SURFU
 70
6
  9
$SURFV
 70
6
  9
$UCSBASE
  2

  9
$UCSNAME
  2

  9
$UCSORG
 10
0.0
 20
0.0
 30
0.0
  9
$UCSXDIR
 10
1.0
 20
0.0
 30
0.0
  9
$UCSYDIR
 10
0.0
 20
1.0
 30
0.0
  9
$UCSORTHOREF
  2

  9
$UCSORTHOVIEW
 70
0
  9
$UCSORGTOP
 10
0.0
 20
0.0
 30
0.0
  9
$UCSORGBOTTOM
 10
0.0
 20
0.0
 30
0.0
  9
$UCSORGLEFT
 10
0.0
 20
0.0
 30
0.0
  9
$UCSORGRIGHT
 10
0.0
 20
0.0
 30
0.0
  9
$UCSORGFRONT
 10
0.0
 20
0.0
 30
0.0
  9
$UCSORGBACK
 10
0.0
 20
0.0
 30
0.0
  9
$PUCSBASE
  2

  9
$PUCSNAME
  2

  9
$PUCSORG
 10
0.0
 20
0.0
 30
0.0
  9
$PUCSXDIR
 10
1.0
 20
0.0
 30
0.0
  9
$PUCSYDIR
 10
0.0
 20
1.0
 30
0.0
  9
$PUCSORTHOREF
  2

  9
$PUCSORTHOVIEW
 70
0
  9
$PUCSORGTOP
 10
0.0
 20
0.0
 30
0.0
  9
$PUCSORGBOTTOM
 10
0.0
 20
0.0
 30
0.0
  9
$PUCSORGLEFT
 10
0.0
 20
0.0
 30
0.0
  9
$PUCSORGRIGHT
 10
0.0
 20
0.0
 30
0.0
  9
$PUCSORGFRONT
 10
0.0
 20
0.0
 30
0.0
  9
$PUCSORGBACK
 10
0.0
 20
0.0
 30
0.0
  9
$USERI1
 70
0
  9
$USERI2
 70
0
  9
$USERI3
 70
0
  9
$USERI4
 70
0
  9
$USERI5
 70
0
  9
$USERR1
 40
0.0
  9
$USERR2
 40
0.0
  9
$USERR3
 40
0.0
  9
$USERR4
 40
0.0
  9
$USERR5
 40
0.0
  9
$WORLDVIEW
 70
1
  9
$SHADEDGE
 70
3
  9
$SHADEDIF
 70
70
  9
$TILEMODE
 70
1
  9
$MAXACTVP
 70
64
  9
$PINSBASE
 10
0.0
 20
0.0
 30
0.0
  9
$PLIMCHECK
 70
0
  9
$PEXTMIN
 10
1e+20
 20
1e+20
 30
1e+20
  9
$PEXTMAX
 10
-1e+20
 20
-1e+20
 30
-1e+20
  9
$PLIMMIN
 10
0.0
 20
0.0
  9
$PLIMMAX
 10
420.0
 20
297.0
  9
$UNITMODE
 70
0
  9
$VISRETAIN
 70
1
  9
$PLINEGEN
 70
0
  9
$PSLTSCALE
 70
1
  9
$TREEDEPTH
 70
3020
  9
$CMLSTYLE
  2
Standard
  9
$CMLJUST
 70
0
  9
$CMLSCALE
 40
20.0
  9
$PROXYGRAPHICS
 70
1
  9
$MEASUREMENT
 70
1
  9
$CELWEIGHT
370
-1
  9
$ENDCAPS
280
0
  9
$JOINSTYLE
280
0
  9
$LWDISPLAY
290
0
  9
$INSUNITS
 70
4
  9
$HYPERLINKBASE
  1

  9
$STYLESHEET
  1

  9
$XEDIT
290
1
  9
$CEPSNTYPE
380
0
  9
$PSTYLEMODE
290
1
  9
$FINGERPRINTGUID
  2
{EAA71212-4E27-4242-BBF7-DEEE399AB38E}
  9
$VERSIONGUID
  2
{33744EC7-C01E-424B-9778-CED36F9BE559}
  9
$EXTNAMES
290
1
  9
$PSVPSCALE
 40
0.0
  9
$OLESTARTUP
290
0
  9
$SORTENTS
280
127
  9
$INDEXCTL
280
0
  9
$HIDETEXT
280
1
  9
$XCLIPFRAME
280
1
  9
$HALOGAP
280
0
  9
$OBSCOLOR
 70
257
  9
$OBSLTYPE
280
0
  9
$INTERSECTIONDISPLAY
280
0
  9
$INTERSECTIONCOLOR
 70
257
  9
$DIMASSOC
280
2
  9
$PROJECTNAME
  1

  9
$CAMERADISPLAY
290
0
  9
$LENSLENGTH
 40
50.0
  9
$CAMERAHEIGHT
 40
0.0
  9
$STEPSPERSEC
 40
24.0
  9
$STEPSIZE
 40
100.0
  9
$3DDWFPREC
 40
2.0
  9
$PSOLWIDTH
 40
0.005
  9
$PSOLHEIGHT
 40
0.08
  9
$LOFTANG1
 40
1.570796326795
  9
$LOFTANG2
 40
1.570796326795
  9
$LOFTMAG1
 40
0.0
  9
$LOFTMAG2
 40
0.0
  9
$LOFTPARAM
 70
7
  9
$LOFTNORMALS
280
1
  9
$LATITUDE
 40
37.795
  9
$LONGITUDE
 40
-122.394
  9
$NORTHDIRECTION
 40
0.0
  9
$TIMEZONE
 70
-8000
  9
$LIGHTGLYPHDISPLAY
280
1
  9
$TILEMODELIGHTSYNCH
280
1
  9
$CMATERIAL
347
20
  9
$SOLIDHIST
280
0
  9
$SHOWHIST
280
1
  9
$DWFFRAME
280
2
  9
$DGNFRAME
280
2
  9
$REALWORLDSCALE
290
1
  9
$INTERFERECOLOR
 62
256
  9
$CSHADOW
280
0
  9
$SHADOWPLANELOCATION
 40
0.0
  0
ENDSEC
  0
SECTION
  2
CLASSES
  0
CLASS
  1
ACDBDICTIONARYWDFLT
  2
AcDbDictionaryWithDefault
  3
ObjectDBX Classes
 90
0
 91
0
280
0
281
0
  0
CLASS
  1
SUN
  2
AcDbSun
  3
SCENEOE
 90
1153
 91
0
280
0
281
0
  0
CLASS
  1
VISUALSTYLE
  2
AcDbVisualStyle
  3
ObjectDBX Classes
 90
4095
 91
0
280
0
281
0
  0
CLASS
  1
MATERIAL
  2
AcDbMaterial
  3
ObjectDBX Classes
 90
1153
 91
0
280
0
281
0
  0
CLASS
  1
SCALE
  2
AcDbScale
  3
ObjectDBX Classes
 90
1153
 91
0
280
0
281
0
  0
CLASS
  1
TABLESTYLE
  2
AcDbTableStyle
  3
ObjectDBX Classes
 90
4095
 91
0
280
0
281
0
  0
CLASS
  1
MLEADERSTYLE
  2
AcDbMLeaderStyle
  3
ACDB_MLEADERSTYLE_CLASS
 90
4095
 91
0
280
0
281
0
  0
CLASS
  1
DICTIONARYVAR
  2
AcDbDictionaryVar
  3
ObjectDBX Classes
 90
0
 91
0
280
0
281
0
  0
CLASS
  1
CELLSTYLEMAP
  2
AcDbCellStyleMap
  3
ObjectDBX Classes
 90
1152
 91
0
280
0
281
0
  0
CLASS
  1
MENTALRAYRENDERSETTINGS
  2
AcDbMentalRayRenderSettings
  3
SCENEOE
 90
1024
 91
0
280
0
281
0
  0
CLASS
  1
ACDBDETAILVIEWSTYLE
  2
AcDbDetailViewStyle
  3
ObjectDBX Classes
 90
1025
 91
0
280
0
281
0
  0
CLASS
  1
ACDBSECTIONVIEWSTYLE
  2
AcDbSectionViewStyle
  3
ObjectDBX Classes
 90
1025
 91
0
280
0
281
0
  0
CLASS
  1
RASTERVARIABLES
  2
AcDbRasterVariables
  3
ISM
 90
0
 91
0
280
0
281
0
  0
CLASS
  1
ACDBPLACEHOLDER
  2
AcDbPlaceHolder
  3
ObjectDBX Classes
 90
0
 91
0
280
0
281
0
  0
CLASS
  1
LAYOUT
  2
AcDbLayout
  3
ObjectDBX Classes
 90
0
 91
0
280
0
281
0
  0
ENDSEC
  0
SECTION
  2
TABLES
  0
TABLE
  2
VPORT
  5
8
330
0
100
AcDbSymbolTable
 70
1
  0
VPORT
  5
23
330
8
100
AcDbSymbolTableRecord
100
AcDbViewportTableRecord
  2
*Active
 70
0
 10
0.0
 20
0.0
 11
1.0
 21
1.0
 12
0.0
 22
0.0
 13
0.0
 23
0.0
 14
0.5
 24
0.5
 15
0.5
 25
0.5
 16
0.0
 26
0.0
 36
1.0
 17
0.0
 27
0.0
 37
0.0
 40
1000.0
 41
1.34
 42
50.0
 43
0.0
 44
0.0
 50
0.0
 51
0.0
 71
0
 72
1000
 73
1
 74
3
 75
0
 76
0
 77
0
 78
0
281
0
 65
0
146
0.0
  0
ENDTAB
  0
TABLE
  2
LTYPE
  5
2
330
0
100
AcDbSymbolTable
 70
3
  0
LTYPE
  5
24
330
2
100
AcDbSymbolTableRecord
100
AcDbLinetypeTableRecord
  2
ByBlock
 70
0
  3

 72
65
 73
0
 40
0.0
  0
LTYPE
  5
25
330
2
100
AcDbSymbolTableRecord
100
AcDbLinetypeTableRecord
  2
ByLayer
 70
0
  3

 72
65
 73
0
 40
0.0
  0
LTYPE
  5
26
330
2
100
AcDbSymbolTableRecord
100
AcDbLinetypeTableRecord
  2
Continuous
 70
0
  3

 72
65
 73
0
 40
0.0
  0
ENDTAB
  0
TABLE
  2
LAYER
  5
1
330
0
100
AcDbSymbolTable
 70
2
  0
LAYER
  5
27
330
1
100
AcDbSymbolTableRecord
100
AcDbLayerTableRecord
  2
0
 70
0
 62
7
  6
Continuous
370
-3
390
13
347
21
  0
LAYER
  5
28
330
1
100
AcDbSymbolTableRecord
100
AcDbLayerTableRecord
  2
Defpoints
 70
0
 62
7
  6
Continuous
290
0
370
-3
390
13
347
21
  0
ENDTAB
  0
TABLE
  2
STYLE
  5
5
330
0
100
AcDbSymbolTable
 70
1
  0
STYLE
  5
29
330
5
100
AcDbSymbolTableRecord
100
AcDbTextStyleTableRecord
  2
Standard
 70
0
 40
0.0
 41
1.0
 50
0.0
 71
0
 42
2.5
  3
txt
  4

  0
ENDTAB
  0
TABLE
  2
VIEW
  5
7
330
0
100
AcDbSymbolTable
 70
0
  0
ENDTAB
  0
TABLE
  2
UCS
  5
6
330
0
100
AcDbSymbolTable
 70
0
  0
ENDTAB
  0
TABLE
  2
APPID
  5
3
330
0
100
AcDbSymbolTable
 70
3
  0
APPID
  5
2A
330
3
100
AcDbSymbolTableRecord
100
AcDbRegAppTableRecord
  2
ACAD
 70
0
  0
APPID
  5
A8
330
3
100
AcDbSymbolTableRecord
100
AcDbRegAppTableRecord
  2
HATCHBACKGROUNDCOLOR
 70
0
  0
APPID
  5
A9
330
3
100
AcDbSymbolTableRecord
100
AcDbRegAppTableRecord
  2
EZDXF
 70
0
  0
ENDTAB
  0
TABLE
  2
DIMSTYLE
  5
4
330
0
100
AcDbSymbolTable
 70
1
100
AcDbDimStyleTable
  0
DIMSTYLE
105
2B
330
4
100
AcDbSymbolTableRecord
100
AcDbDimStyleTableRecord
  2
Standard
 70
0
 40
1.0
 41
2.5
 42
0.625
 43
3.75
 44
1.25
 45
0.0
 46
0.0
 47
0.0
 48
0.0
 49
2.5
140
2.5
141
2.5
142
0.0
143
0.03937007874
144
1.0
145
0.0
146
1.0
147
0.625
148
0.0
 69
0
 70
0
 71
0
 72
0
 73
0
 74
0
 75
0
 76
0
 77
1
 78
8
 79
3
170
0
171
3
172
1
173
0
174
0
175
0
176
0
177
0
178
0
179
2
271
2
272
2
273
2
274
3
275
0
276
0
277
2
278
44
279
0
280
0
281
0
282
0
283
0
284
8
285
0
286
0
288
0
289
3
290
0
371
-2
372
-2
  0
ENDTAB
  0
TABLE
  2
BLOCK_RECORD
  5
9
330
0
100
AcDbSymbolTable
 70
9
  0
BLOCK_RECORD
  5
17
330
9
100
AcDbSymbolTableRecord
100
AcDbBlockTableRecord
  2
*Model_Space
340
1A
 70
0
280
1
281
0
  0
BLOCK_RECORD
  5
1B
330
9
100
AcDbSymbolTableRecord
100
AcDbBlockTableRecord
  2
*Paper_Space
340
1E
 70
0
280
1
281
0
  0
BLOCK_RECORD
  5
39
330
9
100
AcDbSymbolTableRecord
100
AcDbBlockTableRecord
  2
*D1
340
0
 70
0
280
1
281
0
  0
BLOCK_RECORD
  5
3E
330
9
100
AcDbSymbolTableRecord
100
AcDbBlockTableRecord
  2
_CLOSEDFILLED
340
0
 70
0
280
1
281
0
  0
BLOCK_RECORD
  5
55
330
9
100
AcDbSymbolTableRecord
100
AcDbBlockTableRecord
  2
B0
340
0
 70
0
280
1
281
0
  0
BLOCK_RECORD
  5
63
330
9
100
AcDbSymbolTableRecord
100
AcDbBlockTableRecord
  2
B1
340
0
 70
0
280
1
281
0
  0
BLOCK_RECORD
  5
69
330
9
100
AcDbSymbolTableRecord
100
AcDbBlockTableRecord
  2
*D2
340
0
 70
0
280
1
281
0
  0
BLOCK_RECORD
  5
7F
330
9
100
AcDbSymbolTableRecord
100
AcDbBlockTableRecord
  2
B2
340
0
 70
0
280
1
281
0
  0
BLOCK_RECORD
  5
86
330
9
100
AcDbSymbolTableRecord
100
AcDbBlockTableRecord
  2
*D3
340
0
 70
0
280
1
281
0
  0
ENDTAB
  0
ENDSEC
  0
SECTION
  2
BLOCKS
  0
BLOCK
  5
18
330
17
100
AcDbEntity
  8
0
100
AcDbBlockBegin
  2
*Model_Space
 70
0
 10
0.0
 20
0.0
 30
0.0
  3
*Model_Space
  1

  0
ENDBLK
  5
19
330
17
100
AcDbEntity
  8
0
100
AcDbBlockEnd
  0
BLOCK
  5
1C
330
1B
100
AcDbEntity
  8
0
100
AcDbBlockBegin
  2
*Paper_Space
 70
0
 10
0.0
 20
0.0
 30
0.0
  3
*Paper_Space
  1

  0
ENDBLK
  5
1D
330
1B
100
AcDbEntity
  8
0
100
AcDbBlockEnd
  0
BLOCK
  5
3A
330
39
100
AcDbEntity
  8
0
100
AcDbBlockBegin
  2
*D1
 70
1
 10
0.0
 20
0.0
 30
0.0
  3
*D1
  1

  0
LINE
  5
3C
330
39
100
AcDbEntity
  8
0
100
AcDbLine
 10
5.12218902838444
 20
-20.357046758276176
 30
0.0
 11
2.957125518923344
 21
-16.607046758276176
 31
0.0
  0
LINE
  5
3D
330
39
100
AcDbEntity
  8
0
100
AcDbLine
 10
13.883892010176863
 20
-20.357046758276176
 30
0.0
 11
9.528402755267663
 21
-12.813118076953124
 31
0.0
  0
INSERT
  5
42
330
39
100
AcDbEntity
  8
0
100
AcDbBlockReference
  2
_CLOSEDFILLED
 10
2.957125518923344
 20
-16.607046758276176
 30
0.0
 41
0.25
 42
0.25
 50
210.0
  0
INSERT
  5
44
330
39
100
AcDbEntity
  8
0
100
AcDbBlockReference
  2
_CLOSEDFILLED
 10
9.528402755267663
 20
-12.813118076953124
 30
0.0
 41
0.25
 42
0.25
 50
30.0
  0
LINE
  5
46
330
39
100
AcDbEntity
  8
0
100
AcDbLine
 10
3.1736318698694537
 20
-16.482046758276176
 30
0.0
 11
4.510713329526626
 21
-15.71008241761465
 31
0.0
  0
LINE
  5
47
330
39
100
AcDbEntity
  8
0
100
AcDbLine
 10
7.974814944664383
 20
-13.71008241761465
 30
0.0
 11
9.311896404321553
 21
-12.938118076953124
 31
0.0
  0
MTEXT
  5
48
330
39
100
AcDbEntity
  8
0
100
AcDbMText
 10
6.242764137095504
 20
-14.71008241761465
 30
0.0
 40
1.0
 71
5
  1
7,59
 50
30.0
  0
POINT
  5
49
330
39
100
AcDbEntity
  8
Defpoints
100
AcDbPoint
 10
2.957125518923344
 20
-16.607046758276176
 30
0.0
  0
POINT
  5
4A
330
39
100
AcDbEntity
  8
Defpoints
100
AcDbPoint
 10
5.12218902838444
 20
-20.357046758276176
 30
0.0
  0
POINT
  5
4B
330
39
100
AcDbEntity
  8
Defpoints
100
AcDbPoint
 10
13.883892010176863
 20
-20.357046758276176
 30
0.0
  0
ENDBLK
  5
3B
330
39
100
AcDbEntity
  8
0
100
AcDbBlockEnd
  0
BLOCK
  5
3F
330
3E
100
AcDbEntity
  8
0
100
AcDbBlockBegin
  2
_CLOSEDFILLED
 70
0
 10
0.0
 20
0.0
 30
0.0
  3
_CLOSEDFILLED
  1

  0
SOLID
  5
41
330
3E
100
AcDbEntity
  8
0
  6
BYBLOCK
 62
0
100
AcDbTrace
 10
-1.0
 20
0.16439898372402537
 30
0.0
 11
0.0
 21
0.0
 31
0.0
 12
-1.0
 22
-0.16439898372402537
 32
0.0
 13
-1.0
 23
-0.16439898372402537
 33
0.0
  0
ENDBLK
  5
40
330
3E
100
AcDbEntity
  8
0
100
AcDbBlockEnd
  0
BLOCK
  5
56
330
55
100
AcDbEntity
  8
0
100
AcDbBlockBegin
  2
B0
 70
0
 10
-0.10802666877454126
 20
-4.400935615300201
 30
0.0
  3
B0
  1

  0
MTEXT
  5
58
330
55
100
AcDbEntity
  8
0
100
AcDbMText
 10
-8.262231087924235
 20
-1.5449305902921466
 30
0.0
 40
2.5
 71
1
  1
M5\P{\H2;x}
 50
79.09564774809192
  0
POLYLINE
  5
59
330
55
100
AcDbEntity
  8
0
100
AcDb2dPolyline
 66
1
 10
0.0
 20
0.0
 30
0.0
 70
0
  0
VERTEX
  5
5B
330
55
100
AcDbEntity
  8
0
100
AcDbVertex
100
AcDb2dVertex
 10
-20.857227059909942
 20
0.30022469371886373
 30
0.0
 42
-0.936078925593484
 70
0
  0
VERTEX
  5
5C
330
55
100
AcDbEntity
  8
0
100
AcDbVertex
100
AcDb2dVertex
 10
21.55909033153582
 20
-27.61757496805728
 30
0.0
 42
0.9750713796401513
 70
0
  0
VERTEX
  5
5D
330
55
100
AcDbEntity
  8
0
100
AcDbVertex
100
AcDb2dVertex
 10
8.046819239548078
 20
-19.83937333557979
 30
0.0
 42
-0.31063281346977667
 70
0
  0
VERTEX
  5
5E
330
55
100
AcDbEntity
  8
0
100
AcDbVertex
100
AcDb2dVertex
 10
21.14738121319465
 20
-2.1624051538288604
 30
0.0
 42
-0.5568451829408569
 70
0
  0
SEQEND
  5
5A
330
59
100
AcDbEntity
  8
0
  0
MTEXT
  5
5F
330
55
100
AcDbEntity
  8
0
100
AcDbMText
 10
38.18793856498752
 20
-35.97167857682637
 30
0.0
 40
2.5
 71
1
  1
M3\P{\H2;x}
 50
76.99021438411589
  0
LINE
  5
60
330
55
100
AcDbEntity
  8
0
100
AcDbLine
 10
-19.72908531923632
 20
-6.570298089903659
 30
0.0
 11
-48.79340544848193
 21
-9.38526152491822
 31
0.07987019668298867
  0
LINE
  5
61
330
55
100
AcDbEntity
  8
0
100
AcDbLine
 10
-43.354648773238026
 20
-17.49375981118294
 30
0.0
 11
-45.23374822872557
 21
-41.84293953768411
 31
-2.1899529545018783
  0
CIRCLE
  5
62
330
55
100
AcDbEntity
  8
0
100
AcDbCircle
 10
-21.489507621985226
 20
-18.080647998426038
 30
0.0
 40
10.69663724781534
  0
ENDBLK
  5
57
330
55
100
AcDbEntity
  8
0
100
AcDbBlockEnd
  0
BLOCK
  5
64
330
63
100
AcDbEntity
  8
0
100
AcDbBlockBegin
  2
B1
 70
0
 10
-0.29821681662526434
 20
0.5256241911000767
 30
0.0
  3
B1
  1

  0
LWPOLYLINE
  5
66
330
63
100
AcDbEntity
  8
0
100
AcDbPolyline
 90
2
 70
1
 10
14.920961628571114
 20
-27.02050285944472
 10
-29.9560411961101
 20
22.23892331857448
 42
-1.6816867736917982
  0
HATCH
  5
67
330
63
100
AcDbEntity
  8
0
 62
7
100
AcDbHatch
 10
0.0
 20
0.0
 30
0.0
210
0.0
220
0.0
230
1.0
  2
SOLID
 70
1
 71
0
 91
1
 92
3
 72
0
 73
1
 93
3
 10
8.597180052263134
 20
12.814094124432927
 10
10.097180052263134
 20
12.814094124432927
 10
10.097180052263134
 20
13.814094124432927
 97
0
 75
0
 76
1
 98
0
  0
DIMENSION
  5
68
330
63
100
AcDbEntity
  8
0
100
AcDbDimension
280
0
  2
*D2
  3
Standard
 10
-3.846087271532639
 20
35.91152906715365
 30
0.0
 11
6.073402308817062
 21
35.91152906715365
 31
0.0
 70
32
 71
5
  1
<>
100
AcDbAlignedDimension
 13
-3.846087271532639
 23
30.91152906715365
 33
0.0
 14
15.992891889166764
 24
30.91152906715365
 34
0.0
 50
0.0
100
AcDbRotatedDimension
  0
POLYLINE
  5
78
330
63
100
AcDbEntity
  8
0
100
AcDb3dPolyline
 66
1
 10
0.0
 20
0.0
 30
0.0
 70
9
  0
VERTEX
  5
7A
330
63
100
AcDbEntity
  8
0
100
AcDbVertex
100
AcDb3dPolylineVertex
 10
-23.718341521772036
 20
-49.792683567115915
 30
0.0
 70
32
  0
VERTEX
  5
7B
330
63
100
AcDbEntity
  8
0
100
AcDbVertex
100
AcDb3dPolylineVertex
 10
-20.718341521772036
 20
-48.792683567115915
 30
2.0
 70
32
  0
VERTEX
  5
7C
330
63
100
AcDbEntity
  8
0
100
AcDbVertex
100
AcDb3dPolylineVertex
 10
-18.718341521772036
 20
-51.792683567115915
 30
-1.0
 70
32
  0
SEQEND
  5
79
330
78
100
AcDbEntity
  8
0
  0
INSERT
  5
7D
330
63
100
AcDbEntity
  8
0
100
AcDbBlockReference
  2
B0
 10
2.267707096707042
 20
6.942242730401178
 30
0.0
 41
0.5
 42
3.0
 50
102.53027633181658
  0
ENDBLK
  5
65
330
63
100
AcDbEntity
  8
0
100
AcDbBlockEnd
  0
BLOCK
  5
6A
330
69
100
AcDbEntity
  8
0
100
AcDbBlockBegin
  2
*D2
 70
1
 10
0.0
 20
0.0
 30
0.0
  3
*D2
  1

  0
LINE
  5
6C
330
69
100
AcDbEntity
  8
0
100
AcDbLine
 10
-3.846087271532639
 20
30.91152906715365
 30
0.0
 11
-3.846087271532639
 21
35.91152906715365
 31
0.0
  0
LINE
  5
6D
330
69
100
AcDbEntity
  8
0
100
AcDbLine
 10
15.992891889166764
 20
30.91152906715365
 30
0.0
 11
15.992891889166764
 21
35.91152906715365
 31
0.0
  0
INSERT
  5
6E
330
69
100
AcDbEntity
  8
0
100
AcDbBlockReference
  2
_CLOSEDFILLED
 10
-3.846087271532639
 20
35.91152906715365
 30
0.0
 41
0.25
 42
0.25
 50
180.0
  0
INSERT
  5
70
330
69
100
AcDbEntity
  8
0
100
AcDbBlockReference
  2
_CLOSEDFILLED
 10
15.992891889166764
 20
35.91152906715365
 30
0.0
 41
0.25
 42
0.25
  0
LINE
  5
72
330
69
100
AcDbEntity
  8
0
100
AcDbLine
 10
-3.596087271532639
 20
35.91152906715365
 30
0.0
 11
3.5734023088170623
 21
35.91152906715365
 31
0.0
  0
LINE
  5
73
330
69
100
AcDbEntity
  8
0
100
AcDbLine
 10
8.573402308817062
 20
35.91152906715365
 30
0.0
 11
15.742891889166764
 21
35.91152906715365
 31
0.0
  0
MTEXT
  5
74
330
69
100
AcDbEntity
  8
0
100
AcDbMText
 10
6.073402308817062
 20
35.91152906715365
 30
0.0
 40
1.0
 71
5
  1
19,84
  0
POINT
  5
75
330
69
100
AcDbEntity
  8
Defpoints
100
AcDbPoint
 10
-3.846087271532639
 20
35.91152906715365
 30
0.0
  0
POINT
  5
76
330
69
100
AcDbEntity
  8
Defpoints
100
AcDbPoint
 10
-3.846087271532639
 20
30.91152906715365
 30
0.0
  0
POINT
  5
77
330
69
100
AcDbEntity
  8
Defpoints
100
AcDbPoint
 10
15.992891889166764
 20
30.91152906715365
 30
0.0
  0
ENDBLK
  5
6B
330
69
100
AcDbEntity
  8
0
100
AcDbBlockEnd
  0
BLOCK
  5
80
330
7F
100
AcDbEntity
  8
0
100
AcDbBlockBegin
  2
B2
 70
0
 10
-2.1850467574779486
 20
-4.994991275510437
 30
0.0
  3
B2
  1

  0
HATCH
  5
82
330
7F
100
AcDbEntity
  8
0
 62
7
100
AcDbHatch
 10
0.0
 20
0.0
 30
0.0
210
0.0
220
0.0
230
1.0
  2
SOLID
 70
1
 71
0
 91
1
 92
3
 72
0
 73
1
 93
3
 10
29.629294986624885
 20
-20.151789675251674
 10
31.129294986624885
 20
-20.151789675251674
 10
31.129294986624885
 20
-19.151789675251674
 97
0
 75
0
 76
1
 98
0
  0
LINE
  5
83
330
7F
100
AcDbEntity
  8
0
100
AcDbLine
 10
21.676091623448528
 20
23.626949403953873
 30
0.0
 11
-12.837131203534199
 21
22.870157232587047
 31
0.8609291796878411
  0
ARC
  5
84
330
7F
100
AcDbEntity
  8
0
100
AcDbCircle
 10
-19.962455137467806
 20
7.399586557053354
 30
0.0
 40
17.035583281516317
210
0.29095791252157266
220
0.9151124916161768
230
0.23182102175400018
100
AcDbArc
 50
-262.21189912357227
 51
233.094323572735
  0
DIMENSION
  5
85
330
7F
100
AcDbEntity
  8
0
100
AcDbDimension
280
0
  2
*D3
  3
Standard
 10
31.94298718957272
 20
53.59650325502555
 30
0.0
 11
39.34769837023794
 21
53.59650325502555
 31
0.0
 70
32
 71
5
  1
<>
100
AcDbAlignedDimension
 13
31.94298718957272
 23
48.59650325502555
 33
0.0
 14
46.75240955090317
 24
48.59650325502555
 34
0.0
 50
0.0
100
AcDbRotatedDimension
  0
LINE
  5
95
330
7F
100
AcDbEntity
  8
0
100
AcDbLine
 10
23.7694352855177
 20
9.89431836333965
 30
0.0
 11
30.626382891454426
 21
-36.80961458888585
 31
-0.337364777169082
  0
SOLID
  5
96
330
7F
100
AcDbEntity
  8
0
100
AcDbTrace
 10
-34.83246280305755
 20
13.780471301402585
 30
0.0
 11
-33.83246280305755
 21
13.780471301402585
 31
0.0
 12
-34.83246280305755
 22
14.480471301402584
 32
0.0
 13
-33.63246280305755
 23
14.780471301402585
 33
0.0
  0
SOLID
  5
97
330
7F
100
AcDbEntity
  8
0
100
AcDbTrace
 10
12.25526269796844
 20
39.34967356758763
 30
0.0
 11
13.25526269796844
 21
39.34967356758763
 31
0.0
 12
12.25526269796844
 22
40.04967356758763
 32
0.0
 13
13.45526269796844
 23
40.34967356758763
 33
0.0
210
0.01
220
0.005
230
1.0
  0
POLYLINE
  5
98
330
7F
100
AcDbEntity
  8
0
100
AcDb3dPolyline
 66
1
 10
0.0
 20
0.0
 30
0.0
 70
9
  0
VERTEX
  5
9A
330
7F
100
AcDbEntity
  8
0
100
AcDbVertex
100
AcDb3dPolylineVertex
 10
-40.647988764283504
 20
-22.69803090204746
 30
0.0
 70
32
  0
VERTEX
  5
9B
330
7F
100
AcDbEntity
  8
0
100
AcDbVertex
100
AcDb3dPolylineVertex
 10
-37.647988764283504
 20
-21.69803090204746
 30
2.0
 70
32
  0
VERTEX
  5
9C
330
7F
100
AcDbEntity
  8
0
100
AcDbVertex
100
AcDb3dPolylineVertex
 10
-35.647988764283504
 20
-24.69803090204746
 30
-1.0
 70
32
  0
SEQEND
  5
99
330
98
100
AcDbEntity
  8
0
  0
MTEXT
  5
9D
330
7F
100
AcDbEntity
  8
0
100
AcDbMText
 10
-10.365455772495878
 20
-13.870683972747145
 30
0.0
 40
2.5
 71
1
  1
M5\P{\H2;x}
 50
87.268098106191
  0
INSERT
  5
9E
330
7F
100
AcDbEntity
  8
0
100
AcDbBlockReference
  2
B1
 10
-7.096929646235229
 20
-1.4427652425827358
 30
0.0
 41
0.5
 42
3.0
 50
71.56925430761493
  0
ENDBLK
  5
81
330
7F
100
AcDbEntity
  8
0
100
AcDbBlockEnd
  0
BLOCK
  5
87
330
86
100
AcDbEntity
  8
0
100
AcDbBlockBegin
  2
*D3
 70
1
 10
0.0
 20
0.0
 30
0.0
  3
*D3
  1

  0
LINE
  5
89
330
86
100
AcDbEntity
  8
0
100
AcDbLine
 10
31.94298718957272
 20
48.59650325502555
 30
0.0
 11
31.94298718957272
 21
53.59650325502555
 31
0.0
  0
LINE
  5
8A
330
86
100
AcDbEntity
  8
0
100
AcDbLine
 10
46.75240955090317
 20
48.59650325502555
 30
0.0
 11
46.75240955090317
 21
53.59650325502555
 31
0.0
  0
INSERT
  5
8B
330
86
100
AcDbEntity
  8
0
100
AcDbBlockReference
  2
_CLOSEDFILLED
 10
31.94298718957272
 20
53.59650325502555
 30
0.0
 41
0.25
 42
0.25
 50
180.0
  0
INSERT
  5
8D
330
86
100
AcDbEntity
  8
0
100
AcDbBlockReference
  2
_CLOSEDFILLED
 10
46.75240955090317
 20
53.59650325502555
 30
0.0
 41
0.25
 42
0.25
  0
LINE
  5
8F
330
86
100
AcDbEntity
  8
0
100
AcDbLine
 10
32.19298718957272
 20
53.59650325502555
 30
0.0
 11
36.84769837023794
 21
53.59650325502555
 31
0.0
  0
LINE
  5
90
330
86
100
AcDbEntity
  8
0
100
AcDbLine
 10
41.84769837023794
 20
53.59650325502555
 30
0.0
 11
46.50240955090317
 21
53.59650325502555
 31
0.0
  0
MTEXT
  5
91
330
86
100
AcDbEntity
  8
0
100
AcDbMText
 10
39.34769837023794
 20
53.59650325502555
 30
0.0
 40
1.0
 71
5
  1
14,81
  0
POINT
  5
92
330
86
100
AcDbEntity
  8
Defpoints
100
AcDbPoint
 10
31.94298718957272
 20
53.59650325502555
 30
0.0
  0
POINT
  5
93
330
86
100
AcDbEntity
  8
Defpoints
100
AcDbPoint
 10
31.94298718957272
 20
48.59650325502555
 30
0.0
  0
POINT
  5
94
330
86
100
AcDbEntity
  8
Defpoints
100
AcDbPoint
 10
46.75240955090317
 20
48.59650325502555
 30
0.0
  0
ENDBLK
  5
88
330
86
100
AcDbEntity
  8
0
100
AcDbBlockEnd
  0
ENDSEC
  0
SECTION
  2
ENTITIES
  0
LINE
  5
2F
330
17
100
AcDbEntity
  8
0
100
AcDbLine
 10
3.131396711932055
 20
-29.255434685376702
 30
0.0
 11
13.41763617469308
 21
-2.370117433298347
 31
-2.95053072693164
  0
MTEXT
  5
30
330
17
100
AcDbEntity
  8
0
100
AcDbMText
 10
-24.30949054841891
 20
-46.32187347576853
 30
0.0
 40
2.5
 71
1
  1
M3\P{\H2;x}
 50
76.07974297980122
  0
SPLINE
  5
31
330
17
100
AcDbEntity
  8
0
100
AcDbSpline
 70
0
 71
3
 72
9
 73
5
 74
0
 40
0.0
 40
0.0
 40
0.0
 40
0.0
 40
1.0
 40
2.0
 40
2.0
 40
2.0
 40
2.0
 10
-4.242755981247534
 20
16.044972863067777
 30
0.0
 10
13.044712000752519
 20
-29.533436424627595
 30
0.0
 10
23.881549391407233
 20
0.9360791056825626
 30
0.0
 10
-11.166792790615997
 20
12.89161728144056
 30
0.0
 10
25.110796361630193
 20
-0.4247828399213809
 30
0.0
  0
HATCH
  5
32
330
17
100
AcDbEntity
  8
0
 62
7
100
AcDbHatch
 10
0.0
 20
0.0
 30
0.0
210
0.0
220
0.0
230
1.0
  2
SOLID
 70
1
 71
0
 91
1
 92
1
 93
3
 72
1
 10
17.170809434382363
 20
40.26521775959027
 11
19.170809434382363
 21
40.26521775959027
 72
2
 10
19.170809434382363
 20
41.26521775959027
 40
1
 50
-90
 51
90
 73
1
 72
3
 10
17.170809434382363
 20
41.26521775959027
 11
0.0
 21
1.0
 40
0.8775702223205815
 50
90
 51
270
 73
1
 97
0
 75
0
 76
1
 98
0
  0
POLYLINE
  5
33
330
17
100
AcDbEntity
  8
0
100
AcDb3dPolyline
 66
1
 10
0.0
 20
0.0
 30
0.0
 70
9
  0
VERTEX
  5
35
330
17
100
AcDbEntity
  8
0
100
AcDbVertex
100
AcDb3dPolylineVertex
 10
-1.2005491011536122
 20
36.01870923826243
 30
0.0
 70
32
  0
VERTEX
  5
36
330
17
100
AcDbEntity
  8
0
100
AcDbVertex
100
AcDb3dPolylineVertex
 10
1.7994508988463878
 20
37.01870923826243
 30
2.0
 70
32
  0
VERTEX
  5
37
330
17
100
AcDbEntity
  8
0
100
AcDbVertex
100
AcDb3dPolylineVertex
 10
3.7994508988463878
 20
34.01870923826243
 30
-1.0
 70
32
  0
SEQEND
  5
34
330
33
100
AcDbEntity
  8
0
  0
DIMENSION
  5
38
330
17
100
AcDbEntity
  8
0
100
AcDbDimension
280
0
  2
*D1
  3
Standard
 10
2.957125518923344
 20
-16.607046758276176
 30
0.0
 11
6.242764137095504
 21
-14.71008241761465
 31
0.0
 70
32
 71
5
  1
<>
100
AcDbAlignedDimension
 13
5.12218902838444
 23
-20.357046758276176
 33
0.0
 14
13.883892010176863
 24
-20.357046758276176
 34
0.0
 50
30.0
100
AcDbRotatedDimension
  0
LINE
  5
4C
330
17
100
AcDbEntity
  8
0
100
AcDbLine
 10
34.38365831467557
 20
41.571088338792734
 30
0.0
 11
-31.985525175048746
 21
-28.969276542655066
 31
2.383317265785733
  0
POLYLINE
  5
4D
330
17
100
AcDbEntity
  8
0
100
AcDb2dPolyline
 66
1
 10
0.0
 20
0.0
 30
0.0
 70
1
  0
VERTEX
  5
4F
330
17
100
AcDbEntity
  8
0
100
AcDbVertex
100
AcDb2dVertex
 10
17.24105039124388
 20
-1.896931877838739
 30
0.0
 42
0.18180246002945344
 70
0
  0
VERTEX
  5
50
330
17
100
AcDbEntity
  8
0
100
AcDbVertex
100
AcDb2dVertex
 10
-18.493455052689107
 20
-29.679366556476985
 30
0.0
 42
-0.053125799606682955
 70
0
  0
VERTEX
  5
51
330
17
100
AcDbEntity
  8
0
100
AcDbVertex
100
AcDb2dVertex
 10
13.134642878775281
 20
-28.994404059480164
 30
0.0
 70
0
  0
VERTEX
  5
52
330
17
100
AcDbEntity
  8
0
100
AcDbVertex
100
AcDb2dVertex
 10
12.246151781233124
 20
6.295379063169058
 30
0.0
 70
0
  0
VERTEX
  5
53
330
17
100
AcDbEntity
  8
0
100
AcDbVertex
100
AcDb2dVertex
 10
-25.830351558448854
 20
-8.53027742558853
 30
0.0
 42
-0.9925969266085906
 70
0
  0
SEQEND
  5
4E
330
4D
100
AcDbEntity
  8
0
  0
ARC
  5
54
330
17
100
AcDbEntity
  8
0
100
AcDbCircle
 10
-36.33447166801663
 20
8.776067655469234
 30
0.0
 40
14.674762296731021
210
0.91861999215191
220
-0.1708195023910255
230
0.3262629372867507
100
AcDbArc
 50
126.82747324565241
 51
221.11473412386306
  0
INSERT
  5
A0
330
17
100
AcDbEntity
  8
0
100
AcDbBlockReference
  2
B1
 10
40.67577498326321
 20
-28.605067331592267
 30
0.0
 41
2.0
 42
2.0
 50
194.26884352527338
  0
INSERT
  5
A2
330
17
100
AcDbEntity
  8
0
100
AcDbBlockReference
  2
B2
 10
-48.6674005016291
 20
-43.3687442418225
 30
0.0
 42
0.5
 50
150.0117587715307
  0
INSERT
  5
A4
330
17
100
AcDbEntity
  8
0
100
AcDbBlockReference
  2
B1
 10
-51.658396021245125
 20
21.415381849961648
 30
0.0
 41
-1.0
 42
0.5
 50
194.72051775292164
  0
INSERT
  5
A6
330
17
100
AcDbEntity
  8
0
100
AcDbBlockReference
  2
B1
 10
63.95930969654975
 20
-73.74154693037839
 30
0.0
 41
1.5
 42
1.5
 50
87.80626492215855
  0
ENDSEC
  0
SECTION
  2
OBJECTS
  0
DICTIONARY
  5
A
330
0
100
AcDbDictionary
281
1
  3
ACAD_COLOR
350
B
  3
ACAD_GROUP
350
C
  3
ACAD_LAYOUT
350
D
  3
ACAD_MATERIAL
350
E
  3
ACAD_MLEADERSTYLE
350
F
  3
ACAD_MLINESTYLE
350
10
  3
ACAD_PLOTSETTINGS
350
11
  3
ACAD_PLOTSTYLENAME
350
12
  3
ACAD_SCALELIST
350
14
  3
ACAD_TABLESTYLE
350
15
  3
ACAD_VISUALSTYLE
350
16
  3
EZDXF_META
350
2D
  0
DICTIONARY
  5
B
330
A
100
AcDbDictionary
281
1
  0
DICTIONARY
  5
C
330
A
100
AcDbDictionary
281
1
  0
DICTIONARY
  5
D
330
A
100
AcDbDictionary
281
1
  3
Model
350
1A
  3
Layout1
350
1E
  0
DICTIONARY
  5
E
330
A
100
AcDbDictionary
281
1
  3
ByBlock
350
1F
  3
ByLayer
350
20
  3
Global
350
21
  0
DICTIONARY
  5
F
330
A
100
AcDbDictionary
281
1
  3
Standard
350
2C
  0
DICTIONARY
  5
10
330
A
100
AcDbDictionary
281
1
  3
Standard
350
22
  0
DICTIONARY
  5
11
330
A
100
AcDbDictionary
281
1
  0
ACDBDICTIONARYWDFLT
  5
12
330
A
100
AcDbDictionary
281
1
  3
Normal
350
13
100
AcDbDictionaryWithDefault
340
13
  0
ACDBPLACEHOLDER
  5
13
330
12
  0
DICTIONARY
  5
14
330
A
100
AcDbDictionary
281
1
  0
DICTIONARY
  5
15
330
A
100
AcDbDictionary
281
1
  0
DICTIONARY
  5
16
330
A
100
AcDbDictionary
281
1
  0
LAYOUT
  5
1A
330
D
100
AcDbPlotSettings
  1

  4
A3
  6

 40
7.5
 41
20.0
 42
7.5
 43
20.0
 44
420.0
 45
297.0
 46
0.0
 47
0.0
 48
0.0
 49
0.0
140
0.0
141
0.0
142
1.0
143
1.0
 70
1024
 72
1
 73
0
 74
5
  7

 75
16
 76
0
 77
2
 78
300
147
1.0
148
0.0
149
0.0
100
AcDbLayout
  1
Model
 70
1
 71
0
 10
0.0
 20
0.0
 11
420.0
 21
297.0
 12
0.0
 22
0.0
 32
0.0
 14
1e+20
 24
1e+20
 34
1e+20
 15
-1e+20
 25
-1e+20
 35
-1e+20
146
0.0
 13
0.0
 23
0.0
 33
0.0
 16
1.0
 26
0.0
 36
0.0
 17
0.0
 27
1.0
 37
0.0
 76
1
330
17
  0
LAYOUT
  5
1E
330
D
100
AcDbPlotSettings
  1

  4
A3
  6

 40
7.5
 41
20.0
 42
7.5
 43
20.0
 44
420.0
 45
297.0
 46
0.0
 47
0.0
 48
0.0
 49
0.0
140
0.0
141
0.0
142
1.0
143
1.0
 70
0
 72
1
 73
0
 74
5
  7

 75
16
 76
0
 77
2
 78
300
147
1.0
148
0.0
149
0.0
100
AcDbLayout
  1
Layout1
 70
1
 71
1
 10
0.0
 20
0.0
 11
420.0
 21
297.0
 12
0.0
 22
0.0
 32
0.0
 14
1e+20
 24
1e+20
 34
1e+20
 15
-1e+20
 25
-1e+20
 35
-1e+20
146
0.0
 13
0.0
 23
0.0
 33
0.0
 16
1.0
 26
0.0
 36
0.0
 17
0.0
 27
1.0
 37
0.0
 76
1
330
1B
  0
MATERIAL
  5
1F
102
{ACAD_REACTORS
330
E
102
}
330
E
100
AcDbMaterial
  1
ByBlock
  2

 70
0
 40
1.0
 71
1
 41
1.0
 91
-1023410177
 42
1.0
 72
1
  3

 73
1
 74
1
 75
1
 44
0.5
 73
0
 45
1.0
 46
1.0
 77
1
  4

 78
1
 79
1
170
1
 48
1.0
171
1
  6

172
1
173
1
174
1
140
1.0
141
1.0
175
1
  7

176
1
177
1
178
1
143
1.0
179
1
  8

270
1
271
1
272
1
145
1.0
146
1.0
273
1
  9

274
1
275
1
276
1
 42
1.0
 72
1
  3

 73
1
 74
1
 75
1
 94
63
  0
MATERIAL
  5
20
102
{ACAD_REACTORS
330
E
102
}
330
E
100
AcDbMaterial
  1
ByLayer
  2

 70
0
 40
1.0
 71
1
 41
1.0
 91
-1023410177
 42
1.0
 72
1
  3

 73
1
 74
1
 75
1
 44
0.5
 73
0
 45
1.0
 46
1.0
 77
1
  4

 78
1
 79
1
170
1
 48
1.0
171
1
  6

172
1
173
1
174
1
140
1.0
141
1.0
175
1
  7

176
1
177
1
178
1
143
1.0
179
1
  8

270
1
271
1
272
1
145
1.0
146
1.0
273
1
  9

274
1
275
1
276
1
 42
1.0
 72
1
  3

 73
1
 74
1
 75
1
 94
63
  0
MATERIAL
  5
21
102
{ACAD_REACTORS
330
E
102
}
330
E
100
AcDbMaterial
  1
Global
  2

 70
0
 40
1.0
 71
1
 41
1.0
 91
-1023410177
 42
1.0
 72
1
  3

 73
1
 74
1
 75
1
 44
0.5
 73
0
 45
1.0
 46
1.0
 77
1
  4

 78
1
 79
1
170
1
 48
1.0
171
1
  6

172
1
173
1
174
1
140
1.0
141
1.0
175
1
  7

176
1
177
1
178
1
143
1.0
179
1
  8

270
1
271
1
272
1
145
1.0
146
1.0
273
1
  9

274
1
275
1
276
1
 42
1.0
 72
1
  3

 73
1
 74
1
 75
1
 94
63
  0
MLINESTYLE
  5
22
102
{ACAD_REACTORS
330
10
102
}
330
10
100
AcDbMlineStyle
  2
Standard
 70
0
  3

 62
256
 51
90.0
 52
90.0
 71
2
 49
0.5
 62
256
  6
BYLAYER
 49
-0.5
 62
256
  6
BYLAYER
  0
MLEADERSTYLE
  5
2C
102
{ACAD_REACTORS
330
F
102
}
330
F
100
AcDbMLeaderStyle
179
2
170
2
171
1
172
0
 90
2
 40
0.0
 41
0.0
173
1
 91
-1056964608
 92
-2
290
1
 42
2.0
291
1
 43
8.0
  3
Standard
 44
4.0
300

342
29
174
1
175
1
176
0
178
1
 93
-1056964608
 45
4.0
292
0
297
0
 46
4.0
 94
-1056964608
 47
1.0
 49
1.0
140
1.0
294
1
141
0.0
177
0
142
1.0
295
0
296
0
143
3.75
271
0
272
9
273
9
  0
DICTIONARY
  5
2D
330
A
100
AcDbDictionary
280
1
281
1
  3
CREATED_BY_EZDXF
350
2E
  3
WRITTEN_BY_EZDXF
350
AA
  0
DICTIONARYVAR
  5
2E
330
2D
100
DictionaryVariables
280
0
  1
1.4.4 @ 2026-10-06T03:36:34.742017+00:00
  0
DICTIONARYVAR
  5
AA
330
2D
100
DictionaryVariables
280
0
  1
1.4.4 @ 2026-10-06T03:36:34.752202+00:00
  0
ENDSEC
  0
EOF
