  0
SECTION
  2
HEADER
  9
$ACADVER
  1
AC1032
  9
$ACADMAINTVER
 90
4
  9
$DWGCODEPAGE
  3
ANSI_1252
  9
$LASTSAVEDBY
  1
ezdxf
  9
$REQUIREDVERSIONS
160
0
  9
$INSBASE
 10
0.0
 20
0.0
 30
0.0
  9
$EXTMIN
 10
1e+20
 20
1e+20
 30
1e+20
  9
$EXTMAX
 10
-1e+20
 20
-1e+20
 30
-1e+20
  9
$LIMMIN
 10
0.0
 20
0.0
  9
$LIMMAX
 10
420.0
 20
297.0
  9
$ORTHOMODE
 70
0
  9
$REGENMODE
 70
1
  9
$FILLMODE
 70
1
  9
$QTEXTMODE
 70
0
  9
$MIRRTEXT
 70
1
  9
$LTSCALE
 40
1.0
  9
$ATTMODE
 70
1
  9
$TEXTSIZE
 40
2.5
  9
$TRACEWID
 40
1.0
  9
$TEXTSTYLE
  7
Standard
  9
$CLAYER
  8
0
  9
$CELTYPE
  6
ByLayer
  9
$CECOLOR
 62
256
  9
$CELTSCALE
 40
1.0
  9
$DISPSILH
 70
0
  9
$DIMSCALE
 40
1.0
  9
$DIMASZ
 40
2.5
  9
$DIMEXO
 40
0.625
  9
$DIMDLI
 40
3.75
  9
$DIMRND
 40
0.0
  9
$DIMDLE
 40
0.0
  9
$DIMEXE
 40
1.25
  9
$DIMTP
 40
0.0
  9
$DIMTM
 40
0.0
  9
$DIMTXT
 40
2.5
  9
$DIMCEN
 40
2.5
  9
$DIMTSZ
 40
0.0
  9
$DIMTOL
 70
0
  9
$DIMLIM
 70
0
  9
$DIMTIH
 70
0
  9
$DIMTOH
 70
0
  9
$DIMSE1
 70
0
  9
$DIMSE2
 70
0
  9
$DIMTAD
 70
1
  9
$DIMZIN
 70
8
  9
$DIMBLK
  1

  9
$DIMASO
 70
1
  9
$DIMSHO
 70
1
  9
$DIMPOST
  1

  9
$DIMAPOST
  1

  9
$DIMALT
 70
0
  9
$DIMALTD
 70
3
  9
$DIMALTF
 40
0.03937007874
  9
$DIMLFAC
 40
1.0
  9
$DIMTOFL
 70
1
  9
$DIMTVP
 40
0.0
  9
$DIMTIX
 70
0
  9
$DIMSOXD
 70
0
  9
$DIMSAH
 70
0
  9
$DIMBLK1
  1

  9
$DIMBLK2
  1

  9
$DIMSTYLE
  2
ISO-25
  9
$DIMCLRD
 70
0
  9
$DIMCLRE
 70
0
  9
$DIMCLRT
 70
0
  9
$DIMTFAC
 40
1.0
  9
$DIMGAP
 40
0.625
  9
$DIMJUST
 70
0
  9
$DIMSD1
 70
0
  9
$DIMSD2
 70
0
  9
$DIMTOLJ
 70
0
  9
$DIMTZIN
 70
8
  9
$DIMALTZ
 70
0
  9
$DIMALTTZ
 70
0
  9
$DIMUPT
 70
0
  9
$DIMDEC
 70
2
  9
$DIMTDEC
 70
2
  9
$DIMALTU
 70
2
  9
$DIMALTTD
 70
3
  9
$DIMTXSTY
  7
Standard
  9
$DIMAUNIT
 70
0
  9
$DIMADEC
 70
0
  9
$DIMALTRND
 40
0.0
  9
$DIMAZIN
 70
0
  9
$DIMDSEP
 70
44
  9
$DIMATFIT
 70
3
  9
$DIMFRAC
 70
0
  9
$DIMLDRBLK
  1

  9
$DIMLUNIT
 70
2
  9
$DIMLWD
 70
-2
  9
$DIMLWE
 70
-2
  9
$DIMTMOVE
 70
0
  9
$DIMFXL
 40
1.0
  9
$DIMFXLON
 70
0
  9
$DIMJOGANG
 40
0.785398163397
  9
$DIMTFILL
 70
0
  9
$DIMTFILLCLR
 70
0
  9
$DIMARCSYM
 70
0
  9
$DIMLTYPE
  6

  9
$DIMLTEX1
  6

  9
$DIMLTEX2
  6

  9
$DIMTXTDIRECTION
 70
0
  9
$LUNITS
 70
2
  9
$LUPREC
 70
4
  9
$SKETCHINC
 40
1.0
  9
$FILLETRAD
 40
10.0
  9
$AUNITS
 70
0
  9
$AUPREC
 70
2
  9
$MENU
  1
.
  9
$ELEVATION
 40
0.0
  9
$PELEVATION
 40
0.0
  9
$THICKNESS
 40
0.0
  9
$LIMCHECK
 70
0
  9
$CHAMFERA
 40
0.0
  9
$CHAMFERB
 40
0.0
  9
$CHAMFERC
 40
0.0
  9
$CHAMFERD
 40
0.0
  9
$SKPOLY
 70
0
  9
$TDCREATE
 40
2461320.4679050925
  9
$TDUCREATE
 40
2458532.153996898
  9
$TDUPDATE
 40
2461320.4679050925
  9
$TDUUPDATE
 40
2458532.1544311
  9
$TDINDWG
 40
0.0
  9
$TDUSRTIMER
 40
0.0
  9
$USRTIMER
 70
1
  9
$ANGBASE
 50
0.0
  9
$ANGDIR
 70
0
  9
$PDMODE
 70
0
  9
$PDSIZE
 40
0.0
  9
$PLINEWID
 40
0.0
  9
$SPLFRAME
 70
0
  9
$SPLINETYPE
 70
6
  9
$SPLINESEGS
 70
8
  9
$HANDSEED
  5
8C
  9
$SURFTAB1
 70
6
  9
$SURFTAB2
 70
6
  9
$SURFTYPE
 70
6
  9
$SURFU
 70
6
  9
$SURFV
 70
6
  9
$UCSBASE
  2

  9
$UCSNAME
  2

  9
$UCSORG
 10
0.0
 20
0.0
 30
0.0
  9
$UCSXDIR
 10
1.0
 20
0.0
 30
0.0
  9
$UCSYDIR
 10
0.0
 20
1.0
 30
0.0
  9
$UCSORTHOREF
  2

  9
$UCSORTHOVIEW
 70
0
  9
$UCSORGTOP
 10
0.0
 20
0.0
 30
0.0
  9
$UCSORGBOTTOM
 10
0.0
 20
0.0
 30
0.0
  9
$UCSORGLEFT
 10
0.0
 20
0.0
 30
0.0
  9
$UCSORGRIGHT
 10
0.0
 20
0.0
 30
0.0
  9
$UCSORGFRONT
 10
0.0
 20
0.0
 30
0.0
  9
$UCSORGBACK
 10
0.0
 20
0.0
 30
0.0
  9
$PUCSBASE
  2

  9
$PUCSNAME
  2

  9
$PUCSORG
 10
0.0
 20
0.0
 30
0.0
  9
$PUCSXDIR
 10
1.0
 20
0.0
 30
0.0
  9
$PUCSYDIR
 10
0.0
 20
1.0
 30
0.0
  9
$PUCSORTHOREF
  2

  9
$PUCSORTHOVIEW
 70
0
  9
$PUCSORGTOP
 10
0.0
 20
0.0
 30
0.0
  9
$PUCSORGBOTTOM
 10
0.0
 20
0.0
 30
0.0
  9
$PUCSORGLEFT
 10
0.0
 20
0.0
 30
0.0
  9
$PUCSORGRIGHT
 10
0.0
 20
0.0
 30
0.0
  9
$PUCSORGFRONT
 10
0.0
 20
0.0
 30
0.0
  9
$PUCSORGBACK
 10
0.0
 20
0.0
 30
0.0
  9
$USERI1
 70
0
  9
$USERI2
 70
0
  9
$USERI3
 70
0
  9
$USERI4
 70
0
  9
$USERI5
 70
0
  9
$USERR1
 40
0.0
  9
$USERR2
 40
0.0
  9
$USERR3
 40
0.0
  9
$USERR4
 40
0.0
  9
$USERR5
 40
0.0
  9
$WORLDVIEW
 70
1
  9
$SHADEDGE
 70
3
  9
$SHADEDIF
 70
70
  9
$TILEMODE
 70
1
  9
$MAXACTVP
 70
64
  9
$PINSBASE
 10
0.0
 20
0.0
 30
0.0
  9
$PLIMCHECK
 70
0
  9
$PEXTMIN
 10
1e+20
 20
1e+20
 30
1e+20
  9
$PEXTMAX
 10
-1e+20
 20
-1e+20
 30
-1e+20
  9
$PLIMMIN
 10
0.0
 20
0.0
  9
$PLIMMAX
 10
420.0
 20
297.0
  9
$UNITMODE
 70
0
  9
$VISRETAIN
 70
1
  9
$PLINEGEN
 70
0
  9
$PSLTSCALE
 70
1
  9
$TREEDEPTH
 70
3020
  9
$CMLSTYLE
  2
Standard
  9
$CMLJUST
 70
0
  9
$CMLSCALE
 40
20.0
  9
$PROXYGRAPHICS
 70
1
  9
$MEASUREMENT
 70
1
  9
$CELWEIGHT
370
-1
  9
$ENDCAPS
280
0
  9
$JOINSTYLE
280
0
  9
$LWDISPLAY
290
0
  9
$INSUNITS
 70
4
  9
$HYPERLINKBASE
  1

  9
$STYLESHEET
  1

  9
$XEDIT
290
1
  9
$CEPSNTYPE
380
0
  9
$PSTYLEMODE
290
1
  9
$FINGERPRINTGUID
  2
{A0B5AC76-14F2-4A95-A46C-F7DA1F37FD3B}
  9
$VERSIONGUID
  2
{750E061D-4B1B-4D65-A785-DC2A9426B196}
  9
$EXTNAMES
290
1
  9
$PSVPSCALE
 40
0.0
  9
$OLESTARTUP
290
0
  9
$SORTENTS
280
127
  9
$INDEXCTL
280
0
  9
$HIDETEXT
280
1
  9
$XCLIPFRAME
280
1
  9
$HALOGAP
280
0
  9
$OBSCOLOR
 70
257
  9
$OBSLTYPE
280
0
  9
$INTERSECTIONDISPLAY
280
0
  9
$INTERSECTIONCOLOR
 70
257
  9
$DIMASSOC
280
2
  9
$PROJECTNAME
  1

  9
$CAMERADISPLAY
290
0
  9
$LENSLENGTH
 40
50.0
  9
$CAMERAHEIGHT
 40
0.0
  9
$STEPSPERSEC
 40
24.0
  9
$STEPSIZE
 40
100.0
  9
$3DDWFPREC
 40
2.0
  9
$PSOLWIDTH
 40
0.005
  9
$PSOLHEIGHT
 40
0.08
  9
$LOFTANG1
 40
1.570796326795
  9
$LOFTANG2
 40
1.570796326795
  9
$LOFTMAG1
 40
0.0
  9
$LOFTMAG2
 40
0.0
  9
$LOFTPARAM
 70
7
  9
$LOFTNORMALS
280
1
  9
$LATITUDE
 40
37.795
  9
$LONGITUDE
 40
-122.394
  9
$NORTHDIRECTION
 40
0.0
  9
$TIMEZONE
 70
-8000
  9
$LIGHTGLYPHDISPLAY
280
1
  9
$TILEMODELIGHTSYNCH
280
1
  9
$CMATERIAL
347
20
  9
$SOLIDHIST
280
0
  9
$SHOWHIST
280
1
  9
$DWFFRAME
280
2
  9
$DGNFRAME
280
2
  9
$REALWORLDSCALE
290
1
  9
$INTERFERECOLOR
 62
256
  9
$CSHADOW
280
0
  9
$SHADOWPLANELOCATION
 40
0.0
  0
ENDSEC
  0
SECTION
  2
CLASSES
  0
CLASS
  1
ACDBDICTIONARYWDFLT
  2
AcDbDictionaryWithDefault
  3
ObjectDBX Classes
 90
0
 91
0
280
0
281
0
  0
CLASS
  1
SUN
  2
AcDbSun
  3
SCENEOE
 90
1153
 91
0
280
0
281
0
  0
CLASS
  1
VISUALSTYLE
  2
AcDbVisualStyle
  3
ObjectDBX Classes
 90
4095
 91
0
280
0
281
0
  0
CLASS
  1
MATERIAL
  2
AcDbMaterial
  3
ObjectDBX Classes
 90
1153
 91
0
280
0
281
0
  0
CLASS
  1
SCALE
  2
AcDbScale
  3
ObjectDBX Classes
 90
1153
 91
0
280
0
281
0
  0
CLASS
  1
TABLESTYLE
  2
AcDbTableStyle
  3
ObjectDBX Classes
 90
4095
 91
0
280
0
281
0
  0
CLASS
  1
MLEADERSTYLE
  2
AcDbMLeaderStyle
  3
ACDB_MLEADERSTYLE_CLASS
 90
4095
 91
0
280
0
281
0
  0
CLASS
  1
DICTIONARYVAR
  2
AcDbDictionaryVar
  3
ObjectDBX Classes
 90
0
 91
0
280
0
281
0
  0
CLASS
  1
CELLSTYLEMAP
  2
AcDbCellStyleMap
  3
ObjectDBX Classes
 90
1152
 91
0
280
0
281
0
  0
CLASS
  1
MENTALRAYRENDERSETTINGS
  2
AcDbMentalRayRenderSettings
  3
SCENEOE
 90
1024
 91
0
280
0
281
0
  0
CLASS
  1
ACDBDETAILVIEWSTYLE
  2
AcDbDetailViewStyle
  3
ObjectDBX Classes
 90
1025
 91
0
280
0
281
0
  0
CLASS
  1
ACDBSECTIONVIEWSTYLE
  2
AcDbSectionViewStyle
  3
ObjectDBX Classes
 90
1025
 91
0
280
0
281
0
  0
CLASS
  1
RASTERVARIABLES
  2
AcDbRasterVariables
  3
ISM
 90
0
 91
0
280
0
281
0
  0
CLASS
  1
ACDBPLACEHOLDER
  2
AcDbPlaceHolder
  3
ObjectDBX Classes
 90
0
 91
0
280
0
281
0
  0
CLASS
  1
LAYOUT
  2
AcDbLayout
  3
ObjectDBX Classes
 90
0
 91
0
280
0
281
0
  0
ENDSEC
  0
SECTION
  2
TABLES
  0
TABLE
  2
VPORT
  5
8
330
0
100
AcDbSymbolTable
 70
1
  0
VPORT
  5
23
330
8
100
AcDbSymbolTableRecord
100
AcDbViewportTableRecord
  2
*Active
 70
0
 10
0.0
 20
0.0
 11
1.0
 21
1.0
 12
0.0
 22
0.0
 13
0.0
 23
0.0
 14
0.5
 24
0.5
 15
0.5
 25
0.5
 16
0.0
 26
0.0
 36
1.0
 17
0.0
 27
0.0
 37
0.0
 40
1000.0
 41
1.34
 42
50.0
 43
0.0
 44
0.0
 50
0.0
 51
0.0
 71
0
 72
1000
 73
1
 74
3
 75
0
 76
0
 77
0
 78
0
281
0
 65
0
146
0.0
  0
ENDTAB
  0
TABLE
  2
LTYPE
  5
2
330
0
100
AcDbSymbolTable
 70
3
  0
LTYPE
  5
24
330
2
100
AcDbSymbolTableRecord
100
AcDbLinetypeTableRecord
  2
ByBlock
 70
0
  3

 72
65
 73
0
 40
0.0
  0
LTYPE
  5
25
330
2
100
AcDbSymbolTableRecord
100
AcDbLinetypeTableRecord
  2
ByLayer
 70
0
  3

 72
65
 73
0
 40
0.0
  0
LTYPE
  5
26
330
2
100
AcDbSymbolTableRecord
100
AcDbLinetypeTableRecord
  2
Continuous
 70
0
  3

 72
65
 73
0
 40
0.0
  0
ENDTAB
  0
TABLE
  2
LAYER
  5
1
330
0
100
AcDbSymbolTable
 70
2
  0
LAYER
  5
27
330
1
100
AcDbSymbolTableRecord
100
AcDbLayerTableRecord
  2
0
 70
0
 62
7
  6
Continuous
370
-3
390
13
347
21
  0
LAYER
  5
28
330
1
100
AcDbSymbolTableRecord
100
AcDbLayerTableRecord
  2
Defpoints
 70
0
 62
7
  6
Continuous
290
0
370
-3
390
13
347
21
  0
ENDTAB
  0
TABLE
  2
STYLE
  5
5
330
0
100
AcDbSymbolTable
 70
1
  0
STYLE
  5
29
330
5
100
AcDbSymbolTableRecord
100
AcDbTextStyleTableRecord
  2
Standard
 70
0
 40
0.0
 41
1.0
 50
0.0
 71
0
 42
2.5
  3
txt
  4

  0
ENDTAB
  0
TABLE
  2
VIEW
  5
7
330
0
100
AcDbSymbolTable
 70
0
  0
ENDTAB
  0
TABLE
  2
UCS
  5
6
330
0
100
AcDbSymbolTable
 70
0
  0
ENDTAB
  0
TABLE
  2
APPID
  5
3
330
0
100
AcDbSymbolTable
 70
3
  0
APPID
  5
2A
330
3
100
AcDbSymbolTableRecord
100
AcDbRegAppTableRecord
  2
ACAD
 70
0
  0
APPID
  5
89
330
3
100
AcDbSymbolTableRecord
100
AcDbRegAppTableRecord
  2
HATCHBACKGROUNDCOLOR
 70
0
  0
APPID
  5
8A
330
3
100
AcDbSymbolTableRecord
100
AcDbRegAppTableRecord
  2
EZDXF
 70
0
  0
ENDTAB
  0
TABLE
  2
DIMSTYLE
  5
4
330
0
100
AcDbSymbolTable
 70
1
100
AcDbDimStyleTable
  0
DIMSTYLE
105
2B
330
4
100
AcDbSymbolTableRecord
100
AcDbDimStyleTableRecord
  2
Standard
 70
0
 40
1.0
 41
2.5
 42
0.625
 43
3.75
 44
1.25
 45
0.0
 46
0.0
 47
0.0
 48
0.0
 49
2.5
140
2.5
141
2.5
142
0.0
143
0.03937007874
144
1.0
145
0.0
146
1.0
147
0.625
148
0.0
 69
0
 70
0
 71
0
 72
0
 73
0
 74
0
 75
0
 76
0
 77
1
 78
8
 79
3
170
0
171
3
172
1
173
0
174
0
175
0
176
0
177
0
178
0
179
2
271
2
272
2
273
2
274
3
275
0
276
0
277
2
278
44
279
0
280
0
281
0
282
0
283
0
284
8
285
0
286
0
288
0
289
3
290
0
371
-2
372
-2
  0
ENDTAB
  0
TABLE
  2
BLOCK_RECORD
  5
9
330
0
100
AcDbSymbolTable
 70
7
  0
BLOCK_RECORD
  5
17
330
9
100
AcDbSymbolTableRecord
100
AcDbBlockTableRecord
  2
*Model_Space
340
1A
 70
0
280
1
281
0
  0
BLOCK_RECORD
  5
1B
330
9
100
AcDbSymbolTableRecord
100
AcDbBlockTableRecord
  2
*Paper_Space
340
1E
 70
0
280
1
281
0
  0
BLOCK_RECORD
  5
3B
330
9
100
AcDbSymbolTableRecord
100
AcDbBlockTableRecord
  2
*D1
340
0
 70
0
280
1
281
0
  0
BLOCK_RECORD
  5
40
330
9
100
AcDbSymbolTableRecord
100
AcDbBlockTableRecord
  2
_CLOSEDFILLED
340
0
 70
0
280
1
281
0
  0
BLOCK_RECORD
  5
4F
330
9
100
AcDbSymbolTableRecord
100
AcDbBlockTableRecord
  2
B0
340
0
 70
0
280
1
281
0
  0
BLOCK_RECORD
  5
5B
330
9
100
AcDbSymbolTableRecord
100
AcDbBlockTableRecord
  2
B1
340
0
 70
0
280
1
281
0
  0
BLOCK_RECORD
  5
6A
330
9
100
AcDbSymbolTableRecord
100
AcDbBlockTableRecord
  2
B2
340
0
 70
0
280
1
281
0
  0
ENDTAB
  0
ENDSEC
  0
SECTION
  2
BLOCKS
  0
BLOCK
  5
18
330
17
100
AcDbEntity
  8
0
100
AcDbBlockBegin
  2
*Model_Space
 70
0
 10
0.0
 20
0.0
 30
0.0
  3
*Model_Space
  1

  0
ENDBLK
  5
19
330
17
100
AcDbEntity
  8
0
100
AcDbBlockEnd
  0
BLOCK
  5
1C
330
1B
100
AcDbEntity
  8
0
100
AcDbBlockBegin
  2
*Paper_Space
 70
0
 10
0.0
 20
0.0
 30
0.0
  3
*Paper_Space
  1

  0
ENDBLK
  5
1D
330
1B
100
AcDbEntity
  8
0
100
AcDbBlockEnd
  0
BLOCK
  5
3C
330
3B
100
AcDbEntity
  8
0
100
AcDbBlockBegin
  2
*D1
 70
1
 10
0.0
 20
0.0
 30
0.0
  3
*D1
  1

  0
LINE
  5
3E
330
3B
100
AcDbEntity
  8
0
100
AcDbLine
 10
12.218158411879955
 20
12.882655764799757
 30
0.0
 11
12.218158411879955
 21
17.882655764799757
 31
0.0
  0
LINE
  5
3F
330
3B
100
AcDbEntity
  8
0
100
AcDbLine
 10
19.03682088962969
 20
12.882655764799757
 30
0.0
 11
19.03682088962969
 21
17.882655764799757
 31
0.0
  0
INSERT
  5
44
330
3B
100
AcDbEntity
  8
0
100
AcDbBlockReference
  2
_CLOSEDFILLED
 10
12.218158411879955
 20
17.882655764799757
 30
0.0
 41
0.25
 42
0.25
 50
180.0
  0
INSERT
  5
46
330
3B
100
AcDbEntity
  8
0
100
AcDbBlockReference
  2
_CLOSEDFILLED
 10
19.03682088962969
 20
17.882655764799757
 30
0.0
 41
0.25
 42
0.25
  0
LINE
  5
48
330
3B
100
AcDbEntity
  8
0
100
AcDbLine
 10
12.468158411879955
 20
17.882655764799757
 30
0.0
 11
13.627489650754823
 21
17.882655764799757
 31
0.0
  0
LINE
  5
49
330
3B
100
AcDbEntity
  8
0
100
AcDbLine
 10
17.627489650754825
 20
17.882655764799757
 30
0.0
 11
18.78682088962969
 21
17.882655764799757
 31
0.0
  0
MTEXT
  5
4A
330
3B
100
AcDbEntity
  8
0
100
AcDbMText
 10
15.627489650754823
 20
17.882655764799757
 30
0.0
 40
1.0
 71
5
  1
6,82
  0
POINT
  5
4B
330
3B
100
AcDbEntity
  8
Defpoints
100
AcDbPoint
 10
12.218158411879955
 20
17.882655764799757
 30
0.0
  0
POINT
  5
4C
330
3B
100
AcDbEntity
  8
Defpoints
100
AcDbPoint
 10
12.218158411879955
 20
12.882655764799757
 30
0.0
  0
POINT
  5
4D
330
3B
100
AcDbEntity
  8
Defpoints
100
AcDbPoint
 10
19.03682088962969
 20
12.882655764799757
 30
0.0
  0
ENDBLK
  5
3D
330
3B
100
AcDbEntity
  8
0
100
AcDbBlockEnd
  0
BLOCK
  5
41
330
40
100
AcDbEntity
  8
0
100
AcDbBlockBegin
  2
_CLOSEDFILLED
 70
0
 10
0.0
 20
0.0
 30
0.0
  3
_CLOSEDFILLED
  1

  0
SOLID
  5
43
330
40
100
AcDbEntity
  8
0
  6
BYBLOCK
 62
0
100
AcDbTrace
 10
-1.0
 20
0.16439898372402537
 30
0.0
 11
0.0
 21
0.0
 31
0.0
 12
-1.0
 22
-0.16439898372402537
 32
0.0
 13
-1.0
 23
-0.16439898372402537
 33
0.0
  0
ENDBLK
  5
42
330
40
100
AcDbEntity
  8
0
100
AcDbBlockEnd
  0
BLOCK
  5
50
330
4F
100
AcDbEntity
  8
0
100
AcDbBlockBegin
  2
B0
 70
0
 10
1.232344337157273
 20
-1.2402236501381192
 30
0.0
  3
B0
  1

  0
LWPOLYLINE
  5
52
330
4F
100
AcDbEntity
  8
0
100
AcDbPolyline
 90
6
 70
1
 10
-13.481410243269131
 20
14.09478334800231
 42
-0.36421740555991544
 10
19.061610765798257
 20
22.47499698292075
 10
23.069587672138255
 20
-25.26588035989268
 10
27.09270768257278
 20
17.38919325256103
 10
5.331798036368539
 20
-5.163681984158817
 42
1.6619344467937678
 10
23.071553786933038
 20
28.73625085831469
 42
0.33958903252595407
  0
CIRCLE
  5
53
330
4F
100
AcDbEntity
  8
0
100
AcDbCircle
 10
46.04492554694643
 20
43.882564356040504
 30
0.0
 40
17.313806931756996
  0
SPLINE
  5
54
330
4F
100
AcDbEntity
  8
0
100
AcDbSpline
 70
0
 71
3
 72
8
 73
4
 74
0
 40
0.0
 40
0.0
 40
0.0
 40
0.0
 40
1.0
 40
1.0
 40
1.0
 40
1.0
 10
23.005515795037283
 20
18.278027988523654
 30
0.0
 10
26.892785364467116
 20
-29.53112435668198
 30
0.0
 10
-17.210171045639722
 20
-6.17789306962591
 30
0.0
 10
-23.480777762166518
 20
-10.459666874932456
 30
0.0
  0
ELLIPSE
  5
55
330
4F
100
AcDbEntity
  8
0
100
AcDbEllipse
 10
4.596371299511894
 20
1.9975336700410935
 30
0.0
 11
5.207498993574616
 21
4.126228890556867
 31
0.0
 40
0.8321678869037586
 41
-1.5603621515104447
 42
4.189740186784771
  0
LINE
  5
56
330
4F
100
AcDbEntity
  8
0
100
AcDbLine
 10
-33.29446073726948
 20
22.772725392372166
 30
0.0
 11
19.35760681353294
 21
25.10666605994423
 31
-2.0438510520308575
  0
LEADER
  5
57
330
4F
100
AcDbEntity
  8
0
100
AcDbLeader
  3
Standard
 73
3
 76
3
 10
-5.93808979956453
 20
-4.006764549513029
 30
0.0
 10
-0.9380897995645299
 20
-0.006764549513029294
 30
0.0
 10
3.06191020043547
 20
-0.006764549513029294
 30
0.0
  0
CIRCLE
  5
58
330
4F
100
AcDbEntity
  8
0
100
AcDbCircle
 10
38.163759266454804
 20
-16.555030882304656
 30
0.0
 40
19.634477507702165
  0
ARC
  5
59
330
4F
100
AcDbEntity
  8
0
100
AcDbCircle
 10
-22.903548604457935
 20
-16.38195431008421
 30
0.0
 40
9.330804946244747
100
AcDbArc
 50
-320.537686794961
 51
-79.59648984842966
  0
CIRCLE
  5
5A
330
4F
100
AcDbEntity
  8
0
100
AcDbCircle
 10
-34.42003027097349
 20
-24.2562936332531
 30
0.0
 40
12.460792403686543
  0
ENDBLK
  5
51
330
4F
100
AcDbEntity
  8
0
100
AcDbBlockEnd
  0
BLOCK
  5
5C
330
5B
100
AcDbEntity
  8
0
100
AcDbBlockBegin
  2
B1
 70
0
 10
2.7632724154920627
 20
-3.496870149395017
 30
0.0
  3
B1
  1

  0
SPLINE
  5
5E
330
5B
100
AcDbEntity
  8
0
100
AcDbSpline
 70
0
 71
3
 72
8
 73
4
 74
0
 40
0.0
 40
0.0
 40
0.0
 40
0.0
 40
1.0
 40
1.0
 40
1.0
 40
1.0
 41
1.3516832995180708
 41
1.7789392869815952
 41
1.6521575461893427
 41
1.8498229323431146
 10
18.29233329890335
 20
-1.1117863157065244
 30
0.0
 10
-28.139522875063804
 20
-28.579265159456636
 30
0.0
 10
21.961550774525513
 20
7.604120256441085
 30
0.0
 10
10.63501177119754
 20
9.85457097727484
 30
0.0
  0
SOLID
  5
5F
330
5B
100
AcDbEntity
  8
0
100
AcDbTrace
 10
-1.3541982879260672
 20
-46.87383749761393
 30
0.0
 11
-0.3541982879260672
 21
-46.87383749761393
 31
0.0
 12
-1.3541982879260672
 22
-46.173837497613924
 32
0.0
 13
-0.15419828792606727
 23
-45.87383749761393
 33
0.0
  0
HATCH
  5
60
330
5B
100
AcDbEntity
  8
0
 62
7
100
AcDbHatch
 10
0.0
 20
0.0
 30
0.0
210
0.0
220
0.0
230
1.0
  2
SOLID
 70
1
 71
0
 91
1
 92
3
 72
1
 73
1
 93
3
 10
-14.921471402710182
 20
-38.559022125388495
 42
0.4
 10
-13.421471402710182
 20
-38.559022125388495
 42
0.0
 10
-13.421471402710182
 20
-37.559022125388495
 42
0.0
 97
0
 75
0
 76
1
 98
0
  0
POLYLINE
  5
61
330
5B
100
AcDbEntity
  8
0
100
AcDb3dPolyline
 66
1
 10
0.0
 20
0.0
 30
0.0
 70
8
  0
VERTEX
  5
63
330
5B
100
AcDbEntity
  8
0
100
AcDbVertex
100
AcDb3dPolylineVertex
 10
-11.191487271333301
 20
-6.96805767583659
 30
0.0
 70
32
  0
VERTEX
  5
64
330
5B
100
AcDbEntity
  8
0
100
AcDbVertex
100
AcDb3dPolylineVertex
 10
-8.191487271333301
 20
-5.96805767583659
 30
2.0
 70
32
  0
VERTEX
  5
65
330
5B
100
AcDbEntity
  8
0
100
AcDbVertex
100
AcDb3dPolylineVertex
 10
-6.191487271333301
 20
-8.96805767583659
 30
-1.0
 70
32
  0
SEQEND
  5
62
330
61
100
AcDbEntity
  8
0
  0
LWPOLYLINE
  5
66
330
5B
100
AcDbEntity
  8
0
100
AcDbPolyline
 90
2
 70
1
 10
-25.41309759322265
 20
17.227361547638964
 10
-13.453320524224914
 20
-28.203251804737647
  0
MTEXT
  5
67
330
5B
100
AcDbEntity
  8
0
100
AcDbMText
 10
6.169258437184624
 20
24.684956426699898
 30
0.0
 40
2.5
 71
1
  1
M7\P{\H2;x}
210
0.01
220
0.005
230
1.0
 50
64.19160789103623
  0
ELLIPSE
  5
68
330
5B
100
AcDbEntity
  8
0
100
AcDbEllipse
 10
15.099364121705236
 20
-27.009919535403238
 30
0.0
 11
-8.419459706001689
 21
5.607890657621212
 31
0.0
210
0.0
220
0.0
230
-1.0
 40
0.5089571249796975
 41
-5.903285121361178
 42
-1.1982458519945016
  0
HATCH
  5
69
330
5B
100
AcDbEntity
  8
0
 62
7
100
AcDbHatch
 10
0.0
 20
0.0
 30
0.0
210
0.0
220
0.0
230
1.0
  2
SOLID
 70
1
 71
0
 91
1
 92
1
 93
3
 72
1
 10
-47.11816170612315
 20
19.68442852123762
 11
-45.11816170612315
 21
19.68442852123762
 72
2
 10
-45.11816170612315
 20
20.68442852123762
 40
1
 50
-90
 51
90
 73
1
 72
3
 10
-47.11816170612315
 20
20.68442852123762
 11
0.0
 21
1.0
 40
0.6315193635673617
 50
90
 51
270
 73
1
 97
0
 75
0
 76
1
 98
0
  0
ENDBLK
  5
5D
330
5B
100
AcDbEntity
  8
0
100
AcDbBlockEnd
  0
BLOCK
  5
6B
330
6A
100
AcDbEntity
  8
0
100
AcDbBlockBegin
  2
B2
 70
0
 10
4.117337103442452
 20
1.1481587146303083
 30
0.0
  3
B2
  1

  0
POLYLINE
  5
6D
330
6A
100
AcDbEntity
  8
0
100
AcDb2dPolyline
 66
1
 10
0.0
 20
0.0
 30
0.0
 70
1
  0
VERTEX
  5
6F
330
6A
100
AcDbEntity
  8
0
100
AcDbVertex
100
AcDb2dVertex
 10
28.505929972291177
 20
3.203436287050792
 30
0.0
 70
0
  0
VERTEX
  5
70
330
6A
100
AcDbEntity
  8
0
100
AcDbVertex
100
AcDb2dVertex
 10
-22.140647967207443
 20
11.142924081442601
 30
0.0
 70
0
  0
VERTEX
  5
71
330
6A
100
AcDbEntity
  8
0
100
AcDbVertex
100
AcDb2dVertex
 10
-24.900396764746
 20
0.6286395793237816
 30
0.0
 42
0.485511579120806
 70
0
  0
VERTEX
  5
72
330
6A
100
AcDbEntity
  8
0
100
AcDbVertex
100
AcDb2dVertex
 10
21.444149945773795
 20
25.474295717169063
 30
0.0
 42
0.8033370833826814
 70
0
  0
VERTEX
  5
73
330
6A
100
AcDbEntity
  8
0
100
AcDbVertex
100
AcDb2dVertex
 10
-27.392640880664718
 20
15.578574441820507
 30
0.0
 42
0.19593279723293366
 70
0
  0
SEQEND
  5
6E
330
6D
100
AcDbEntity
  8
0
  0
ARC
  5
74
330
6A
100
AcDbEntity
  8
0
100
AcDbCircle
 10
-16.24768142224913
 20
-5.205126487507613
 30
0.0
 40
10.429259483523879
100
AcDbArc
 50
97.1846888965336
 51
180.90884603696918
  0
TEXT
  5
75
330
6A
100
AcDbEntity
  8
0
100
AcDbText
 10
-36.907023169039356
 20
-9.783821933525076
 30
0.0
 40
2.5
  1
T99
 50
57.62866521397174
100
AcDbText
  0
POLYLINE
  5
76
330
6A
100
AcDbEntity
  8
0
100
AcDb3dPolyline
 66
1
 10
0.0
 20
0.0
 30
0.0
 70
9
  0
VERTEX
  5
78
330
6A
100
AcDbEntity
  8
0
100
AcDbVertex
100
AcDb3dPolylineVertex
 10
-33.95461184375287
 20
41.2344698592928
 30
0.0
 70
32
  0
VERTEX
  5
79
330
6A
100
AcDbEntity
  8
0
100
AcDbVertex
100
AcDb3dPolylineVertex
 10
-30.954611843752872
 20
42.2344698592928
 30
2.0
 70
32
  0
VERTEX
  5
7A
330
6A
100
AcDbEntity
  8
0
100
AcDbVertex
100
AcDb3dPolylineVertex
 10
-28.954611843752872
 20
39.2344698592928
 30
-1.0
 70
32
  0
SEQEND
  5
77
330
76
100
AcDbEntity
  8
0
  0
MTEXT
  5
7B
330
6A
100
AcDbEntity
  8
0
100
AcDbMText
 10
-45.48032142932695
 20
-36.328137903797554
 30
0.0
 40
2.5
 71
1
  1
M2\P{\H2;x}
 50
67.8102651721879
  0
ARC
  5
7C
330
6A
100
AcDbEntity
  8
0
100
AcDbCircle
 10
-36.54016834247421
 20
48.91996224723056
 30
0.0
 40
9.450923642897619
100
AcDbArc
 50
-36.519766035760995
 51
-23.132718094375548
  0
MTEXT
  5
7D
330
6A
100
AcDbEntity
  8
0
100
AcDbMText
 10
44.08515263423591
 20
3.3392826948580705
 30
0.0
 40
2.5
 71
1
  1
M5\P{\H2;x}
 50
58.467012670187
  0
SPLINE
  5
7E
330
6A
100
AcDbEntity
  8
0
100
AcDbSpline
 70
0
 71
3
 72
0
 73
0
 74
19
 11
48.497710152188716
 21
-23.89038414105032
 31
0.0
 11
50.497710152188716
 21
-20.84336601454369
 31
0.0
 11
52.497710152188716
 21
-18.790533132020236
 31
0.0
 11
54.497710152188716
 21
-21.287698861182104
 31
0.0
 11
56.497710152188716
 21
-21.243227139383986
 31
0.0
 11
58.497710152188716
 21
-19.014025564631385
 31
0.0
 11
60.497710152188716
 21
-19.55676548708726
 31
0.0
 11
62.497710152188716
 21
-20.63072892764546
 31
0.0
 11
64.49771015218872
 21
-23.542567143309896
 31
0.0
 11
66.49771015218872
 21
-21.64862108162766
 31
0.0
 11
68.49771015218872
 21
-20.87475618839112
 31
0.0
 11
70.49771015218872
 21
-20.547094752008064
 31
0.0
 11
72.49771015218872
 21
-21.40690868106842
 31
0.0
 11
74.49771015218872
 21
-20.42250235065682
 31
0.0
 11
76.49771015218872
 21
-23.4643253928929
 31
0.0
 11
78.49771015218872
 21
-21.152260630988806
 31
0.0
 11
80.49771015218872
 21
-21.26401427733149
 31
0.0
 11
82.49771015218872
 21
-23.609676393953727
 31
0.0
 11
84.49771015218872
 21
-22.32382754335474
 31
0.0
  0
INSERT
  5
7F
330
6A
100
AcDbEntity
  8
0
100
AcDbBlockReference
  2
B1
 10
-6.15150892418041
 20
6.7956570446173
 30
0.0
 41
0.5
 42
-2.0
 50
287.45405822288717
  0
ENDBLK
  5
6C
330
6A
100
AcDbEntity
  8
0
100
AcDbBlockEnd
  0
ENDSEC
  0
SECTION
  2
ENTITIES
  0
LWPOLYLINE
  5
2F
330
17
100
AcDbEntity
  8
0
100
AcDbPolyline
 90
3
 70
0
 10
-29.1487295092603
 20
14.06091019829352
 42
0.6727119788909106
 10
-26.1451517889518
 20
-24.116182402480614
 10
2.888541797321551
 20
10.952736024104631
  0
POLYLINE
  5
30
330
17
100
AcDbEntity
  8
0
100
AcDb3dPolyline
 66
1
 10
0.0
 20
0.0
 30
0.0
 70
8
  0
VERTEX
  5
32
330
17
100
AcDbEntity
  8
0
100
AcDbVertex
100
AcDb3dPolylineVertex
 10
-33.411858645685115
 20
11.302860460477163
 30
0.0
 70
32
  0
VERTEX
  5
33
330
17
100
AcDbEntity
  8
0
100
AcDbVertex
100
AcDb3dPolylineVertex
 10
-30.411858645685115
 20
12.302860460477163
 30
2.0
 70
32
  0
VERTEX
  5
34
330
17
100
AcDbEntity
  8
0
100
AcDbVertex
100
AcDb3dPolylineVertex
 10
-28.411858645685115
 20
9.302860460477163
 30
-1.0
 70
32
  0
SEQEND
  5
31
330
30
100
AcDbEntity
  8
0
  0
SPLINE
  5
35
330
17
100
AcDbEntity
  8
0
100
AcDbSpline
 70
0
 71
3
 72
8
 73
4
 74
0
 40
0.0
 40
0.0
 40
0.0
 40
0.0
 40
1.0
 40
1.0
 40
1.0
 40
1.0
 41
1.1901498436600102
 41
1.647679579060294
 41
1.3190403607470833
 41
1.3674052610389147
 10
-18.64108153169223
 20
13.74031851050907
 30
0.0
 10
-0.6039131765558139
 20
-6.747540410652164
 30
0.0
 10
-1.11333998026128
 20
10.88170558105687
 30
0.0
 10
7.80681436500133
 20
-22.003269164096068
 30
0.0
  0
POLYLINE
  5
36
330
17
100
AcDbEntity
  8
0
100
AcDb2dPolyline
 66
1
 10
0.0
 20
0.0
 30
0.0
 70
0
  0
VERTEX
  5
38
330
17
100
AcDbEntity
  8
0
100
AcDbVertex
100
AcDb2dVertex
 10
21.738880672407277
 20
-25.690350268386357
 30
0.0
 42
0.7129723561661818
 70
0
  0
VERTEX
  5
39
330
17
100
AcDbEntity
  8
0
100
AcDbVertex
100
AcDb2dVertex
 10
20.0632997059545
 20
17.68865267917832
 30
0.0
 70
0
  0
SEQEND
  5
37
330
36
100
AcDbEntity
  8
0
  0
DIMENSION
  5
3A
330
17
100
AcDbEntity
  8
0
100
AcDbDimension
280
0
  2
*D1
  3
Standard
 10
12.218158411879955
 20
17.882655764799757
 30
0.0
 11
15.627489650754823
 21
17.882655764799757
 31
0.0
 70
32
 71
5
  1
<>
100
AcDbAlignedDimension
 13
12.218158411879955
 23
12.882655764799757
 33
0.0
 14
19.03682088962969
 24
12.882655764799757
 34
0.0
 50
0.0
100
AcDbRotatedDimension
  0
TEXT
  5
4E
330
17
100
AcDbEntity
  8
0
100
AcDbText
 10
-48.826283328177766
 20
-37.23826771422981
 30
0.0
 40
2.5
  1
T19
 50
277.60984554585843
100
AcDbText
  0
INSERT
  5
81
330
17
100
AcDbEntity
  8
0
100
AcDbBlockReference
  2
B0
 10
-4.705686652360939
 20
9.792338803244078
 30
0.0
 41
1.5
 42
1.5
 50
34.92372750110161
  0
INSERT
  5
83
330
17
100
AcDbEntity
  8
0
100
AcDbBlockReference
  2
B2
 10
-62.602035878092806
 20
53.822565587460446
 30
0.0
 41
2.0
 42
-2.0
 50
35.388570043311496
  0
INSERT
  5
85
330
17
100
AcDbEntity
  8
0
100
AcDbBlockReference
  2
B1
 10
59.518724774877114
 20
71.25453562133418
 30
0.0
 41
-1.0
 50
244.91292826618266
  0
INSERT
  5
87
330
17
100
AcDbEntity
  8
0
100
AcDbBlockReference
  2
B2
 10
43.71999286009208
 20
23.93705034135718
 30
0.0
 41
2.0
 42
2.0
 50
115.18771349904607
  0
ENDSEC
  0
SECTION
  2
OBJECTS
  0
DICTIONARY
  5
A
330
0
100
AcDbDictionary
281
1
  3
ACAD_COLOR
350
B
  3
ACAD_GROUP
350
C
  3
ACAD_LAYOUT
350
D
  3
ACAD_MATERIAL
350
E
  3
ACAD_MLEADERSTYLE
350
F
  3
ACAD_MLINESTYLE
350
10
  3
ACAD_PLOTSETTINGS
350
11
  3
ACAD_PLOTSTYLENAME
350
12
  3
ACAD_SCALELIST
350
14
  3
ACAD_TABLESTYLE
350
15
  3
ACAD_VISUALSTYLE
350
16
  3
EZDXF_META
350
2D
  0
DICTIONARY
  5
B
330
A
100
AcDbDictionary
281
1
  0
DICTIONARY
  5
C
330
A
100
AcDbDictionary
281
1
  0
DICTIONARY
  5
D
330
A
100
AcDbDictionary
281
1
  3
Model
350
1A
  3
Layout1
350
1E
  0
DICTIONARY
  5
E
330
A
100
AcDbDictionary
281
1
  3
ByBlock
350
1F
  3
ByLayer
350
20
  3
Global
350
21
  0
DICTIONARY
  5
F
330
A
100
AcDbDictionary
281
1
  3
Standard
350
2C
  0
DICTIONARY
  5
10
330
A
100
AcDbDictionary
281
1
  3
Standard
350
22
  0
DICTIONARY
  5
11
330
A
100
AcDbDictionary
281
1
  0
ACDBDICTIONARYWDFLT
  5
12
330
A
100
AcDbDictionary
281
1
  3
Normal
350
13
100
AcDbDictionaryWithDefault
340
13
  0
ACDBPLACEHOLDER
  5
13
330
12
  0
DICTIONARY
  5
14
330
A
100
AcDbDictionary
281
1
  0
DICTIONARY
  5
15
330
A
100
AcDbDictionary
281
1
  0
DICTIONARY
  5
16
330
A
100
AcDbDictionary
281
1
  0
LAYOUT
  5
1A
330
D
100
AcDbPlotSettings
  1

  4
A3
  6

 40
7.5
 41
20.0
 42
7.5
 43
20.0
 44
420.0
 45
297.0
 46
0.0
 47
0.0
 48
0.0
 49
0.0
140
0.0
141
0.0
142
1.0
143
1.0
 70
1024
 72
1
 73
0
 74
5
  7

 75
16
 76
0
 77
2
 78
300
147
1.0
148
0.0
149
0.0
100
AcDbLayout
  1
Model
 70
1
 71
0
 10
0.0
 20
0.0
 11
420.0
 21
297.0
 12
0.0
 22
0.0
 32
0.0
 14
1e+20
 24
1e+20
 34
1e+20
 15
-1e+20
 25
-1e+20
 35
-1e+20
146
0.0
 13
0.0
 23
0.0
 33
0.0
 16
1.0
 26
0.0
 36
0.0
 17
0.0
 27
1.0
 37
0.0
 76
1
330
17
  0
LAYOUT
  5
1E
330
D
100
AcDbPlotSettings
  1

  4
A3
  6

 40
7.5
 41
20.0
 42
7.5
 43
20.0
 44
420.0
 45
297.0
 46
0.0
 47
0.0
 48
0.0
 49
0.0
140
0.0
141
0.0
142
1.0
143
1.0
 70
0
 72
1
 73
0
 74
5
  7

 75
16
 76
0
 77
2
 78
300
147
1.0
148
0.0
149
0.0
100
AcDbLayout
  1
Layout1
 70
1
 71
1
 10
0.0
 20
0.0
 11
420.0
 21
297.0
 12
0.0
 22
0.0
 32
0.0
 14
1e+20
 24
1e+20
 34
1e+20
 15
-1e+20
 25
-1e+20
 35
-1e+20
146
0.0
 13
0.0
 23
0.0
 33
0.0
 16
1.0
 26
0.0
 36
0.0
 17
0.0
 27
1.0
 37
0.0
 76
1
330
1B
  0
MATERIAL
  5
1F
102
{ACAD_REACTORS
330
E
102
}
330
E
100
AcDbMaterial
  1
ByBlock
  2

 70
0
 40
1.0
 71
1
 41
1.0
 91
-1023410177
 42
1.0
 72
1
  3

 73
1
 74
1
 75
1
 44
0.5
 73
0
 45
1.0
 46
1.0
 77
1
  4

 78
1
 79
1
170
1
 48
1.0
171
1
  6

172
1
173
1
174
1
140
1.0
141
1.0
175
1
  7

176
1
177
1
178
1
143
1.0
179
1
  8

270
1
271
1
272
1
145
1.0
146
1.0
273
1
  9

274
1
275
1
276
1
 42
1.0
 72
1
  3

 73
1
 74
1
 75
1
 94
63
  0
MATERIAL
  5
20
102
{ACAD_REACTORS
330
E
102
}
330
E
100
AcDbMaterial
  1
ByLayer
  2

 70
0
 40
1.0
 71
1
 41
1.0
 91
-1023410177
 42
1.0
 72
1
  3

 73
1
 74
1
 75
1
 44
0.5
 73
0
 45
1.0
 46
1.0
 77
1
  4

 78
1
 79
1
170
1
 48
1.0
171
1
  6

172
1
173
1
174
1
140
1.0
141
1.0
175
1
  7

176
1
177
1
178
1
143
1.0
179
1
  8

270
1
271
1
272
1
145
1.0
146
1.0
273
1
  9

274
1
275
1
276
1
 42
1.0
 72
1
  3

 73
1
 74
1
 75
1
 94
63
  0
MATERIAL
  5
21
102
{ACAD_REACTORS
330
E
102
}
330
E
100
AcDbMaterial
  1
Global
  2

 70
0
 40
1.0
 71
1
 41
1.0
 91
-1023410177
 42
1.0
 72
1
  3

 73
1
 74
1
 75
1
 44
0.5
 73
0
 45
1.0
 46
1.0
 77
1
  4

 78
1
 79
1
170
1
 48
1.0
171
1
  6

172
1
173
1
174
1
140
1.0
141
1.0
175
1
  7

176
1
177
1
178
1
143
1.0
179
1
  8

270
1
271
1
272
1
145
1.0
146
1.0
273
1
  9

274
1
275
1
276
1
 42
1.0
 72
1
  3

 73
1
 74
1
 75
1
 94
63
  0
MLINESTYLE
  5
22
102
{ACAD_REACTORS
330
10
102
}
330
10
100
AcDbMlineStyle
  2
Standard
 70
0
  3

 62
256
 51
90.0
 52
90.0
 71
2
 49
0.5
 62
256
  6
BYLAYER
 49
-0.5
 62
256
  6
BYLAYER
  0
MLEADERSTYLE
  5
2C
102
{ACAD_REACTORS
330
F
102
}
330
F
100
AcDbMLeaderStyle
179
2
170
2
171
1
172
0
 90
2
 40
0.0
 41
0.0
173
1
 91
-1056964608
 92
-2
290
1
 42
2.0
291
1
 43
8.0
  3
Standard
 44
4.0
300

342
29
174
1
175
1
176
0
178
1
 93
-1056964608
 45
4.0
292
0
297
0
 46
4.0
 94
-1056964608
 47
1.0
 49
1.0
140
1.0
294
1
141
0.0
177
0
142
1.0
295
0
296
0
143
3.75
271
0
272
9
273
9
  0
DICTIONARY
  5
2D
330
A
100
AcDbDictionary
280
1
281
1
  3
CREATED_BY_EZDXF
350
2E
  3
WRITTEN_BY_EZDXF
350
8B
  0
DICTIONARYVAR
  5
2E
330
2D
100
DictionaryVariables
280
0
  1
1.4.4 @ 2026-10-06T06:13:47.476922+00:00
  0
DICTIONARYVAR
  5
8B
330
2D
100
DictionaryVariables
280
0
  1
1.4.4 @ 2026-10-06T06:13:47.483564+00:00
  0
ENDSEC
  0
EOF
