  0
SECTION
  2
HEADER
  9
$ACADVER
  1
AC1032
  9
$ACADMAINTVER
 90
4
  9
$DWGCODEPAGE
  3
ANSI_1252
  9
$LASTSAVEDBY
  1
ezdxf
  9
$REQUIREDVERSIONS
160
0
  9
$INSBASE
 10
0.0
 20
0.0
 30
0.0
  9
$EXTMIN
 10
1e+20
 20
1e+20
 30
1e+20
  9
$EXTMAX
 10
-1e+20
 20
-1e+20
 30
-1e+20
  9
$LIMMIN
 10
0.0
 20
0.0
  9
$LIMMAX
 10
420.0
 20
297.0
  9
$ORTHOMODE
 70
0
  9
$REGENMODE
 70
1
  9
$FILLMODE
 70
1
  9
$QTEXTMODE
 70
0
  9
$MIRRTEXT
 70
1
  9
$LTSCALE
 40
1.0
  9
$ATTMODE
 70
1
  9
$TEXTSIZE
 40
2.5
  9
$TRACEWID
 40
1.0
  9
$TEXTSTYLE
  7
Standard
  9
$CLAYER
  8
0
  9
$CELTYPE
  6
ByLayer
  9
$CECOLOR
 62
256
  9
$CELTSCALE
 40
1.0
  9
$DISPSILH
 70
0
  9
$DIMSCALE
 40
1.0
  9
$DIMASZ
 40
2.5
  9
$DIMEXO
 40
0.625
  9
$DIMDLI
 40
3.75
  9
$DIMRND
 40
0.0
  9
$DIMDLE
 40
0.0
  9
$DIMEXE
 40
1.25
  9
$DIMTP
 40
0.0
  9
$DIMTM
 40
0.0
  9
$DIMTXT
 40
2.5
  9
$DIMCEN
 40
2.5
  9
$DIMTSZ
 40
0.0
  9
$DIMTOL
 70
0
  9
$DIMLIM
 70
0
  9
$DIMTIH
 70
0
  9
$DIMTOH
 70
0
  9
$DIMSE1
 70
0
  9
$DIMSE2
 70
0
  9
$DIMTAD
 70
1
  9
$DIMZIN
 70
8
  9
$DIMBLK
  1

  9
$DIMASO
 70
1
  9
$DIMSHO
 70
1
  9
$DIMPOST
  1

  9
$DIMAPOST
  1

  9
$DIMALT
 70
0
  9
$DIMALTD
 70
3
  9
$DIMALTF
 40
0.03937007874
  9
$DIMLFAC
 40
1.0
  9
$DIMTOFL
 70
1
  9
$DIMTVP
 40
0.0
  9
$DIMTIX
 70
0
  9
$DIMSOXD
 70
0
  9
$DIMSAH
 70
0
  9
$DIMBLK1
  1

  9
$DIMBLK2
  1

  9
$DIMSTYLE
  2
ISO-25
  9
$DIMCLRD
 70
0
  9
$DIMCLRE
 70
0
  9
$DIMCLRT
 70
0
  9
$DIMTFAC
 40
1.0
  9
$DIMGAP
 40
0.625
  9
$DIMJUST
 70
0
  9
$DIMSD1
 70
0
  9
$DIMSD2
 70
0
  9
$DIMTOLJ
 70
0
  9
$DIMTZIN
 70
8
  9
$DIMALTZ
 70
0
  9
$DIMALTTZ
 70
0
  9
$DIMUPT
 70
0
  9
$DIMDEC
 70
2
  9
$DIMTDEC
 70
2
  9
$DIMALTU
 70
2
  9
$DIMALTTD
 70
3
  9
$DIMTXSTY
  7
Standard
  9
$DIMAUNIT
 70
0
  9
$DIMADEC
 70
0
  9
$DIMALTRND
 40
0.0
  9
$DIMAZIN
 70
0
  9
$DIMDSEP
 70
44
  9
$DIMATFIT
 70
3
  9
$DIMFRAC
 70
0
  9
$DIMLDRBLK
  1

  9
$DIMLUNIT
 70
2
  9
$DIMLWD
 70
-2
  9
$DIMLWE
 70
-2
  9
$DIMTMOVE
 70
0
  9
$DIMFXL
 40
1.0
  9
$DIMFXLON
 70
0
  9
$DIMJOGANG
 40
0.785398163397
  9
$DIMTFILL
 70
0
  9
$DIMTFILLCLR
 70
0
  9
$DIMARCSYM
 70
0
  9
$DIMLTYPE
  6

  9
$DIMLTEX1
  6

  9
$DIMLTEX2
  6

  9
$DIMTXTDIRECTION
 70
0
  9
$LUNITS
 70
2
  9
$LUPREC
 70
4
  9
$SKETCHINC
 40
1.0
  9
$FILLETRAD
 40
10.0
  9
$AUNITS
 70
0
  9
$AUPREC
 70
2
  9
$MENU
  1
.
  9
$ELEVATION
 40
0.0
  9
$PELEVATION
 40
0.0
  9
$THICKNESS
 40
0.0
  9
$LIMCHECK
 70
0
  9
$CHAMFERA
 40
0.0
  9
$CHAMFERB
 40
0.0
  9
$CHAMFERC
 40
0.0
  9
$CHAMFERD
 40
0.0
  9
$SKPOLY
 70
0
  9
$TDCREATE
 40
2461320.3587268516
  9
$TDUCREATE
 40
2458532.153996898
  9
$TDUPDATE
 40
2461320.3587268516
  9
$TDUUPDATE
 40
2458532.1544311
  9
$TDINDWG
 40
0.0
  9
$TDUSRTIMER
 40
0.0
  9
$USRTIMER
 70
1
  9
$ANGBASE
 50
0.0
  9
$ANGDIR
 70
0
  9
$PDMODE
 70
0
  9
$PDSIZE
 40
0.0
  9
$PLINEWID
 40
0.0
  9
$SPLFRAME
 70
0
  9
$SPLINETYPE
 70
6
  9
$SPLINESEGS
 70
8
  9
$HANDSEED
  5
6A
  9
$SURFTAB1
 70
6
  9
$SURFTAB2
 70
6
  9
$SURFTYPE
 70
6
  9
$SURFU
 70
6
  9
$SURFV
 70
6
  9
$UCSBASE
  2

  9
$UCSNAME
  2

  9
$UCSORG
 10
0.0
 20
0.0
 30
0.0
  9
$UCSXDIR
 10
1.0
 20
0.0
 30
0.0
  9
$UCSYDIR
 10
0.0
 20
1.0
 30
0.0
  9
$UCSORTHOREF
  2

  9
$UCSORTHOVIEW
 70
0
  9
$UCSORGTOP
 10
0.0
 20
0.0
 30
0.0
  9
$UCSORGBOTTOM
 10
0.0
 20
0.0
 30
0.0
  9
$UCSORGLEFT
 10
0.0
 20
0.0
 30
0.0
  9
$UCSORGRIGHT
 10
0.0
 20
0.0
 30
0.0
  9
$UCSORGFRONT
 10
0.0
 20
0.0
 30
0.0
  9
$UCSORGBACK
 10
0.0
 20
0.0
 30
0.0
  9
$PUCSBASE
  2

  9
$PUCSNAME
  2

  9
$PUCSORG
 10
0.0
 20
0.0
 30
0.0
  9
$PUCSXDIR
 10
1.0
 20
0.0
 30
0.0
  9
$PUCSYDIR
 10
0.0
 20
1.0
 30
0.0
  9
$PUCSORTHOREF
  2

  9
$PUCSORTHOVIEW
 70
0
  9
$PUCSORGTOP
 10
0.0
 20
0.0
 30
0.0
  9
$PUCSORGBOTTOM
 10
0.0
 20
0.0
 30
0.0
  9
$PUCSORGLEFT
 10
0.0
 20
0.0
 30
0.0
  9
$PUCSORGRIGHT
 10
0.0
 20
0.0
 30
0.0
  9
$PUCSORGFRONT
 10
0.0
 20
0.0
 30
0.0
  9
$PUCSORGBACK
 10
0.0
 20
0.0
 30
0.0
  9
$USERI1
 70
0
  9
$USERI2
 70
0
  9
$USERI3
 70
0
  9
$USERI4
 70
0
  9
$USERI5
 70
0
  9
$USERR1
 40
0.0
  9
$USERR2
 40
0.0
  9
$USERR3
 40
0.0
  9
$USERR4
 40
0.0
  9
$USERR5
 40
0.0
  9
$WORLDVIEW
 70
1
  9
$SHADEDGE
 70
3
  9
$SHADEDIF
 70
70
  9
$TILEMODE
 70
1
  9
$MAXACTVP
 70
64
  9
$PINSBASE
 10
0.0
 20
0.0
 30
0.0
  9
$PLIMCHECK
 70
0
  9
$PEXTMIN
 10
1e+20
 20
1e+20
 30
1e+20
  9
$PEXTMAX
 10
-1e+20
 20
-1e+20
 30
-1e+20
  9
$PLIMMIN
 10
0.0
 20
0.0
  9
$PLIMMAX
 10
420.0
 20
297.0
  9
$UNITMODE
 70
0
  9
$VISRETAIN
 70
1
  9
$PLINEGEN
 70
0
  9
$PSLTSCALE
 70
1
  9
$TREEDEPTH
 70
3020
  9
$CMLSTYLE
  2
Standard
  9
$CMLJUST
 70
0
  9
$CMLSCALE
 40
20.0
  9
$PROXYGRAPHICS
 70
1
  9
$MEASUREMENT
 70
1
  9
$CELWEIGHT
370
-1
  9
$ENDCAPS
280
0
  9
$JOINSTYLE
280
0
  9
$LWDISPLAY
290
0
  9
$INSUNITS
 70
4
  9
$HYPERLINKBASE
  1

  9
$STYLESHEET
  1

  9
$XEDIT
290
1
  9
$CEPSNTYPE
380
0
  9
$PSTYLEMODE
290
1
  9
$FINGERPRINTGUID
  2
{D9782A4D-AFBA-408E-A604-8946E4BA7435}
  9
$VERSIONGUID
  2
{10C2A05F-8B66-49B2-A164-E39A86D9A998}
  9
$EXTNAMES
290
1
  9
$PSVPSCALE
 40
0.0
  9
$OLESTARTUP
290
0
  9
$SORTENTS
280
127
  9
$INDEXCTL
280
0
  9
$HIDETEXT
280
1
  9
$XCLIPFRAME
280
1
  9
$HALOGAP
280
0
  9
$OBSCOLOR
 70
257
  9
$OBSLTYPE
280
0
  9
$INTERSECTIONDISPLAY
280
0
  9
$INTERSECTIONCOLOR
 70
257
  9
$DIMASSOC
280
2
  9
$PROJECTNAME
  1

  9
$CAMERADISPLAY
290
0
  9
$LENSLENGTH
 40
50.0
  9
$CAMERAHEIGHT
 40
0.0
  9
$STEPSPERSEC
 40
24.0
  9
$STEPSIZE
 40
100.0
  9
$3DDWFPREC
 40
2.0
  9
$PSOLWIDTH
 40
0.005
  9
$PSOLHEIGHT
 40
0.08
  9
$LOFTANG1
 40
1.570796326795
  9
$LOFTANG2
 40
1.570796326795
  9
$LOFTMAG1
 40
0.0
  9
$LOFTMAG2
 40
0.0
  9
$LOFTPARAM
 70
7
  9
$LOFTNORMALS
280
1
  9
$LATITUDE
 40
37.795
  9
$LONGITUDE
 40
-122.394
  9
$NORTHDIRECTION
 40
0.0
  9
$TIMEZONE
 70
-8000
  9
$LIGHTGLYPHDISPLAY
280
1
  9
$TILEMODELIGHTSYNCH
280
1
  9
$CMATERIAL
347
20
  9
$SOLIDHIST
280
0
  9
$SHOWHIST
280
1
  9
$DWFFRAME
280
2
  9
$DGNFRAME
280
2
  9
$REALWORLDSCALE
290
1
  9
$INTERFERECOLOR
 62
256
  9
$CSHADOW
280
0
  9
$SHADOWPLANELOCATION
 40
0.0
  0
ENDSEC
  0
SECTION
  2
CLASSES
  0
CLASS
  1
ACDBDICTIONARYWDFLT
  2
AcDbDictionaryWithDefault
  3
ObjectDBX Classes
 90
0
 91
0
280
0
281
0
  0
CLASS
  1
SUN
  2
AcDbSun
  3
SCENEOE
 90
1153
 91
0
280
0
281
0
  0
CLASS
  1
VISUALSTYLE
  2
AcDbVisualStyle
  3
ObjectDBX Classes
 90
4095
 91
0
280
0
281
0
  0
CLASS
  1
MATERIAL
  2
AcDbMaterial
  3
ObjectDBX Classes
 90
1153
 91
0
280
0
281
0
  0
CLASS
  1
SCALE
  2
AcDbScale
  3
ObjectDBX Classes
 90
1153
 91
0
280
0
281
0
  0
CLASS
  1
TABLESTYLE
  2
AcDbTableStyle
  3
ObjectDBX Classes
 90
4095
 91
0
280
0
281
0
  0
CLASS
  1
MLEADERSTYLE
  2
AcDbMLeaderStyle
  3
ACDB_MLEADERSTYLE_CLASS
 90
4095
 91
0
280
0
281
0
  0
CLASS
  1
DICTIONARYVAR
  2
AcDbDictionaryVar
  3
ObjectDBX Classes
 90
0
 91
0
280
0
281
0
  0
CLASS
  1
CELLSTYLEMAP
  2
AcDbCellStyleMap
  3
ObjectDBX Classes
 90
1152
 91
0
280
0
281
0
  0
CLASS
  1
MENTALRAYRENDERSETTINGS
  2
AcDbMentalRayRenderSettings
  3
SCENEOE
 90
1024
 91
0
280
0
281
0
  0
CLASS
  1
ACDBDETAILVIEWSTYLE
  2
AcDbDetailViewStyle
  3
ObjectDBX Classes
 90
1025
 91
0
280
0
281
0
  0
CLASS
  1
ACDBSECTIONVIEWSTYLE
  2
AcDbSectionViewStyle
  3
ObjectDBX Classes
 90
1025
 91
0
280
0
281
0
  0
CLASS
  1
RASTERVARIABLES
  2
AcDbRasterVariables
  3
ISM
 90
0
 91
0
280
0
281
0
  0
CLASS
  1
ACDBPLACEHOLDER
  2
AcDbPlaceHolder
  3
ObjectDBX Classes
 90
0
 91
0
280
0
281
0
  0
CLASS
  1
LAYOUT
  2
AcDbLayout
  3
ObjectDBX Classes
 90
0
 91
0
280
0
281
0
  0
ENDSEC
  0
SECTION
  2
TABLES
  0
TABLE
  2
VPORT
  5
8
330
0
100
AcDbSymbolTable
 70
1
  0
VPORT
  5
23
330
8
100
AcDbSymbolTableRecord
100
AcDbViewportTableRecord
  2
*Active
 70
0
 10
0.0
 20
0.0
 11
1.0
 21
1.0
 12
0.0
 22
0.0
 13
0.0
 23
0.0
 14
0.5
 24
0.5
 15
0.5
 25
0.5
 16
0.0
 26
0.0
 36
1.0
 17
0.0
 27
0.0
 37
0.0
 40
1000.0
 41
1.34
 42
50.0
 43
0.0
 44
0.0
 50
0.0
 51
0.0
 71
0
 72
1000
 73
1
 74
3
 75
0
 76
0
 77
0
 78
0
281
0
 65
0
146
0.0
  0
ENDTAB
  0
TABLE
  2
LTYPE
  5
2
330
0
100
AcDbSymbolTable
 70
3
  0
LTYPE
  5
24
330
2
100
AcDbSymbolTableRecord
100
AcDbLinetypeTableRecord
  2
ByBlock
 70
0
  3

 72
65
 73
0
 40
0.0
  0
LTYPE
  5
25
330
2
100
AcDbSymbolTableRecord
100
AcDbLinetypeTableRecord
  2
ByLayer
 70
0
  3

 72
65
 73
0
 40
0.0
  0
LTYPE
  5
26
330
2
100
AcDbSymbolTableRecord
100
AcDbLinetypeTableRecord
  2
Continuous
 70
0
  3

 72
65
 73
0
 40
0.0
  0
ENDTAB
  0
TABLE
  2
LAYER
  5
1
330
0
100
AcDbSymbolTable
 70
2
  0
LAYER
  5
27
330
1
100
AcDbSymbolTableRecord
100
AcDbLayerTableRecord
  2
0
 70
0
 62
7
  6
Continuous
370
-3
390
13
347
21
  0
LAYER
  5
28
330
1
100
AcDbSymbolTableRecord
100
AcDbLayerTableRecord
  2
Defpoints
 70
0
 62
7
  6
Continuous
290
0
370
-3
390
13
347
21
  0
ENDTAB
  0
TABLE
  2
STYLE
  5
5
330
0
100
AcDbSymbolTable
 70
1
  0
STYLE
  5
29
330
5
100
AcDbSymbolTableRecord
100
AcDbTextStyleTableRecord
  2
Standard
 70
0
 40
0.0
 41
1.0
 50
0.0
 71
0
 42
2.5
  3
txt
  4

  0
ENDTAB
  0
TABLE
  2
VIEW
  5
7
330
0
100
AcDbSymbolTable
 70
0
  0
ENDTAB
  0
TABLE
  2
UCS
  5
6
330
0
100
AcDbSymbolTable
 70
0
  0
ENDTAB
  0
TABLE
  2
APPID
  5
3
330
0
100
AcDbSymbolTable
 70
3
  0
APPID
  5
2A
330
3
100
AcDbSymbolTableRecord
100
AcDbRegAppTableRecord
  2
ACAD
 70
0
  0
APPID
  5
67
330
3
100
AcDbSymbolTableRecord
100
AcDbRegAppTableRecord
  2
HATCHBACKGROUNDCOLOR
 70
0
  0
APPID
  5
68
330
3
100
AcDbSymbolTableRecord
100
AcDbRegAppTableRecord
  2
EZDXF
 70
0
  0
ENDTAB
  0
TABLE
  2
DIMSTYLE
  5
4
330
0
100
AcDbSymbolTable
 70
1
100
AcDbDimStyleTable
  0
DIMSTYLE
105
2B
330
4
100
AcDbSymbolTableRecord
100
AcDbDimStyleTableRecord
  2
Standard
 70
0
 40
1.0
 41
2.5
 42
0.625
 43
3.75
 44
1.25
 45
0.0
 46
0.0
 47
0.0
 48
0.0
 49
2.5
140
2.5
141
2.5
142
0.0
143
0.03937007874
144
1.0
145
0.0
146
1.0
147
0.625
148
0.0
 69
0
 70
0
 71
0
 72
0
 73
0
 74
0
 75
0
 76
0
 77
1
 78
8
 79
3
170
0
171
3
172
1
173
0
174
0
175
0
176
0
177
0
178
0
179
2
271
2
272
2
273
2
274
3
275
0
276
0
277
2
278
44
279
0
280
0
281
0
282
0
283
0
284
8
285
0
286
0
288
0
289
3
290
0
371
-2
372
-2
  0
ENDTAB
  0
TABLE
  2
BLOCK_RECORD
  5
9
330
0
100
AcDbSymbolTable
 70
5
  0
BLOCK_RECORD
  5
17
330
9
100
AcDbSymbolTableRecord
100
AcDbBlockTableRecord
  2
*Model_Space
340
1A
 70
0
280
1
281
0
  0
BLOCK_RECORD
  5
1B
330
9
100
AcDbSymbolTableRecord
100
AcDbBlockTableRecord
  2
*Paper_Space
340
1E
 70
0
280
1
281
0
  0
BLOCK_RECORD
  5
37
330
9
100
AcDbSymbolTableRecord
100
AcDbBlockTableRecord
  2
B0
340
0
 70
0
280
1
281
0
  0
BLOCK_RECORD
  5
46
330
9
100
AcDbSymbolTableRecord
100
AcDbBlockTableRecord
  2
B1
340
0
 70
0
280
1
281
0
  0
BLOCK_RECORD
  5
54
330
9
100
AcDbSymbolTableRecord
100
AcDbBlockTableRecord
  2
B2
340
0
 70
0
280
1
281
0
  0
ENDTAB
  0
ENDSEC
  0
SECTION
  2
BLOCKS
  0
BLOCK
  5
18
330
17
100
AcDbEntity
  8
0
100
AcDbBlockBegin
  2
*Model_Space
 70
0
 10
0.0
 20
0.0
 30
0.0
  3
*Model_Space
  1

  0
ENDBLK
  5
19
330
17
100
AcDbEntity
  8
0
100
AcDbBlockEnd
  0
BLOCK
  5
1C
330
1B
100
AcDbEntity
  8
0
100
AcDbBlockBegin
  2
*Paper_Space
 70
0
 10
0.0
 20
0.0
 30
0.0
  3
*Paper_Space
  1

  0
ENDBLK
  5
1D
330
1B
100
AcDbEntity
  8
0
100
AcDbBlockEnd
  0
BLOCK
  5
38
330
37
100
AcDbEntity
  8
0
100
AcDbBlockBegin
  2
B0
 70
0
 10
2.259012426484918
 20
0.255476055720675
 30
0.0
  3
B0
  1

  0
LWPOLYLINE
  5
3A
330
37
100
AcDbEntity
  8
0
100
AcDbPolyline
 90
5
 70
0
 10
16.038742647207727
 20
-14.599028409468776
 42
-1.6466249368361296
 10
10.881451468054031
 20
26.702302838422916
 42
-1.5981071621491094
 10
-13.199302604437154
 20
-22.792002684282437
 42
-1.861821785041434
 10
-14.287168337267598
 20
-2.7978789841867098
 10
-8.276911709432689
 20
0.2002339508524429
 42
0.8484622599979463
  0
HATCH
  5
3B
330
37
100
AcDbEntity
  8
0
 62
7
100
AcDbHatch
 10
0.0
 20
0.0
 30
0.0
210
0.0
220
0.0
230
1.0
  2
SOLID
 70
1
 71
0
 91
1
 92
1
 93
3
 72
1
 10
-12.539807451732187
 20
-44.96962916215528
 11
-10.539807451732187
 21
-44.96962916215528
 72
2
 10
-10.539807451732187
 20
-43.96962916215528
 40
1
 50
-90
 51
90
 73
1
 72
3
 10
-12.539807451732187
 20
-43.96962916215528
 11
0.0
 21
1.0
 40
0.8943519531964197
 50
90
 51
270
 73
1
 97
0
 75
0
 76
1
 98
0
  0
CIRCLE
  5
3C
330
37
100
AcDbEntity
  8
0
100
AcDbCircle
 10
-10.392947227618151
 20
-36.04692070454921
 30
0.0
 40
14.43340567384324
  0
CIRCLE
  5
3D
330
37
100
AcDbEntity
  8
0
100
AcDbCircle
 10
-31.64556312616543
 20
-27.058033408559922
 30
0.0
 40
8.40431134928739
  0
LEADER
  5
3E
330
37
100
AcDbEntity
  8
0
100
AcDbLeader
  3
Standard
 73
3
 76
3
 10
25.13528060202735
 20
-41.004953508292715
 30
0.0
 10
30.13528060202735
 20
-37.004953508292715
 30
0.0
 10
34.13528060202735
 20
-37.004953508292715
 30
0.0
  0
SPLINE
  5
3F
330
37
100
AcDbEntity
  8
0
100
AcDbSpline
 70
0
 71
3
 72
9
 73
5
 74
0
 40
0.0
 40
0.0
 40
0.0
 40
0.0
 40
1.0
 40
2.0
 40
2.0
 40
2.0
 40
2.0
 10
-28.975978526986385
 20
1.5965173695977626
 30
0.0
 10
-7.795400101769257
 20
-8.647610528742987
 30
0.0
 10
16.206861819274785
 20
12.832322988024089
 30
0.0
 10
-7.9705055953303905
 20
14.352655456522825
 30
0.0
 10
28.91313926850666
 20
11.044672203752754
 30
0.0
  0
POLYLINE
  5
40
330
37
100
AcDbEntity
  8
0
100
AcDb2dPolyline
 66
1
 10
0.0
 20
0.0
 30
0.0
 70
0
  0
VERTEX
  5
42
330
37
100
AcDbEntity
  8
0
100
AcDbVertex
100
AcDb2dVertex
 10
28.16247492707354
 20
-12.259240402864975
 30
0.0
 70
0
  0
VERTEX
  5
43
330
37
100
AcDbEntity
  8
0
100
AcDbVertex
100
AcDb2dVertex
 10
-8.099248459935168
 20
7.129449312564461
 30
0.0
 42
-0.7442112270265657
 70
0
  0
VERTEX
  5
44
330
37
100
AcDbEntity
  8
0
100
AcDbVertex
100
AcDb2dVertex
 10
20.02819524296722
 20
-11.670955333161604
 30
0.0
 42
-0.7279328162898124
 70
0
  0
VERTEX
  5
45
330
37
100
AcDbEntity
  8
0
100
AcDbVertex
100
AcDb2dVertex
 10
-21.332691668014252
 20
-23.083408544133373
 30
0.0
 42
0.795314352857277
 70
0
  0
SEQEND
  5
41
330
40
100
AcDbEntity
  8
0
  0
ENDBLK
  5
39
330
37
100
AcDbEntity
  8
0
100
AcDbBlockEnd
  0
BLOCK
  5
47
330
46
100
AcDbEntity
  8
0
100
AcDbBlockBegin
  2
B1
 70
0
 10
4.458058066562636
 20
-4.993503597481167
 30
0.0
  3
B1
  1

  0
MTEXT
  5
49
330
46
100
AcDbEntity
  8
0
100
AcDbMText
 10
-42.78991314438759
 20
-12.206187737377462
 30
0.0
 40
2.5
 71
1
  1
M2\P{\H2;x}
 50
16.403689364077977
  0
SPLINE
  5
4A
330
46
100
AcDbEntity
  8
0
100
AcDbSpline
 70
0
 71
3
 72
10
 73
6
 74
0
 40
0.0
 40
0.0
 40
0.0
 40
0.0
 40
1.0
 40
2.0
 40
3.0
 40
3.0
 40
3.0
 40
3.0
 10
-17.868167645137817
 20
-8.537488084281804
 30
0.0
 10
-26.191607567603082
 20
-25.909839144260022
 30
0.0
 10
-12.527180926809567
 20
13.838286960386
 30
0.0
 10
1.597131793785401
 20
-2.0204521154731445
 30
0.0
 10
-26.293694620762164
 20
18.12680133123113
 30
0.0
 10
26.731084080134828
 20
11.3462952611263
 30
0.0
  0
LEADER
  5
4B
330
46
100
AcDbEntity
  8
0
100
AcDbLeader
  3
Standard
 73
3
 76
3
 10
-15.748846613101819
 20
49.98885202138959
 30
0.0
 10
-10.748846613101819
 20
53.98885202138959
 30
0.0
 10
-6.7488466131018185
 20
53.98885202138959
 30
0.0
  0
SPLINE
  5
4C
330
46
100
AcDbEntity
  8
0
100
AcDbSpline
 70
0
 71
3
 72
0
 73
0
 74
19
 11
-7.517658555881482
 21
-11.447797218090678
 31
0.0
 11
-5.517658555881482
 21
-9.75276917090203
 31
0.0
 11
-3.517658555881482
 21
-9.15207694435701
 31
0.0
 11
-1.5176585558814821
 21
-9.829862071473777
 31
0.0
 11
0.48234144411851787
 21
-9.900025203572145
 31
0.0
 11
2.482341444118518
 21
-8.599719013250585
 31
0.0
 11
4.482341444118518
 21
-7.420729723176344
 31
0.0
 11
6.482341444118518
 21
-8.768121392459458
 31
0.0
 11
8.482341444118518
 21
-8.15515710354399
 31
0.0
 11
10.482341444118518
 21
-9.086898441739393
 31
0.0
 11
12.482341444118518
 21
-10.432711401182093
 31
0.0
 11
14.482341444118518
 21
-7.694791088378015
 31
0.0
 11
16.482341444118518
 21
-7.440136154301349
 31
0.0
 11
18.482341444118518
 21
-7.72376150280681
 31
0.0
 11
20.482341444118518
 21
-9.893739660810985
 31
0.0
 11
22.482341444118518
 21
-9.44025986458939
 31
0.0
 11
24.482341444118518
 21
-10.11044459317726
 31
0.0
 11
26.482341444118518
 21
-12.215914322933283
 31
0.0
 11
28.482341444118518
 21
-10.326281712625171
 31
0.0
  0
SPLINE
  5
4D
330
46
100
AcDbEntity
  8
0
100
AcDbSpline
 70
0
 71
3
 72
9
 73
5
 74
0
 40
0.0
 40
0.0
 40
0.0
 40
0.0
 40
1.0
 40
2.0
 40
2.0
 40
2.0
 40
2.0
 10
-13.452351468124927
 20
3.185599919599561
 30
0.0
 10
-26.292142659035406
 20
-11.607417653319242
 30
0.0
 10
-6.3346057013165264
 20
-18.01399163637975
 30
0.0
 10
-5.865895145743345
 20
-26.940325333636814
 30
0.0
 10
-19.124832369653227
 20
8.259083480558814
 30
0.0
  0
ARC
  5
4E
330
46
100
AcDbEntity
  8
0
100
AcDbCircle
 10
19.00412780385355
 20
-21.806428970346325
 30
0.0
 40
4.748522324720583
100
AcDbArc
 50
-218.65357640857601
 51
131.2003359355399
  0
ARC
  5
4F
330
46
100
AcDbEntity
  8
0
100
AcDbCircle
 10
-45.58634832589592
 20
30.541965277164948
 30
0.0
 40
11.023325290065426
210
0.01
220
0.005
230
1.0
100
AcDbArc
 50
-188.7895819066591
 51
98.74759155506132
  0
SPLINE
  5
50
330
46
100
AcDbEntity
  8
0
100
AcDbSpline
 70
0
 71
3
 72
0
 73
0
 74
18
 12
1.0
 22
-0.6138117793337334
 32
0.0
 13
1.0
 23
0.2985235679406988
 33
0.0
 11
35.60796213621856
 21
12.651930130993227
 31
0.0
 11
37.60796213621856
 21
11.23987683728129
 31
0.0
 11
39.60796213621856
 21
13.111821017135892
 31
0.0
 11
41.60796213621856
 21
13.653259295920188
 31
0.0
 11
43.60796213621856
 21
14.145066674496883
 31
0.0
 11
45.60796213621856
 21
12.400592831448732
 31
0.0
 11
47.60796213621856
 21
13.21171238658244
 31
0.0
 11
49.60796213621856
 21
11.496126767742453
 31
0.0
 11
51.60796213621856
 21
10.902394927433333
 31
0.0
 11
53.60796213621856
 21
10.845632662707091
 31
0.0
 11
55.60796213621856
 21
15.590729125410595
 31
0.0
 11
57.60796213621856
 21
11.264932852659632
 31
0.0
 11
59.60796213621856
 21
12.961418576742377
 31
0.0
 11
61.60796213621856
 21
15.500003218492582
 31
0.0
 11
63.60796213621856
 21
10.316648833985566
 31
0.0
 11
65.60796213621856
 21
10.274872851905517
 31
0.0
 11
67.60796213621856
 21
12.89948266174805
 31
0.0
 11
69.60796213621856
 21
15.718117261086576
 31
0.0
  0
ARC
  5
51
330
46
100
AcDbEntity
  8
0
100
AcDbCircle
 10
4.908997404890172
 20
-25.295213661257996
 30
0.0
 40
13.499387850986757
100
AcDbArc
 50
349.2287108175127
 51
-257.8800162598219
  0
INSERT
  5
52
330
46
100
AcDbEntity
  8
0
100
AcDbBlockReference
  2
B0
 10
-3.575950573797403
 20
8.803735584270235
 30
0.0
 41
0.5
 42
3.0
 50
213.71862295365656
  0
ENDBLK
  5
48
330
46
100
AcDbEntity
  8
0
100
AcDbBlockEnd
  0
BLOCK
  5
55
330
54
100
AcDbEntity
  8
0
100
AcDbBlockBegin
  2
B2
 70
0
 10
-0.9583966521860177
 20
-0.27504812231268794
 30
0.0
  3
B2
  1

  0
HATCH
  5
57
330
54
100
AcDbEntity
  8
0
 62
7
100
AcDbHatch
 10
0.0
 20
0.0
 30
0.0
210
0.0
220
0.0
230
1.0
  2
SOLID
 70
1
 71
0
 91
1
 92
1
 93
3
 72
1
 10
-12.244381914206038
 20
-6.961498404496943
 11
-10.244381914206038
 21
-6.961498404496943
 72
2
 10
-10.244381914206038
 20
-5.961498404496943
 40
1
 50
-90
 51
90
 73
1
 72
3
 10
-12.244381914206038
 20
-5.961498404496943
 11
0.0
 21
1.0
 40
0.6151370057562366
 50
90
 51
270
 73
1
 97
0
 75
0
 76
1
 98
0
  0
ARC
  5
58
330
54
100
AcDbEntity
  8
0
100
AcDbCircle
 10
-48.72895377194092
 20
7.123950084912778
 30
0.0
 40
12.725098033680519
210
0.0
220
0.0
230
-1.0
100
AcDbArc
 50
-342.97144101625435
 51
-238.61377774171865
  0
SOLID
  5
59
330
54
100
AcDbEntity
  8
0
100
AcDbTrace
 10
-44.739876287414795
 20
-46.68558052499352
 30
0.0
 11
-43.739876287414795
 21
-46.68558052499352
 31
0.0
 12
-44.739876287414795
 22
-45.985580524993516
 32
0.0
 13
-43.53987628741479
 23
-45.68558052499352
 33
0.0
  0
SPLINE
  5
5A
330
54
100
AcDbEntity
  8
0
100
AcDbSpline
 70
0
 71
2
 72
8
 73
5
 74
0
 40
0.0
 40
0.0
 40
0.0
 40
1.0
 40
2.0
 40
3.0
 40
3.0
 40
3.0
 10
-9.501552389163116
 20
11.677273340801442
 30
0.0
 10
6.190138438230122
 20
-12.255437981801084
 30
0.0
 10
19.178886596343624
 20
-22.170884837853077
 30
0.0
 10
6.245456702536806
 20
-21.404894553534476
 30
0.0
 10
-16.067033658973845
 20
5.190154348392362
 30
0.0
  0
ELLIPSE
  5
5B
330
54
100
AcDbEntity
  8
0
100
AcDbEllipse
 10
37.19718296439781
 20
37.25191698497048
 30
0.0
 11
2.988281476059729
 21
-6.007073759139539
 31
0.0
210
0.01
220
0.005
230
1.0
 40
0.09848629694103218
 41
-3.598527656977815
 42
-6.528666112612187
  0
HATCH
  5
5C
330
54
100
AcDbEntity
  8
0
 62
7
100
AcDbHatch
 10
0.0
 20
0.0
 30
0.0
210
0.0
220
0.0
230
1.0
  2
SOLID
 70
1
 71
0
 91
1
 92
1
 93
3
 72
1
 10
37.86776940303092
 20
-16.540976782840957
 11
39.86776940303092
 21
-16.540976782840957
 72
2
 10
39.86776940303092
 20
-15.540976782840957
 40
1
 50
-90
 51
90
 73
1
 72
3
 10
37.86776940303092
 20
-15.540976782840957
 11
0.0
 21
1.0
 40
0.4355888769534136
 50
90
 51
270
 73
1
 97
0
 75
0
 76
1
 98
0
  0
INSERT
  5
5D
330
54
100
AcDbEntity
  8
0
100
AcDbBlockReference
  2
B1
 10
5.260270596078113
 20
-0.2543428701485979
 30
0.0
 50
313.8476503629674
  0
ENDBLK
  5
56
330
54
100
AcDbEntity
  8
0
100
AcDbBlockEnd
  0
ENDSEC
  0
SECTION
  2
ENTITIES
  0
ELLIPSE
  5
2F
330
17
100
AcDbEntity
  8
0
100
AcDbEllipse
 10
-35.85759574599031
 20
-17.82283136611347
 30
0.0
 11
-2.5477231661206083
 21
8.4133666211575
 31
0.0
210
0.0
220
0.0
230
-1.0
 40
0.5680156646202088
 41
-6.252240305652584
 42
3.670154590457603
  0
SOLID
  5
30
330
17
100
AcDbEntity
  8
0
100
AcDbTrace
 10
-20.403236799821755
 20
14.44265768323993
 30
0.0
 11
-19.403236799821755
 21
14.44265768323993
 31
0.0
 12
-20.403236799821755
 22
15.142657683239928
 32
0.0
 13
-19.203236799821756
 23
15.44265768323993
 33
0.0
  0
MTEXT
  5
31
330
17
100
AcDbEntity
  8
0
100
AcDbMText
 10
-36.893470346285525
 20
-26.707523423829837
 30
0.0
 40
2.5
 71
1
  1
M8\P{\H2;x}
 50
45.08907423224768
  0
LEADER
  5
32
330
17
100
AcDbEntity
  8
0
100
AcDbLeader
  3
Standard
 73
3
 76
3
 10
37.92839687958035
 20
22.718253312738497
 30
0.0
 10
42.92839687958035
 20
26.718253312738497
 30
0.0
 10
46.92839687958035
 20
26.718253312738497
 30
0.0
  0
SPLINE
  5
33
330
17
100
AcDbEntity
  8
0
100
AcDbSpline
 70
0
 71
3
 72
9
 73
5
 74
0
 40
0.0
 40
0.0
 40
0.0
 40
0.0
 40
1.0
 40
2.0
 40
2.0
 40
2.0
 40
2.0
 10
5.011594164940227
 20
4.108816282893869
 30
0.0
 10
17.607714340844026
 20
10.75431199578452
 30
0.0
 10
1.2249804382353418
 20
-4.407487797508441
 30
0.0
 10
-1.2118836975048595
 20
2.1161899139149014
 30
0.0
 10
-5.326910768234065
 20
25.52900991178342
 30
0.0
  0
LWPOLYLINE
  5
34
330
17
100
AcDbEntity
  8
0
100
AcDbPolyline
 90
2
 70
1
 10
21.36104507781839
 20
-20.221727555803408
 10
9.844181079560656
 20
-16.949375335974928
 42
-1.9194884521149236
210
0.0
220
0.0
230
-1.0
  0
SPLINE
  5
35
330
17
100
AcDbEntity
  8
0
100
AcDbSpline
 70
0
 71
3
 72
10
 73
6
 74
0
 40
0.0
 40
0.0
 40
0.0
 40
0.0
 40
1.0
 40
2.0
 40
3.0
 40
3.0
 40
3.0
 40
3.0
 10
-7.991780405359606
 20
18.183824940471823
 30
0.0
 10
22.246548454293354
 20
-2.160543025234361
 30
0.0
 10
-24.585031810142304
 20
-20.38350045889791
 30
0.0
 10
-7.118848678276024
 20
-0.47789261151149276
 30
0.0
 10
28.799833759720222
 20
14.004320241184438
 30
0.0
 10
0.3615233619723739
 20
-27.943955471742612
 30
0.0
  0
HATCH
  5
36
330
17
100
AcDbEntity
  8
0
 62
7
100
AcDbHatch
 10
0.0
 20
0.0
 30
0.0
210
0.0
220
0.0
230
1.0
  2
SOLID
 70
1
 71
0
 91
1
 92
1
 93
3
 72
1
 10
31.13534429664483
 20
25.166337870546272
 11
33.13534429664483
 21
25.166337870546272
 72
2
 10
33.13534429664483
 20
26.166337870546272
 40
1
 50
-90
 51
90
 73
1
 72
3
 10
31.13534429664483
 20
26.166337870546272
 11
0.0
 21
1.0
 40
0.5423737461557906
 50
90
 51
270
 73
1
 97
0
 75
0
 76
1
 98
0
  0
INSERT
  5
5F
330
17
100
AcDbEntity
  8
0
100
AcDbBlockReference
  2
B1
 10
-70.88499961900575
 20
57.50209856937411
 30
0.0
 41
-1.0
 50
334.85319125192666
  0
INSERT
  5
61
330
17
100
AcDbEntity
  8
0
100
AcDbBlockReference
  2
B0
 10
49.757657075262074
 20
47.62454584580199
 30
0.0
 41
1.5
 42
-1.5
 50
334.76245972304287
  0
INSERT
  5
63
330
17
100
AcDbEntity
  8
0
100
AcDbBlockReference
  2
B0
 10
61.75557358541471
 20
45.25648566443664
 30
0.0
 41
2.0
 42
2.0
 50
347.7052292883906
  0
INSERT
  5
65
330
17
100
AcDbEntity
  8
0
100
AcDbBlockReference
  2
B2
 10
-29.45184813006621
 20
-62.51230273707492
 30
0.0
 41
2.0
 42
2.0
 50
110.57595687530018
  0
ENDSEC
  0
SECTION
  2
OBJECTS
  0
DICTIONARY
  5
A
330
0
100
AcDbDictionary
281
1
  3
ACAD_COLOR
350
B
  3
ACAD_GROUP
350
C
  3
ACAD_LAYOUT
350
D
  3
ACAD_MATERIAL
350
E
  3
ACAD_MLEADERSTYLE
350
F
  3
ACAD_MLINESTYLE
350
10
  3
ACAD_PLOTSETTINGS
350
11
  3
ACAD_PLOTSTYLENAME
350
12
  3
ACAD_SCALELIST
350
14
  3
ACAD_TABLESTYLE
350
15
  3
ACAD_VISUALSTYLE
350
16
  3
EZDXF_META
350
2D
  0
DICTIONARY
  5
B
330
A
100
AcDbDictionary
281
1
  0
DICTIONARY
  5
C
330
A
100
AcDbDictionary
281
1
  0
DICTIONARY
  5
D
330
A
100
AcDbDictionary
281
1
  3
Model
350
1A
  3
Layout1
350
1E
  0
DICTIONARY
  5
E
330
A
100
AcDbDictionary
281
1
  3
ByBlock
350
1F
  3
ByLayer
350
20
  3
Global
350
21
  0
DICTIONARY
  5
F
330
A
100
AcDbDictionary
281
1
  3
Standard
350
2C
  0
DICTIONARY
  5
10
330
A
100
AcDbDictionary
281
1
  3
Standard
350
22
  0
DICTIONARY
  5
11
330
A
100
AcDbDictionary
281
1
  0
ACDBDICTIONARYWDFLT
  5
12
330
A
100
AcDbDictionary
281
1
  3
Normal
350
13
100
AcDbDictionaryWithDefault
340
13
  0
ACDBPLACEHOLDER
  5
13
330
12
  0
DICTIONARY
  5
14
330
A
100
AcDbDictionary
281
1
  0
DICTIONARY
  5
15
330
A
100
AcDbDictionary
281
1
  0
DICTIONARY
  5
16
330
A
100
AcDbDictionary
281
1
  0
LAYOUT
  5
1A
330
D
100
AcDbPlotSettings
  1

  4
A3
  6

 40
7.5
 41
20.0
 42
7.5
 43
20.0
 44
420.0
 45
297.0
 46
0.0
 47
0.0
 48
0.0
 49
0.0
140
0.0
141
0.0
142
1.0
143
1.0
 70
1024
 72
1
 73
0
 74
5
  7

 75
16
 76
0
 77
2
 78
300
147
1.0
148
0.0
149
0.0
100
AcDbLayout
  1
Model
 70
1
 71
0
 10
0.0
 20
0.0
 11
420.0
 21
297.0
 12
0.0
 22
0.0
 32
0.0
 14
1e+20
 24
1e+20
 34
1e+20
 15
-1e+20
 25
-1e+20
 35
-1e+20
146
0.0
 13
0.0
 23
0.0
 33
0.0
 16
1.0
 26
0.0
 36
0.0
 17
0.0
 27
1.0
 37
0.0
 76
1
330
17
  0
LAYOUT
  5
1E
330
D
100
AcDbPlotSettings
  1

  4
A3
  6

 40
7.5
 41
20.0
 42
7.5
 43
20.0
 44
420.0
 45
297.0
 46
0.0
 47
0.0
 48
0.0
 49
0.0
140
0.0
141
0.0
142
1.0
143
1.0
 70
0
 72
1
 73
0
 74
5
  7

 75
16
 76
0
 77
2
 78
300
147
1.0
148
0.0
149
0.0
100
AcDbLayout
  1
Layout1
 70
1
 71
1
 10
0.0
 20
0.0
 11
420.0
 21
297.0
 12
0.0
 22
0.0
 32
0.0
 14
1e+20
 24
1e+20
 34
1e+20
 15
-1e+20
 25
-1e+20
 35
-1e+20
146
0.0
 13
0.0
 23
0.0
 33
0.0
 16
1.0
 26
0.0
 36
0.0
 17
0.0
 27
1.0
 37
0.0
 76
1
330
1B
  0
MATERIAL
  5
1F
102
{ACAD_REACTORS
330
E
102
}
330
E
100
AcDbMaterial
  1
ByBlock
  2

 70
0
 40
1.0
 71
1
 41
1.0
 91
-1023410177
 42
1.0
 72
1
  3

 73
1
 74
1
 75
1
 44
0.5
 73
0
 45
1.0
 46
1.0
 77
1
  4

 78
1
 79
1
170
1
 48
1.0
171
1
  6

172
1
173
1
174
1
140
1.0
141
1.0
175
1
  7

176
1
177
1
178
1
143
1.0
179
1
  8

270
1
271
1
272
1
145
1.0
146
1.0
273
1
  9

274
1
275
1
276
1
 42
1.0
 72
1
  3

 73
1
 74
1
 75
1
 94
63
  0
MATERIAL
  5
20
102
{ACAD_REACTORS
330
E
102
}
330
E
100
AcDbMaterial
  1
ByLayer
  2

 70
0
 40
1.0
 71
1
 41
1.0
 91
-1023410177
 42
1.0
 72
1
  3

 73
1
 74
1
 75
1
 44
0.5
 73
0
 45
1.0
 46
1.0
 77
1
  4

 78
1
 79
1
170
1
 48
1.0
171
1
  6

172
1
173
1
174
1
140
1.0
141
1.0
175
1
  7

176
1
177
1
178
1
143
1.0
179
1
  8

270
1
271
1
272
1
145
1.0
146
1.0
273
1
  9

274
1
275
1
276
1
 42
1.0
 72
1
  3

 73
1
 74
1
 75
1
 94
63
  0
MATERIAL
  5
21
102
{ACAD_REACTORS
330
E
102
}
330
E
100
AcDbMaterial
  1
Global
  2

 70
0
 40
1.0
 71
1
 41
1.0
 91
-1023410177
 42
1.0
 72
1
  3

 73
1
 74
1
 75
1
 44
0.5
 73
0
 45
1.0
 46
1.0
 77
1
  4

 78
1
 79
1
170
1
 48
1.0
171
1
  6

172
1
173
1
174
1
140
1.0
141
1.0
175
1
  7

176
1
177
1
178
1
143
1.0
179
1
  8

270
1
271
1
272
1
145
1.0
146
1.0
273
1
  9

274
1
275
1
276
1
 42
1.0
 72
1
  3

 73
1
 74
1
 75
1
 94
63
  0
MLINESTYLE
  5
22
102
{ACAD_REACTORS
330
10
102
}
330
10
100
AcDbMlineStyle
  2
Standard
 70
0
  3

 62
256
 51
90.0
 52
90.0
 71
2
 49
0.5
 62
256
  6
BYLAYER
 49
-0.5
 62
256
  6
BYLAYER
  0
MLEADERSTYLE
  5
2C
102
{ACAD_REACTORS
330
F
102
}
330
F
100
AcDbMLeaderStyle
179
2
170
2
171
1
172
0
 90
2
 40
0.0
 41
0.0
173
1
 91
-1056964608
 92
-2
290
1
 42
2.0
291
1
 43
8.0
  3
Standard
 44
4.0
300

342
29
174
1
175
1
176
0
178
1
 93
-1056964608
 45
4.0
292
0
297
0
 46
4.0
 94
-1056964608
 47
1.0
 49
1.0
140
1.0
294
1
141
0.0
177
0
142
1.0
295
0
296
0
143
3.75
271
0
272
9
273
9
  0
DICTIONARY
  5
2D
330
A
100
AcDbDictionary
280
1
281
1
  3
CREATED_BY_EZDXF
350
2E
  3
WRITTEN_BY_EZDXF
350
69
  0
DICTIONARYVAR
  5
2E
330
2D
100
DictionaryVariables
280
0
  1
1.4.4 @ 2026-10-06T03:36:34.642273+00:00
  0
DICTIONARYVAR
  5
69
330
2D
100
DictionaryVariables
280
0
  1
1.4.4 @ 2026-10-06T03:36:34.646312+00:00
  0
ENDSEC
  0
EOF
